<mxfile host="app.diagrams.net" agent="Mozilla/5.0 (Macintosh; Intel Mac OS X 10_15_7) AppleWebKit/537.36 (KHTML, like Gecko) Chrome/131.0.0.0 Safari/537.36" version="24.7.17">
  <diagram name="PÃ¡gina-1" id="jyjFaOsoMx00wjR67e4M">
    <mxGraphModel dx="1509" dy="826" grid="1" gridSize="10" guides="1" tooltips="1" connect="1" arrows="1" fold="1" page="1" pageScale="1" pageWidth="827" pageHeight="1169" math="0" shadow="0">
      <root>
        <mxCell id="0" />
        <mxCell id="1" parent="0" />
        <mxCell id="z_7tf-593rKs41fNWHXD-37" value="" style="rounded=1;whiteSpace=wrap;html=1;fillColor=none;" parent="1" vertex="1">
          <mxGeometry x="231.25" y="270" width="480" height="540" as="geometry" />
        </mxCell>
        <mxCell id="z_7tf-593rKs41fNWHXD-39" value="" style="rounded=1;whiteSpace=wrap;html=1;fillColor=none;" parent="1" vertex="1">
          <mxGeometry x="281.25" y="310" width="380" height="450" as="geometry" />
        </mxCell>
        <mxCell id="z_7tf-593rKs41fNWHXD-38" value="" style="rounded=1;whiteSpace=wrap;html=1;fillColor=none;" parent="1" vertex="1">
          <mxGeometry x="240" y="50" width="380" height="150" as="geometry" />
        </mxCell>
        <mxCell id="z_7tf-593rKs41fNWHXD-32" style="edgeStyle=orthogonalEdgeStyle;rounded=0;orthogonalLoop=1;jettySize=auto;html=1;" parent="1" source="z_7tf-593rKs41fNWHXD-3" edge="1">
          <mxGeometry relative="1" as="geometry">
            <mxPoint x="281.25" y="470" as="targetPoint" />
          </mxGeometry>
        </mxCell>
        <mxCell id="z_7tf-593rKs41fNWHXD-3" value="" style="image;aspect=fixed;perimeter=ellipsePerimeter;html=1;align=center;shadow=0;dashed=0;spacingTop=3;image=img/lib/active_directory/internet_globe.svg;" parent="1" vertex="1">
          <mxGeometry x="151.25" y="445" width="50" height="50" as="geometry" />
        </mxCell>
        <mxCell id="z_7tf-593rKs41fNWHXD-29" style="edgeStyle=orthogonalEdgeStyle;rounded=0;orthogonalLoop=1;jettySize=auto;html=1;" parent="1" source="z_7tf-593rKs41fNWHXD-6" target="z_7tf-593rKs41fNWHXD-3" edge="1">
          <mxGeometry relative="1" as="geometry" />
        </mxCell>
        <mxCell id="z_7tf-593rKs41fNWHXD-6" value="" style="verticalLabelPosition=bottom;html=1;verticalAlign=top;align=center;strokeColor=none;fillColor=#00BEF2;shape=mxgraph.azure.user;" parent="1" vertex="1">
          <mxGeometry x="51.25" y="445" width="47.5" height="50" as="geometry" />
        </mxCell>
        <mxCell id="z_7tf-593rKs41fNWHXD-30" style="edgeStyle=orthogonalEdgeStyle;rounded=0;orthogonalLoop=1;jettySize=auto;html=1;endArrow=none;endFill=0;" parent="1" source="z_7tf-593rKs41fNWHXD-7" edge="1">
          <mxGeometry relative="1" as="geometry">
            <mxPoint x="121.25" y="470" as="targetPoint" />
          </mxGeometry>
        </mxCell>
        <mxCell id="z_7tf-593rKs41fNWHXD-7" value="" style="verticalLabelPosition=bottom;html=1;verticalAlign=top;align=center;strokeColor=none;fillColor=#00BEF2;shape=mxgraph.azure.mobile;pointerEvents=1;" parent="1" vertex="1">
          <mxGeometry x="57.5" y="350" width="35" height="50" as="geometry" />
        </mxCell>
        <mxCell id="z_7tf-593rKs41fNWHXD-31" style="edgeStyle=orthogonalEdgeStyle;rounded=0;orthogonalLoop=1;jettySize=auto;html=1;endArrow=none;endFill=0;" parent="1" source="z_7tf-593rKs41fNWHXD-8" edge="1">
          <mxGeometry relative="1" as="geometry">
            <mxPoint x="121.25" y="460" as="targetPoint" />
          </mxGeometry>
        </mxCell>
        <mxCell id="z_7tf-593rKs41fNWHXD-8" value="" style="verticalLabelPosition=bottom;html=1;verticalAlign=top;align=center;strokeColor=none;fillColor=#00BEF2;shape=mxgraph.azure.computer;pointerEvents=1;" parent="1" vertex="1">
          <mxGeometry x="50" y="540" width="50" height="45" as="geometry" />
        </mxCell>
        <mxCell id="z_7tf-593rKs41fNWHXD-13" value="" style="shape=image;verticalLabelPosition=bottom;labelBackgroundColor=#ffffff;verticalAlign=top;aspect=fixed;imageAspect=0;image=data:image/svg+xml,PHN2ZyB4bWxuczpjYz0iaHR0cDovL2NyZWF0aXZlY29tbW9ucy5vcmcvbnMjIiB4bWxuczpkYz0iaHR0cDovL3B1cmwub3JnL2RjL2VsZW1lbnRzLzEuMS8iIHhtbG5zOmlua3NjYXBlPSJodHRwOi8vd3d3Lmlua3NjYXBlLm9yZy9uYW1lc3BhY2VzL2lua3NjYXBlIiB4bWxuczpyZGY9Imh0dHA6Ly93d3cudzMub3JnLzE5OTkvMDIvMjItcmRmLXN5bnRheC1ucyMiIHhtbG5zOnNvZGlwb2RpPSJodHRwOi8vc29kaXBvZGkuc291cmNlZm9yZ2UubmV0L0RURC9zb2RpcG9kaS0wLmR0ZCIgeG1sbnM6c3ZnPSJodHRwOi8vd3d3LnczLm9yZy8yMDAwL3N2ZyIgeG1sbnM9Imh0dHA6Ly93d3cudzMub3JnLzIwMDAvc3ZnIiB4bWxuczp4bGluaz0iaHR0cDovL3d3dy53My5vcmcvMTk5OS94bGluayIgdmVyc2lvbj0iMS4xIiBpZD0ic3ZnNjA4MDMiIGlua3NjYXBlOnZlcnNpb249IjAuOTIuMyAoMjQwNTU0NiwgMjAxOC0wMy0xMSkiIHNvZGlwb2RpOmRvY25hbWU9ImF6dXJlX3BvcnRhbF9yZXNvdXJjZV9ncm91cHMuc3ZnIiB4PSIwcHgiIHk9IjBweCIgdmlld0JveD0iMCAwIDMwLjczIDI1LjgzIiBzdHlsZT0iZW5hYmxlLWJhY2tncm91bmQ6bmV3IDAgMCAzMC43MyAyNS44MzsiIHhtbDpzcGFjZT0icHJlc2VydmUiPiYjeGE7PHNvZGlwb2RpOm5hbWVkdmlldyBib3JkZXJjb2xvcj0iIzY2NjY2NiIgYm9yZGVyb3BhY2l0eT0iMSIgZml0LW1hcmdpbi1ib3R0b209IjAiIGZpdC1tYXJnaW4tbGVmdD0iMCIgZml0LW1hcmdpbi1yaWdodD0iMCIgZml0LW1hcmdpbi10b3A9IjAiIGdyaWR0b2xlcmFuY2U9IjEwIiBndWlkZXRvbGVyYW5jZT0iMTAiIGlkPSJuYW1lZHZpZXc2MDgwNSIgaW5rc2NhcGU6Y3VycmVudC1sYXllcj0ic3ZnNjA4MDMiIGlua3NjYXBlOmN4PSIxMi40OTE3MjQiIGlua3NjYXBlOmN5PSIxNi45Mjk2NTQiIGlua3NjYXBlOnBhZ2VvcGFjaXR5PSIwIiBpbmtzY2FwZTpwYWdlc2hhZG93PSIyIiBpbmtzY2FwZTp3aW5kb3ctaGVpZ2h0PSIxMDE3IiBpbmtzY2FwZTp3aW5kb3ctbWF4aW1pemVkPSIxIiBpbmtzY2FwZTp3aW5kb3ctd2lkdGg9IjE5MjAiIGlua3NjYXBlOndpbmRvdy14PSItOCIgaW5rc2NhcGU6d2luZG93LXk9Ii04IiBpbmtzY2FwZTp6b29tPSIxNy43OTg0MjciIG9iamVjdHRvbGVyYW5jZT0iMTAiIHBhZ2Vjb2xvcj0iI2ZmZmZmZiIgc2hvd2dyaWQ9ImZhbHNlIj4mI3hhOwk8L3NvZGlwb2RpOm5hbWVkdmlldz4mI3hhOzxnIGlkPSJnNjA4MDEiIHRyYW5zZm9ybT0idHJhbnNsYXRlKDAsLTMuNzk1ODg0NmUtNSkiPiYjeGE7CTx0aXRsZSBpZD0idGl0bGU2MDc3MSI+UGFnZS0xPC90aXRsZT4mI3hhOwk8ZyBpZD0iZ3JvdXA0MzAyLTEiPiYjeGE7CQk8dGl0bGUgaWQ9InRpdGxlNjA3NzMiPkF6dXJlIFBvcnRhbCAtIFJlc291cmNlIGdyb3VwczwvdGl0bGU+JiN4YTsJCTxnIGlkPSJzaGFwZTQzMDMtMiIgdHJhbnNmb3JtPSJ0cmFuc2xhdGUoNy41MDg3LC0xMy44NTYxKSI+JiN4YTsJCQk8dGl0bGUgaWQ9InRpdGxlNjA3NzUiPlNoZWV0LjQzMDM8L3RpdGxlPiYjeGE7CQkJPHBhdGggaWQ9InBhdGg2MDc3NyIgaW5rc2NhcGU6Y29ubmVjdG9yLWN1cnZhdHVyZT0iMCIgc3R5bGU9ImZpbGw6IzAwNzVDOTsiIGQ9Ik03LjksMjUuODNjLTAuMDQsMC0wLjA3LDAtMC4xMSwwICAgICBjLTcuNjYtNC4zNy03LjY2LTQuMzctNy42Ni00LjM3QzAuMDQsMjEuNDIsMCwyMS4zNCwwLDIxLjI1YzAtMC4wNywwLjA0LTAuMTQsMC4xMy0wLjE5YzcuNTctNC4zNCw3LjU3LTQuMzQsNy41Ny00LjM0ICAgICBjMC4wOS0wLjA1LDAuMTYtMC4wNSwwLjI1LDBjNy42NSw0LjM5LDcuNjUsNC4zOSw3LjY1LDQuMzljMC4wOSwwLjAzLDAuMTIsMC4xMSwwLjEyLDAuMTljMCwwLjA5LTAuMDMsMC4xNi0wLjEyLDAuMiAgICAgYy03LjYxLDQuMzMtNy42MSw0LjMzLTcuNjEsNC4zM0M3Ljk1LDI1LjgzLDcuOTUsMjUuODMsNy45LDI1LjgzeiIvPiYjeGE7CQk8L2c+JiN4YTsJCTxnIGlkPSJzaGFwZTQzMDQtNCIgdHJhbnNmb3JtPSJ0cmFuc2xhdGUoNi4zMzU0NywtMy4wNTMwNSkiPiYjeGE7CQkJPHRpdGxlIGlkPSJ0aXRsZTYwNzgwIj5TaGVldC40MzA0PC90aXRsZT4mI3hhOwkJCTxwYXRoIGlkPSJwYXRoNjA3ODIiIGlua3NjYXBlOmNvbm5lY3Rvci1jdXJ2YXR1cmU9IjAiIHN0eWxlPSJmaWxsOiMwMEFFRUY7IiBkPSJNNy45OCwyNS44M2MtMC4wNSwwLTAuMDktMC4wMy0wLjEzLTAuMDMgICAgIGMtNy43Mi00LjM3LTcuNzItNC4zNy03LjcyLTQuMzdDMC4wNCwyMS40LDAsMjEuMzEsMCwyMS4yNGMwLTguNzgsMC04Ljc4LDAtOC43OGMwLTAuMDksMC4wNC0wLjE2LDAuMTMtMC4yICAgICBjMC4wOC0wLjA1LDAuMTYtMC4wNSwwLjI1LDBjNy43Miw0LjM3LDcuNzIsNC4zNyw3LjcyLDQuMzdjMC4wOCwwLjAzLDAuMTEsMC4xMiwwLjExLDAuMTljMCw4Ljc4LDAsOC43OCwwLDguNzggICAgIGMwLDAuMDktMC4wMywwLjE2LTAuMTEsMC4yQzguMDUsMjUuOCw4LjAyLDI1LjgzLDcuOTgsMjUuODN6Ii8+JiN4YTsJCTwvZz4mI3hhOwkJPGcgaWQ9InNoYXBlNDMwNS02IiB0cmFuc2Zvcm09InRyYW5zbGF0ZSgxNi4xOTA2LC0zLjA1MzA1KSI+JiN4YTsJCQk8dGl0bGUgaWQ9InRpdGxlNjA3ODUiPlNoZWV0LjQzMDU8L3RpdGxlPiYjeGE7CQkJPHBhdGggaWQ9InBhdGg2MDc4NyIgaW5rc2NhcGU6Y29ubmVjdG9yLWN1cnZhdHVyZT0iMCIgc3R5bGU9ImZpbGw6IzJCQUFFMTsiIGQ9Ik0wLjI1LDI1LjgzYy0wLjA0LDAtMC4wNy0wLjAzLTAuMTItMC4wMyAgICAgQzAuMDQsMjUuNzYsMCwyNS42OSwwLDI1LjZjMC04Ljc2LDAtOC43NiwwLTguNzZjMC0wLjA4LDAuMDQtMC4xNywwLjEzLTAuMmM3LjcyLTQuMzgsNy43Mi00LjM4LDcuNzItNC4zOCAgICAgYzAuMDgtMC4wNSwwLjE3LTAuMDUsMC4yNSwwYzAuMDQsMC4wNCwwLjExLDAuMTEsMC4xMSwwLjJjMCw4Ljc2LDAsOC43NiwwLDguNzZjMCwwLjA4LTAuMDcsMC4xNy0wLjExLDAuMiAgICAgQzAuMzgsMjUuOCwwLjM4LDI1LjgsMC4zOCwyNS44QzAuMzQsMjUuOCwwLjI5LDI1LjgzLDAuMjUsMjUuODN6Ii8+JiN4YTsJCTwvZz4mI3hhOwkJPGcgaWQ9InNoYXBlNDMwNi04IiB0cmFuc2Zvcm09InRyYW5zbGF0ZSgyMy40NjQ3KSI+JiN4YTsJCQk8dGl0bGUgaWQ9InRpdGxlNjA3OTAiPlNoZWV0LjQzMDY8L3RpdGxlPiYjeGE7CQkJPHBhdGggaWQ9InBhdGg2MDc5MiIgaW5rc2NhcGU6Y29ubmVjdG9yLWN1cnZhdHVyZT0iMCIgc3R5bGU9ImZpbGw6IzkzOTU5ODsiIGQ9Ik00LjQ3LDBDMCwwLDAsMCwwLDBjMCwxLjI2LDAsMS4yNiwwLDEuMjYgICAgIGM0LjQ3LDAsNC40NywwLDQuNDcsMGMwLjg3LDAsMS41OSwwLjcyLDEuNTksMS41N2MwLDIwLjE5LDAsMjAuMTksMCwyMC4xOWMwLDAuODgtMC43MiwxLjU3LTEuNTksMS41N2MtNC40NywwLTQuNDcsMC00LjQ3LDAgICAgIGMwLDEuMjQsMCwxLjI0LDAsMS4yNGM0LjQ3LDAsNC40NywwLDQuNDcsMGMxLjU0LDAsMi44LTEuMjQsMi44LTIuODFjMC0yMC4xOSwwLTIwLjE5LDAtMjAuMTlDNy4yNywxLjMxLDYuMDEsMCw0LjQ3LDB6Ii8+JiN4YTsJCTwvZz4mI3hhOwkJPGcgaWQ9InNoYXBlNDMwNy0xMCI+JiN4YTsJCQk8dGl0bGUgaWQ9InRpdGxlNjA3OTUiPlNoZWV0LjQzMDc8L3RpdGxlPiYjeGE7CQkJPHBhdGggaWQ9InBhdGg2MDc5NyIgaW5rc2NhcGU6Y29ubmVjdG9yLWN1cnZhdHVyZT0iMCIgc3R5bGU9ImZpbGw6IzkzOTU5ODsiIGQ9Ik0yLjgyLDI0LjU5Yy0wLjg3LDAtMS41OS0wLjY5LTEuNTktMS41NyAgICAgYzAtMjAuMTksMC0yMC4xOSwwLTIwLjE5YzAtMC44NSwwLjcyLTEuNTcsMS41OS0xLjU3YzQuNDUsMCw0LjQ1LDAsNC40NSwwYzAtMS4yNiwwLTEuMjYsMC0xLjI2QzIuODIsMCwyLjgyLDAsMi44MiwwICAgICBDMS4yOCwwLDAsMS4zMSwwLDIuODNjMCwyMC4xOSwwLDIwLjE5LDAsMjAuMTljMCwxLjU3LDEuMjgsMi44MSwyLjgyLDIuODFjNC40NSwwLDQuNDUsMCw0LjQ1LDBjMC0xLjI0LDAtMS4yNCwwLTEuMjRIMi44MnoiLz4mI3hhOwkJPC9nPiYjeGE7CTwvZz4mI3hhOzwvZz4mI3hhOzwvc3ZnPg==;" parent="1" vertex="1">
          <mxGeometry x="647.22" y="289" width="41.54" height="34.84" as="geometry" />
        </mxCell>
        <mxCell id="z_7tf-593rKs41fNWHXD-14" value="" style="image;aspect=fixed;html=1;points=[];align=center;fontSize=12;image=img/lib/azure2/general/Subscriptions.svg;" parent="1" vertex="1">
          <mxGeometry x="601.25" y="240" width="24" height="38.73" as="geometry" />
        </mxCell>
        <mxCell id="z_7tf-593rKs41fNWHXD-15" value="" style="shape=image;verticalLabelPosition=bottom;labelBackgroundColor=#ffffff;verticalAlign=top;aspect=fixed;imageAspect=0;image=data:image/svg+xml,PHN2ZyB4bWxuczpkYz0iaHR0cDovL3B1cmwub3JnL2RjL2VsZW1lbnRzLzEuMS8iIHhtbG5zOmNjPSJodHRwOi8vY3JlYXRpdmVjb21tb25zLm9yZy9ucyMiIHhtbG5zOnJkZj0iaHR0cDovL3d3dy53My5vcmcvMTk5OS8wMi8yMi1yZGYtc3ludGF4LW5zIyIgeG1sbnM6c3ZnPSJodHRwOi8vd3d3LnczLm9yZy8yMDAwL3N2ZyIgeG1sbnM9Imh0dHA6Ly93d3cudzMub3JnLzIwMDAvc3ZnIiB4bWxuczpzb2RpcG9kaT0iaHR0cDovL3NvZGlwb2RpLnNvdXJjZWZvcmdlLm5ldC9EVEQvc29kaXBvZGktMC5kdGQiIHhtbG5zOmlua3NjYXBlPSJodHRwOi8vd3d3Lmlua3NjYXBlLm9yZy9uYW1lc3BhY2VzL2lua3NjYXBlIiB2ZXJzaW9uPSIxLjEiIGlkPSJzdmcxMDEzMjkiIGlua3NjYXBlOnZlcnNpb249IjAuOTIuMyAoMjQwNTU0NiwgMjAxOC0wMy0xMSkiIHNvZGlwb2RpOmRvY25hbWU9InZpcnR1YWxfbmV0d29ya192bmV0LnN2ZyIgeD0iMHB4IiB5PSIwcHgiIHZpZXdCb3g9IjAgMCAxNDguMTExMyA4NC45MzA2NDgiIHhtbDpzcGFjZT0icHJlc2VydmUiIHdpZHRoPSIxNDguMTExMyIgaGVpZ2h0PSI4NC45MzA2NDkiPjxtZXRhZGF0YSBpZD0ibWV0YWRhdGE0MTk0Ij48cmRmOlJERj48Y2M6V29yayByZGY6YWJvdXQ9IiI+PGRjOmZvcm1hdD5pbWFnZS9zdmcreG1sPC9kYzpmb3JtYXQ+PGRjOnR5cGUgcmRmOnJlc291cmNlPSJodHRwOi8vcHVybC5vcmcvZGMvZGNtaXR5cGUvU3RpbGxJbWFnZSIvPjxkYzp0aXRsZS8+PC9jYzpXb3JrPjwvcmRmOlJERj48L21ldGFkYXRhPjxkZWZzIGlkPSJkZWZzNDE5MiI+JiN4YTsJJiN4YTsmI3hhOwkmI3hhOyYjeGE7CSYjeGE7JiN4YTsJJiN4YTsmI3hhOwkmI3hhOyYjeGE7CQkmI3hhOwkmI3hhOwkJJiN4YTsJJiN4YTsJCSYjeGE7CSYjeGE7CQkmI3hhOwkmI3hhOwkJJiN4YTsJPC9kZWZzPiYjeGE7PGZpbHRlciBpZD0iZmlsdGVyXzIiPiYjeGE7CTxmZUdhdXNzaWFuQmx1ciBpZD0iZmVHYXVzc2lhbkJsdXIxMDEyNzgiIHN0ZERldmlhdGlvbj0iMiIvPiYjeGE7PC9maWx0ZXI+JiN4YTs8c29kaXBvZGk6bmFtZWR2aWV3IGJvcmRlcmNvbG9yPSIjNjY2NjY2IiBib3JkZXJvcGFjaXR5PSIxIiBmaXQtbWFyZ2luLWJvdHRvbT0iMCIgZml0LW1hcmdpbi1sZWZ0PSIwIiBmaXQtbWFyZ2luLXJpZ2h0PSIwIiBmaXQtbWFyZ2luLXRvcD0iMCIgZ3JpZHRvbGVyYW5jZT0iMTAiIGd1aWRldG9sZXJhbmNlPSIxMCIgaWQ9Im5hbWVkdmlldzEwMTMzMSIgaW5rc2NhcGU6Y3VycmVudC1sYXllcj0ic3ZnMTAxMzI5IiBpbmtzY2FwZTpjeD0iNDAuMTgyNTg3IiBpbmtzY2FwZTpjeT0iMTguNTU3ODYzIiBpbmtzY2FwZTpwYWdlb3BhY2l0eT0iMCIgaW5rc2NhcGU6cGFnZXNoYWRvdz0iMiIgaW5rc2NhcGU6d2luZG93LWhlaWdodD0iMTAxNyIgaW5rc2NhcGU6d2luZG93LW1heGltaXplZD0iMSIgaW5rc2NhcGU6d2luZG93LXdpZHRoPSIxOTIwIiBpbmtzY2FwZTp3aW5kb3cteD0iLTgiIGlua3NjYXBlOndpbmRvdy15PSItOCIgaW5rc2NhcGU6em9vbT0iMi45NzE3MDUzIiBvYmplY3R0b2xlcmFuY2U9IjEwIiBwYWdlY29sb3I9IiNmZmZmZmYiIHNob3dncmlkPSJmYWxzZSI+JiN4YTsJPC9zb2RpcG9kaTpuYW1lZHZpZXc+JiN4YTsmI3hhOzxwYXRoIGlkPSJwYXRoMTAxMjkxIiBpbmtzY2FwZTpjb25uZWN0b3ItY3VydmF0dXJlPSIwIiBzdHlsZT0iZmlsbDojMzk5OWM2IiBkPSJtIDE0Ny4xMTA2NSw0NC41OSBjIDEuNDgsLTEuNDggMS4xOCwtMy44NCAwLC01LjMyIGwgLTcuMSwtNy4xIC0zMS45NCwtMzEuMDYgYyAtMS40OCwtMS40OCAtMy41NSwtMS40OCAtNS4wMywwIC0xLjQ4LDEuNDggLTEuNzcsMy44NSAwLDUuMzMgbCAzMy40MiwzMi44MyBjIDEuNDgsMS40OCAxLjQ4LDMuODQgMCw1LjMyIGwgLTM0LjAxLDM0LjAxIGMgLTEuNDgsMS40OCAtMS40OCwzLjg1IDAsNS4zMyAxLjQ4LDEuNDggMy44NCwxLjE4IDUuMDMsMCBsIDMxLjY0LC0zMS4zNSBjIDAsMCAwLDAgMC4zLC0wLjMgeiIvPiYjeGE7JiN4YTs8cGF0aCBpZD0icGF0aDEwMTI5OSIgaW5rc2NhcGU6Y29ubmVjdG9yLWN1cnZhdHVyZT0iMCIgc3R5bGU9ImZpbGw6IzM5OTljNiIgZD0ibSAxLjAwMDY1MjEsNDQuNTkgYyAtMS40OCwtMS40OCAtMS4xOCwtMy44NCAwLC01LjMyIGwgNy4xLC03LjEgTCA0MC4wNDA2NTIsMS4xMSBjIDEuNDgsLTEuNDggMy41NSwtMS40OCA1LjAzLDAgMS40OCwxLjQ4IDEuNzcsMy44NSAwLDUuMzMgbCAtMzIuODMsMzIuODMgYyAtMS40OCwxLjQ4IC0xLjQ4LDMuODQgMCw1LjMyIGwgMzMuNDIsMzQuMDEgYyAxLjQ4LDEuNDggMS40OCwzLjg1IDAsNS4zMyAtMS40OCwxLjQ4IC0zLjg0LDEuMTggLTUuMDMsMCBMIDguMzkwNjUyMSw1Mi44NyBjIDAsMCAwLDAgLTAuMjksLTAuMjkgeiIvPiYjeGE7JiN4YTs8cGF0aCBpZD0icGF0aDEwMTMwNyIgaW5rc2NhcGU6Y29ubmVjdG9yLWN1cnZhdHVyZT0iMCIgc3R5bGU9ImZpbGw6IzdmYmEwMCIgZD0ibSA1My45NDA2NTIsNDEuOTMgYyAwLDUuNjIgLTQuNzMsOS43NiAtOS43Niw5Ljc2IC01LjAzLDAgLTEwLjM1LC00Ljc0IC0xMC4zNSwtOS43NiAwLC01LjAzIDQuMTQsLTkuNzYgMTAuMzUsLTkuNzYgNS45MiwwIDkuNzYsNC43MyA5Ljc2LDkuNzYgeiIvPiYjeGE7JiN4YTs8cGF0aCBpZD0icGF0aDEwMTMxNSIgaW5rc2NhcGU6Y29ubmVjdG9yLWN1cnZhdHVyZT0iMCIgc3R5bGU9ImZpbGw6IzdmYmEwMCIgZD0ibSA4My44MTA2NTIsNDEuOTMgYyAwLDUuNjIgLTQuNzMsOS43NiAtOS43Niw5Ljc2IC01LjAzLDAgLTEwLjM1LC00Ljc0IC0xMC4zNSwtOS43NiAwLC01LjAzIDQuNzMsLTkuNzYgMTAuMzUsLTkuNzYgNS42MiwwIDkuNzYsNC43MyA5Ljc2LDkuNzYgeiIvPiYjeGE7JiN4YTs8Y2lyY2xlIGlkPSJlbGxpcHNlMTAxMzIzIiBzdHlsZT0iZmlsbDojN2ZiYTAwIiBjeD0iMTA0LjIyMDY1IiBjeT0iNDEuOTMiIHI9IjkuNzYwMDAwMiIvPiYjeGE7PC9zdmc+;" parent="1" vertex="1">
          <mxGeometry x="251.25" y="757.3" width="34.83" height="20" as="geometry" />
        </mxCell>
        <mxCell id="z_7tf-593rKs41fNWHXD-60" style="edgeStyle=orthogonalEdgeStyle;rounded=0;orthogonalLoop=1;jettySize=auto;html=1;entryX=0;entryY=0.5;entryDx=0;entryDy=0;" parent="1" source="z_7tf-593rKs41fNWHXD-16" target="z_7tf-593rKs41fNWHXD-45" edge="1">
          <mxGeometry relative="1" as="geometry" />
        </mxCell>
        <mxCell id="z_7tf-593rKs41fNWHXD-16" value="" style="image;sketch=0;aspect=fixed;html=1;points=[];align=center;fontSize=12;image=img/lib/mscae/VM_Linux.svg;" parent="1" vertex="1">
          <mxGeometry x="341.25" y="582" width="50" height="46" as="geometry" />
        </mxCell>
        <mxCell id="z_7tf-593rKs41fNWHXD-19" value="" style="shape=image;verticalLabelPosition=bottom;labelBackgroundColor=default;verticalAlign=top;aspect=fixed;imageAspect=0;image=https://cdn.prod.website-files.com/6064b31ff49a2d31e0493af1/63a576e0ea7e9cdf7f43a4e3_oracle_database.svg;" parent="1" vertex="1">
          <mxGeometry x="474.51" y="84.75" width="60.5" height="60.5" as="geometry" />
        </mxCell>
        <mxCell id="z_7tf-593rKs41fNWHXD-20" value="" style="shape=image;verticalLabelPosition=bottom;labelBackgroundColor=default;verticalAlign=top;aspect=fixed;imageAspect=0;image=https://www.pragimtech.com/wp-content/uploads/2019/04/aspnet.png;" parent="1" vertex="1">
          <mxGeometry x="526" y="373.7" width="66.6" height="66.6" as="geometry" />
        </mxCell>
        <mxCell id="z_7tf-593rKs41fNWHXD-21" value="" style="shape=image;verticalLabelPosition=bottom;labelBackgroundColor=#ffffff;verticalAlign=top;aspect=fixed;imageAspect=0;image=data:image/svg+xml,PHN2ZyB4bWxuczpjYz0iaHR0cDovL2NyZWF0aXZlY29tbW9ucy5vcmcvbnMjIiB4bWxuczpkYz0iaHR0cDovL3B1cmwub3JnL2RjL2VsZW1lbnRzLzEuMS8iIHhtbG5zOmlua3NjYXBlPSJodHRwOi8vd3d3Lmlua3NjYXBlLm9yZy9uYW1lc3BhY2VzL2lua3NjYXBlIiB4bWxuczpyZGY9Imh0dHA6Ly93d3cudzMub3JnLzE5OTkvMDIvMjItcmRmLXN5bnRheC1ucyMiIHhtbG5zOnNvZGlwb2RpPSJodHRwOi8vc29kaXBvZGkuc291cmNlZm9yZ2UubmV0L0RURC9zb2RpcG9kaS0wLmR0ZCIgeG1sbnM6c3ZnPSJodHRwOi8vd3d3LnczLm9yZy8yMDAwL3N2ZyIgeG1sbnM9Imh0dHA6Ly93d3cudzMub3JnLzIwMDAvc3ZnIiB4bWxuczp4bGluaz0iaHR0cDovL3d3dy53My5vcmcvMTk5OS94bGluayIgdmVyc2lvbj0iMS4xIiBpZD0ic3ZnMTY2NTAyIiBpbmtzY2FwZTp2ZXJzaW9uPSIwLjkyLjMgKDI0MDU1NDYsIDIwMTgtMDMtMTEpIiBzb2RpcG9kaTpkb2NuYW1lPSJkb2NrZXJfdG9vbHMuc3ZnIiB4PSIwcHgiIHk9IjBweCIgdmlld0JveD0iMCAwIDk5LjIyIDgzLjI0IiBzdHlsZT0iZW5hYmxlLWJhY2tncm91bmQ6bmV3IDAgMCA5OS4yMiA4My4yNDsiIHhtbDpzcGFjZT0icHJlc2VydmUiPiYjeGE7PHNvZGlwb2RpOm5hbWVkdmlldyBib3JkZXJjb2xvcj0iIzY2NjY2NiIgYm9yZGVyb3BhY2l0eT0iMSIgZml0LW1hcmdpbi1ib3R0b209IjAiIGZpdC1tYXJnaW4tbGVmdD0iMCIgZml0LW1hcmdpbi1yaWdodD0iMCIgZml0LW1hcmdpbi10b3A9IjAiIGdyaWR0b2xlcmFuY2U9IjEwIiBndWlkZXRvbGVyYW5jZT0iMTAiIGlkPSJuYW1lZHZpZXcxNjY1MDQiIGlua3NjYXBlOmN1cnJlbnQtbGF5ZXI9InN2ZzE2NjUwMiIgaW5rc2NhcGU6Y3g9IjY2LjE0MTY1NiIgaW5rc2NhcGU6Y3k9IjU1LjQ5MzEwOCIgaW5rc2NhcGU6cGFnZW9wYWNpdHk9IjAiIGlua3NjYXBlOnBhZ2VzaGFkb3c9IjIiIGlua3NjYXBlOndpbmRvdy1oZWlnaHQ9IjEwMTciIGlua3NjYXBlOndpbmRvdy1tYXhpbWl6ZWQ9IjEiIGlua3NjYXBlOndpbmRvdy13aWR0aD0iMTkyMCIgaW5rc2NhcGU6d2luZG93LXg9Ii04IiBpbmtzY2FwZTp3aW5kb3cteT0iLTgiIGlua3NjYXBlOnpvb209IjYuNTk5MDg5OCIgb2JqZWN0dG9sZXJhbmNlPSIxMCIgcGFnZWNvbG9yPSIjZmZmZmZmIiBzaG93Z3JpZD0iZmFsc2UiPiYjeGE7CTwvc29kaXBvZGk6bmFtZWR2aWV3PiYjeGE7PGcgaWQ9ImcxNjY1MDAiIHRyYW5zZm9ybT0idHJhbnNsYXRlKC03LjY1LC03LjY0OTMyOSkiPiYjeGE7CTx0aXRsZSBpZD0idGl0bGUxNjYzODQiPlBhZ2UtMTwvdGl0bGU+JiN4YTsJPGcgaWQ9Imdyb3VwMTM3Ny0xIiB0cmFuc2Zvcm09InRyYW5zbGF0ZSg3LjY1LC03LjE0MTc0KSI+JiN4YTsJCTx0aXRsZSBpZD0idGl0bGUxNjYzODYiPkRvY2tlciBUb29sczwvdGl0bGU+JiN4YTsJCTxnIGlkPSJzaGFwZTEzNzgtMiIgdHJhbnNmb3JtPSJ0cmFuc2xhdGUoMC4wNjc0MTM3KSI+JiN4YTsJCQk8dGl0bGUgaWQ9InRpdGxlMTY2Mzg4Ij5kb2NrZXJfNF88L3RpdGxlPiYjeGE7CQkJPHBhdGggaWQ9InBhdGgxNjYzOTAiIGlua3NjYXBlOmNvbm5lY3Rvci1jdXJ2YXR1cmU9IjAiIHN0eWxlPSJmaWxsOiMzRjU3NjU7IiBkPSJNNzMuMzksOTIuNzljMi4yMy0xLjkxLDQuNDYtMy44Myw2LjY5LTUuNzUgICAgIGMwLjc2LTAuNjYsMS41OS0xLjM0LDIuMzUtMi4wM2MtMC42MS0wLjc2LTEuNjItMS4zMS0yLjQ4LTEuNjRjLTEuNzMtMC42Ni0zLjQ0LTAuNDQtNS4wMywwLjQ4Yy0yLjA5LDEuMi0yLjk3LDMuMTItMi44OSw1LjUgICAgIGMwLjAzLDAuOTQsMC4yOCwxLjg0LDAuNzgsMi42NEM3Mi45OCw5Mi4yNyw3My4xOCw5Mi41NCw3My4zOSw5Mi43OXogTTc1Ljk3LDk0LjZjMS4xLDAuMzgsMi4zNCwwLjMzLDMuNDcsMC4xNCAgICAgYzAuNTctMC4yNSwyLjA0LTAuODksMi41OC0wLjhsMC4wOCwwLjAyTDgyLjE4LDk0YzAuMzMsMC4xNiwwLjY0LDAuMzgsMC44MSwwLjcyYzAuNCwwLjc5LDAuMjEsMS41Ny0wLjU3LDIuMDJsLTAuMjUsMC4xNSAgICAgYy0yLjg1LDEuNjUtNS44OSwxLjQyLTguNzMtMC4xMmMtMS4zNi0wLjczLTIuNC0xLjgyLTMuMTctMy4xNmwtMC4xOC0wLjMxYy0xLjgzLTMuMTctMS41OC02LjUsMC40OC05LjUyICAgICBjMC43Mi0xLjA0LDEuNjUtMS44NSwyLjc0LTIuNDhsMC40MS0wLjIzYzIuNjktMS41NSw1LjU3LTEuNDUsOC4zMy0wLjA5YzEuNDgsMC43MywyLjY4LDEuODMsMy41MSwzLjI2bDAuMTUsMC4yNiAgICAgYzAuNiwxLjA0LTAuMTgsMS45NS0wLjk4LDIuNTdjLTAuOTQsMC43Mi0xLjg4LDEuNTktMi43OCwyLjM2Qzc5Ljk2LDkxLjE1LDc3Ljk3LDkyLjg4LDc1Ljk3LDk0LjZ6IE05Ny4zNCw4MC4xOGgwLjMgICAgIGMwLjksMCwxLjUxLDAuNjEsMS41MSwxLjVjMCwxLjI1LTEuMiwxLjU3LTIuMjIsMS41N2MtMS4zNiwwLTIuNjQsMC44MS0zLjU3LDEuNzNjLTEuMTcsMS4xNS0xLjY3LDIuNjEtMS42Nyw0LjIydjcuMjggICAgIGMwLDAuODMtMC41MiwxLjUxLTEuMzksMS41MWgtMC4yNGMtMC44NiwwLTEuMzgtMC42OC0xLjM4LTEuNTF2LTcuN2MwLTIuOTUsMS40NC01LjM2LDMuODQtNy4wNiAgICAgQzkzLjk1LDgwLjcxLDk1LjU5LDgwLjE4LDk3LjM0LDgwLjE4eiBNNTkuODcsODUuMzRjMS4xNi0xLjE3LDIuMzQtMi4zMywzLjUyLTMuNDhjMC4zMy0wLjMyLDEuNTgtMS42OCwyLjA4LTEuNjhINjZsMC4wNiwwLjAxICAgICBjMC42OSwwLjE0LDEuMiwwLjU4LDEuMiwxLjMxdjAuM2MwLDAuNS0wLjU5LDEuMDktMC45MSwxLjQzYy0wLjY5LDAuNzQtMS40MiwxLjQ0LTIuMTMsMi4xNmwtMy42MywzLjY5ICAgICBjMS41NywxLjU2LDMuMTMsMy4xMyw0LjY4LDQuNzFjMC40MywwLjQ0LDAuODYsMC44OCwxLjI4LDEuMzJjMC4xNSwwLjE2LDAuMzcsMC4zNSwwLjUsMC41N2MwLjEzLDAuMjEsMC4yMSwwLjQ0LDAuMjEsMC42OHYwLjMxICAgICBsLTAuMDEsMC4wN2MtMC4xNywwLjY5LTAuNjEsMS4yNC0xLjM3LDEuMjRoLTAuMjRjLTAuNSwwLTEuMDYtMC41Ni0xLjQtMC44OGMtMC43LTAuNjYtMS4zOC0xLjM2LTIuMDctMi4wM2wtMi4zMS0yLjI3djMuNjIgICAgIGMwLDAuODQtMC41MiwxLjUxLTEuMzgsMS41MWgtMC4yNGMtMC44NiwwLTEuMzgtMC42Ny0xLjM4LTEuNTFWNzYuMDFjMC0wLjgzLDAuNTItMS41LDEuMzgtMS41aDAuMjRjMC44NiwwLDEuMzgsMC42NywxLjM4LDEuNSAgICAgTDU5Ljg3LDg1LjM0TDU5Ljg3LDg1LjM0eiBNNTAuMTIsODMuMzFjLTAuNDYtMC4yMS0xLjMxLTAuMjktMS44LTAuM2MtMi41MS0wLjEtNC4zMywxLjMyLTUuNCwzLjUzICAgICBjLTAuMzYsMC43Ny0wLjUzLDEuNTgtMC41MywyLjQyYzAsMi41OCwxLjM1LDQuMzgsMy42NSw1LjQ4YzAuODQsMC40LDEuOTIsMC40OCwyLjg0LDAuNDhjMC44MSwwLDEuOTUtMC41LDIuNjYtMC44NGwwLjEzLTAuMDYgICAgIGgwLjU2bDAuMDYsMC4wMmMwLjY4LDAuMTQsMS4yLDAuNTcsMS4yLDEuMzF2MC4zYzAsMS44My0zLjM1LDIuMjUtNC42MywyLjM0Yy00LjUsMC4zMS03Ljg3LTIuMTctOS4xNS02LjQ2ICAgICBjLTAuMjMtMC43NS0wLjMzLTEuNDktMC4zMy0yLjI3di0wLjZjMC0zLjI2LDEuNjItNS44NCw0LjQyLTcuNWMxLjMtMC43NywyLjczLTEuMTYsNC4yNS0xLjE2aDAuNTljMS42LDAsMy4wOCwwLjQ1LDQuNCwxLjM2ICAgICBsMC4xMSwwLjA3bDAuMDcsMC4xMmMwLjE0LDAuMjMsMC4yNywwLjUxLDAuMjcsMC43OXYwLjNjMCwwLjc2LTAuNTgsMS4xOC0xLjI3LDEuMzFsLTAuMDYsMC4wMWgtMC4xOCAgICAgQzUxLjUzLDgzLjk2LDUwLjUyLDgzLjUsNTAuMTIsODMuMzF6IE0yMi43LDg5LjAyYzAsMi4yOSwxLjEyLDMuOTcsMy4wNSw1LjE1YzAuOTEsMC41NiwxLjksMC44MSwyLjk2LDAuODEgICAgIGMyLjI2LDAsMy45My0xLjE1LDUuMDktMy4wNWMwLjU2LTAuOTEsMC44MS0xLjkxLDAuODEtMi45N2MwLTIuMTItMS4wMy0zLjc1LTIuNzgtNC45MmMtMC45Ni0wLjY1LTIuMDItMC45Ny0zLjE4LTAuOTcgICAgIGMtMi41MiwwLTQuMzMsMS4yNy01LjQyLDMuNTNDMjIuODYsODcuMzYsMjIuNyw4OC4xOCwyMi43LDg5LjAyeiBNMjguMzUsODAuMDZoMC40MmMzLjQ5LDAsNi4xNCwxLjY5LDcuODEsNC43MyAgICAgYzAuNjgsMS4yMiwxLjAzLDIuNTQsMS4wMywzLjk0djAuNTljMCwzLjI2LTEuNiw1Ljg2LTQuNDEsNy41MWMtMS4zLDAuNzYtMi43NCwxLjE1LTQuMjUsMS4xNWgtMC42Yy0zLjI2LDAtNS44NS0xLjYxLTcuNS00LjQxICAgICBjLTAuNzctMS4zLTEuMTYtMi43NC0xLjE2LTQuMjV2LTAuNTljMC0zLjI3LDEuNjItNS44NSw0LjQxLTcuNTFDMjUuNDEsODAuNDUsMjYuODQsODAuMDYsMjguMzUsODAuMDZ6IE0zLjAxLDg5LjAyICAgICBjMCwyLjM2LDEuMTQsNC4xMywzLjIsNS4yNmMwLjg0LDAuNDUsMS43NCwwLjcsMi42OSwwLjdjMi4zMSwwLDQuMDMtMS4wOSw1LjIxLTMuMDVjMC41NS0wLjkxLDAuODEtMS45MSwwLjgxLTIuOTcgICAgIGMwLTIuMDQtMC45Ny0zLjYzLTIuNjItNC44MmMtMC45OS0wLjcxLTIuMTItMS4wNy0zLjM0LTEuMDdjLTIuNTIsMC00LjMzLDEuMjctNS40MiwzLjUzQzMuMTcsODcuMzYsMy4wMSw4OC4xOCwzLjAxLDg5LjAyeiAgICAgIE0xNC45Miw4Mi4zdi02LjM1YzAtMC44MywwLjUyLTEuNSwxLjM4LTEuNWgwLjI0YzAuODcsMCwxLjM4LDAuNjcsMS4zOCwxLjV2MTMuMzdjMCwzLjI2LTEuNjEsNS44NS00LjQxLDcuNTEgICAgIGMtMS4zLDAuNzYtMi43NCwxLjE2LTQuMjUsMS4xNmgtMC42Yy0zLjI2LDAtNS44NS0xLjYyLTcuNS00LjQyQzAuMzksOTIuMjcsMCw5MC44MywwLDg5LjMydi0wLjU5YzAtMy4yNiwxLjYxLTUuODYsNC40MS03LjUxICAgICBjMS4zMS0wLjc3LDIuNzQtMS4xNiw0LjI1LTEuMTZoMC42QzExLjQ3LDgwLjA2LDEzLjM0LDgwLjkxLDE0LjkyLDgyLjN6Ii8+JiN4YTsJCTwvZz4mI3hhOwkJPGcgaWQ9InNoYXBlMTM3OS00IiB0cmFuc2Zvcm09InRyYW5zbGF0ZSgxMS44MzQzLC0yNy41NDkzKSI+JiN4YTsJCQk8dGl0bGUgaWQ9InRpdGxlMTY2MzkzIj5vdXRsaW5lXzdfPC90aXRsZT4mI3hhOwkJCTxwYXRoIGlkPSJwYXRoMTY2Mzk1IiBpbmtzY2FwZTpjb25uZWN0b3ItY3VydmF0dXJlPSIwIiBzdHlsZT0iZmlsbDojMzk0RDU0OyIgZD0iTTQ1LjQsNjAuMDloOC44N3Y5LjA3aDQuNDkgICAgIGMyLjA3LDAsNC4yLTAuMzcsNi4xNi0xLjA0YzAuOTYtMC4zMiwyLjA1LTAuNzgsMy0xLjM1Yy0xLjI2LTEuNjQtMS44OS0zLjctMi4wOC01Ljc0Yy0wLjI2LTIuNzYsMC4zLTYuMzcsMi4xNy04LjUzbDAuOTQtMS4wOCAgICAgbDEuMTEsMC44OWMyLjgsMi4yNSw1LjE1LDUuMzksNS41Niw4Ljk3YzMuMzctMC45OSw3LjMzLTAuNzYsMTAuMywwLjk2bDEuMjIsMC43bC0wLjY0LDEuMjVjLTIuNTIsNC45MS03Ljc3LDYuNDItMTIuOSw2LjE1ICAgICBjLTcuNjgsMTkuMTQtMjQuNDEsMjguMi00NC42OCwyOC4yYy0xMC40OCwwLTIwLjA5LTMuOTItMjUuNTctMTMuMjJsLTAuMDktMC4xNWwtMC43OS0xLjYyQzAuNjIsNzkuNDYsMCw3NC45OCwwLjQyLDcwLjUgICAgIGwwLjEyLTEuMzRoNy41OXYtOS4wN0gxN3YtOC44OGgxNy43NXYtOC44N2gxMC42NHYxNy43NUg0NS40eiIvPiYjeGE7CQk8L2c+JiN4YTsJCTxnIGlkPSJncm91cDEzODAtNiIgdHJhbnNmb3JtPSJ0cmFuc2xhdGUoMTMuMjcwMywtMjkuMDI4NikiPiYjeGE7CQkJPHRpdGxlIGlkPSJ0aXRsZTE2NjM5OCI+Ym9keV9jb2xvcnNfOF88L3RpdGxlPiYjeGE7CQkJPGcgaWQ9InNoYXBlMTM4MS03Ij4mI3hhOwkJCQk8dGl0bGUgaWQ9InRpdGxlMTY2NDAwIj5TaGVldC4xMzgxPC90aXRsZT4mI3hhOwkJCQk8cGF0aCBpZD0icGF0aDE2NjQwMiIgaW5rc2NhcGU6Y29ubmVjdG9yLWN1cnZhdHVyZT0iMCIgc3R5bGU9ImZpbGw6IzAwQUFEQTsiIGQ9Ik03Mi43MSw2NC45MmMwLjU5LTQuNjItMi44Ny04LjI1LTUuMDItOS45OCAgICAgIGMtMi40NywyLjg2LTIuODUsMTAuMzUsMS4wMywxMy41MWMtMi4xNywxLjkyLTYuNzMsMy42Ni0xMS40LDMuNjZIMC40NUMwLDc2Ljk5LDAuODYsODEuNDgsMi44MSw4NS4zM2wwLjY1LDEuMTggICAgICBjMC40MSwwLjY5LDAuODYsMS4zNiwxLjM0LDIuMDFsMCwwYzIuMzQsMC4xNSw0LjQ5LDAuMiw2LjQ2LDAuMTZjMCwwLDAsMCwwLjAxLDBjMy44Ny0wLjA5LDcuMDMtMC41NCw5LjQzLTEuMzcgICAgICBjMC4zNi0wLjEzLDAuNzUsMC4wNiwwLjg3LDAuNDJjMC4xMiwwLjM1LTAuMDcsMC43NC0wLjQyLDAuODdjLTAuMzIsMC4xMS0wLjY1LDAuMjEtMSwwLjMxbDAsMGMtMS44OSwwLjU0LTMuOTEsMC45LTYuNTIsMS4wNiAgICAgIGMwLjE2LDAtMC4xNiwwLjAyLTAuMTYsMC4wMmMtMC4wOSwwLjAxLTAuMiwwLjAyLTAuMjksMC4wM2MtMS4wMywwLjA1LTIuMTQsMC4wNy0zLjI3LDAuMDdjLTEuMjQsMC0yLjQ2LTAuMDMtMy44My0wLjEgICAgICBsLTAuMDMsMC4wM2M0LjczLDUuMzIsMTIuMTQsOC41MiwyMS40Myw4LjUyYzE5LjY1LDAsMzYuMzItOC43Miw0My43LTI4LjI4YzUuMjQsMC41NCwxMC4yNy0wLjc5LDEyLjU2LTUuMjYgICAgICBDODAuMSw2Mi44OSw3NS40MSw2My41Niw3Mi43MSw2NC45MnoiLz4mI3hhOwkJCTwvZz4mI3hhOwkJCTxnIGlkPSJzaGFwZTEzODItOSIgdHJhbnNmb3JtPSJ0cmFuc2xhdGUoMy41ODk0NiwtNS4xNDc2MSkiPiYjeGE7CQkJCTx0aXRsZSBpZD0idGl0bGUxNjY0MDUiPlNoZWV0LjEzODI8L3RpdGxlPiYjeGE7CQkJCTxwYXRoIGlkPSJwYXRoMTY2NDA3IiBpbmtzY2FwZTpjb25uZWN0b3ItY3VydmF0dXJlPSIwIiBzdHlsZT0iZmlsbDojMjRCOEVCOyIgZD0iTTY5LjEyLDcwLjA3YzAuNTktNC42My0yLjg3LTguMjYtNS4wMS05Ljk4ICAgICAgYy0yLjQ4LDIuODYtMi44NiwxMC4zNSwxLjAyLDEzLjUxYy0yLjE3LDEuOTItNi43MywzLjY2LTExLjQsMy42NkgwLjIzQzAsODQuNzMsMi43Nyw5MC40LDcuNjcsOTMuODNjMCwwLDAsMCwwLjAxLDAgICAgICBjMy44Ny0wLjA5LDcuMDMtMC41NSw5LjQzLTEuMzhjMC4zNi0wLjEyLDAuNzUsMC4wNywwLjg3LDAuNDNjMC4xMiwwLjM1LTAuMDcsMC43NC0wLjQyLDAuODZjLTAuMzIsMC4xMi0wLjY1LDAuMjItMSwwLjMybDAsMCAgICAgIGMtMS44OSwwLjUzLTQuMDgsMC45NC02LjY5LDEuMTFjMCwwLTAuMDctMC4wNy0wLjA3LTAuMDZjNi42OSwzLjQzLDE2LjM5LDMuNDEsMjcuNTEtMC44NmMxMi40Ny00Ljc5LDI0LjA3LTEzLjkxLDMyLjE2LTI0LjM1ICAgICAgQzY5LjM1LDY5Ljk1LDY5LjIzLDcwLjAxLDY5LjEyLDcwLjA3eiIvPiYjeGE7CQkJPC9nPiYjeGE7CQkJPGcgaWQ9InNoYXBlMTM4My0xMSIgdHJhbnNmb3JtPSJ0cmFuc2xhdGUoMC41NjA5MzMpIj4mI3hhOwkJCQk8dGl0bGUgaWQ9InRpdGxlMTY2NDEwIj5TaGVldC4xMzgzPC90aXRsZT4mI3hhOwkJCQk8cGF0aCBpZD0icGF0aDE2NjQxMiIgaW5rc2NhcGU6Y29ubmVjdG9yLWN1cnZhdHVyZT0iMCIgc3R5bGU9ImZpbGw6IzAwOEJCODsiIGQ9Ik0wLDc4LjA0YzAuMzUsMi42MSwxLjEyLDUuMDYsMi4yNSw3LjI4ICAgICAgbDAuNjUsMS4xOWMwLjQxLDAuNjksMC44NSwxLjM2LDEuMzQsMi4wMWMyLjM0LDAuMTUsNC40OSwwLjIsNi40NiwwLjE2YzMuODgtMC4wOSw3LjA0LTAuNTQsOS40NC0xLjM4ICAgICAgYzAuMzYtMC4xMiwwLjc0LDAuMDcsMC44NywwLjQzYzAuMTIsMC4zNS0wLjA3LDAuNzQtMC40MiwwLjg3Yy0wLjMyLDAuMTEtMC42NiwwLjIxLTEsMC4zMWwwLDBjLTEuODksMC41NC00LjA3LDAuOTItNi42OCwxLjA4ICAgICAgQzEyLjgyLDkwLDEyLjY2LDkwLDEyLjU3LDkwLjAxYy0xLjAyLDAuMDUtMi4xMiwwLjA5LTMuMjYsMC4wOWMtMS4yNCwwLTIuNTEtMC4wMi0zLjg3LTAuMDljNC43NCw1LjMyLDEyLjE5LDguNTMsMjEuNDgsOC41MyAgICAgIGMxNi44MiwwLDMxLjQ2LTYuMzksMzkuOTYtMjAuNUwwLDc4LjA0eiIvPiYjeGE7CQkJPC9nPiYjeGE7CQkJPGcgaWQ9InNoYXBlMTM4NC0xMyIgdHJhbnNmb3JtPSJ0cmFuc2xhdGUoNC4zMzM1NiwtNS4xMTE5OSkiPiYjeGE7CQkJCTx0aXRsZSBpZD0idGl0bGUxNjY0MTUiPlNoZWV0LjEzODQ8L3RpdGxlPiYjeGE7CQkJCTxwYXRoIGlkPSJwYXRoMTY2NDE3IiBpbmtzY2FwZTpjb25uZWN0b3ItY3VydmF0dXJlPSIwIiBzdHlsZT0iZmlsbDojMDM5QkM2OyIgZD0iTTAsODMuMTVjMS4wMSw0LjU5LDMuNDIsOC4xOSw2LjkzLDEwLjY0ICAgICAgYzMuODgtMC4wOCw3LjA0LTAuNTQsOS40NC0xLjM3YzAuMzUtMC4xMywwLjc0LDAuMDYsMC44NywwLjQyYzAuMTIsMC4zNi0wLjA3LDAuNzQtMC40MywwLjg3Yy0wLjMyLDAuMTEtMC42NSwwLjIxLTAuOTksMC4zMSAgICAgIGwwLDBjLTEuODksMC41NC00LjEyLDAuOTItNi43MywxLjA5YzYuNjksMy40MywxNi4zNiwzLjM4LDI3LjQ3LTAuODljNi43My0yLjU5LDEzLjItNi40MywxOS4wMS0xMS4wN0wwLDgzLjE1eiIvPiYjeGE7CQkJPC9nPiYjeGE7CQk8L2c+JiN4YTsJCTxnIGlkPSJzaGFwZTEzODUtMTUiIHRyYW5zZm9ybT0idHJhbnNsYXRlKDE2Ljk1OSwtMzcuNTAzNikiPiYjeGE7CQkJPHRpdGxlIGlkPSJ0aXRsZTE2NjQyMSI+U2hlZXQuMTM4NTwvdGl0bGU+JiN4YTsJCQk8cGF0aCBpZD0icGF0aDE2NjQyMyIgaW5rc2NhcGU6Y29ubmVjdG9yLWN1cnZhdHVyZT0iMCIgc3R5bGU9ImZpbGw6IzM5NEQ1NDsiIGQ9Ik02LjIsOTguNTRjMS4xMywwLDIuMjEtMC4wMywzLjI0LTAuMDkgICAgIGMwLjA5LTAuMDEsMC4xNy0wLjAxLDAuMjYtMC4wMmMwLjAxLDAsMC4wMSwwLDAuMDEsMGMyLjYxLTAuMTYsNC44Ny0wLjUxLDYuNzUtMS4wNWwwLDBjMC4zNS0wLjA5LDAuNjgtMC4yLDEtMC4zMSAgICAgYzAuMzUtMC4xMiwwLjU0LTAuNTEsMC40Mi0wLjg3Yy0wLjEyLTAuMzUtMC41MS0wLjU0LTAuODctMC40MmMtMi40LDAuODMtNS41NiwxLjI5LTkuNDMsMS4zN2wwLDBjLTEuOTgsMC4wNS00LjEzLDAtNi40Ny0wLjE1ICAgICBsMCwwYy0wLjEyLTAuMDEtMC4yNC0wLjAyLTAuMzYtMC4wM2MtMC4zNy0wLjAyLTAuNywwLjI2LTAuNzIsMC42NGMtMC4wMywwLjM3LDAuMjUsMC43LDAuNjMsMC43MyAgICAgYzAuNDgsMC4wMywwLjk1LDAuMDYsMS40MSwwLjA4YzAuMDcsMCwwLjE0LDAuMDEsMC4yMiwwLjAxQzMuNjUsOTguNSw0Ljk2LDk4LjU0LDYuMiw5OC41NEw2LjIsOTguNTR6Ii8+JiN4YTsJCTwvZz4mI3hhOwkJPGcgaWQ9Imdyb3VwMTM4Ni0xNyIgdHJhbnNmb3JtPSJ0cmFuc2xhdGUoMjEuNDQyNiwtNTYuODI5NykiPiYjeGE7CQkJPHRpdGxlIGlkPSJ0aXRsZTE2NjQyNiI+Q29udGFpbmVyc184XzwvdGl0bGU+JiN4YTsJCQk8ZyBpZD0ic2hhcGUxMzg3LTE4Ij4mI3hhOwkJCQk8dGl0bGUgaWQ9InRpdGxlMTY2NDI4Ij5TaGVldC4xMzg3PC90aXRsZT4mI3hhOwkJCQk8cGF0aCBpZD0icGF0aDE2NjQzMCIgaW5rc2NhcGU6Y29ubmVjdG9yLWN1cnZhdHVyZT0iMCIgc3R5bGU9ImZpbGw6IzAwQUNEMzsiIGQ9Ik02LjQ0LDkxLjQ5aDAuNjF2Ni40SDYuNDRWOTEuNDl6IE01LjI4LDkxLjQ5ICAgICAgaDAuNjN2Ni40SDUuMjhWOTEuNDl6IE00LjExLDkxLjQ5aDAuNjN2Ni40SDQuMTFWOTEuNDl6IE0yLjk1LDkxLjQ5aDAuNjN2Ni40SDIuOTVMMi45NSw5MS40OXogTTEuNzgsOTEuNDloMC42M3Y2LjRIMS43OCAgICAgIEwxLjc4LDkxLjQ5eiBNMC42NCw5MS40OWgwLjYxdjYuNEgwLjY0TDAuNjQsOTEuNDl6IE0wLDkwLjg1aDcuNjl2Ny42OUgwVjkwLjg1eiIvPiYjeGE7CQkJPC9nPiYjeGE7CQkJPGcgaWQ9InNoYXBlMTM4OC0yMCIgdHJhbnNmb3JtPSJ0cmFuc2xhdGUoOC44NzE5LC04Ljg3MzE3KSI+JiN4YTsJCQkJPHRpdGxlIGlkPSJ0aXRsZTE2NjQzMyI+U2hlZXQuMTM4ODwvdGl0bGU+JiN4YTsJCQkJPHBhdGggaWQ9InBhdGgxNjY0MzUiIGlua3NjYXBlOmNvbm5lY3Rvci1jdXJ2YXR1cmU9IjAiIHN0eWxlPSJmaWxsOiMwMEFDRDM7IiBkPSJNNi40NCw5MS40OWgwLjYxdjYuNDFINi40NFY5MS40OXogICAgICAgTTUuMjgsOTEuNDloMC42M3Y2LjQxSDUuMjhWOTEuNDl6IE00LjExLDkxLjQ5aDAuNjN2Ni40MUg0LjExVjkxLjQ5eiBNMi45NSw5MS40OWgwLjYzdjYuNDFIMi45NUwyLjk1LDkxLjQ5eiBNMS43OCw5MS40OSAgICAgIGgwLjYzdjYuNDFIMS43OEwxLjc4LDkxLjQ5eiBNMC42NCw5MS40OWgwLjYxdjYuNDFIMC42NEwwLjY0LDkxLjQ5eiBNMCw5MC44NWg3LjY5djcuNjlIMFY5MC44NXoiLz4mI3hhOwkJCTwvZz4mI3hhOwkJCTxnIGlkPSJzaGFwZTEzODktMjIiIHRyYW5zZm9ybT0idHJhbnNsYXRlKDguODcxOSkiPiYjeGE7CQkJCTx0aXRsZSBpZD0idGl0bGUxNjY0MzgiPlNoZWV0LjEzODk8L3RpdGxlPiYjeGE7CQkJCTxwYXRoIGlkPSJwYXRoMTY2NDQwIiBpbmtzY2FwZTpjb25uZWN0b3ItY3VydmF0dXJlPSIwIiBzdHlsZT0iZmlsbDojMjBDMkVGOyIgZD0iTTYuNDQsOTEuNDloMC42MXY2LjRINi40NFY5MS40OXogTTUuMjgsOTEuNDkgICAgICBoMC42M3Y2LjRINS4yOFY5MS40OXogTTQuMTEsOTEuNDloMC42M3Y2LjRINC4xMVY5MS40OXogTTIuOTUsOTEuNDloMC42M3Y2LjRIMi45NUwyLjk1LDkxLjQ5eiBNMS43OCw5MS40OWgwLjYzdjYuNEgxLjc4ICAgICAgTDEuNzgsOTEuNDl6IE0wLjY0LDkxLjQ5aDAuNjF2Ni40SDAuNjRMMC42NCw5MS40OXogTTAsOTAuODVoNy42OXY3LjY5SDBWOTAuODV6Ii8+JiN4YTsJCQk8L2c+JiN4YTsJCQk8ZyBpZD0ic2hhcGUxMzkwLTI0IiB0cmFuc2Zvcm09InRyYW5zbGF0ZSgxNy43NDYzKSI+JiN4YTsJCQkJPHRpdGxlIGlkPSJ0aXRsZTE2NjQ0MyI+U2hlZXQuMTM5MDwvdGl0bGU+JiN4YTsJCQkJPHBhdGggaWQ9InBhdGgxNjY0NDUiIGlua3NjYXBlOmNvbm5lY3Rvci1jdXJ2YXR1cmU9IjAiIHN0eWxlPSJmaWxsOiMwMEFDRDM7IiBkPSJNNi40NCw5MS40OWgwLjYxdjYuNEg2LjQ0VjkxLjQ5eiBNNS4yOCw5MS40OSAgICAgIGgwLjYzdjYuNEg1LjI4VjkxLjQ5eiBNNC4xMSw5MS40OWgwLjYzdjYuNEg0LjExVjkxLjQ5eiBNMi45NSw5MS40OWgwLjYzdjYuNEgyLjk1TDIuOTUsOTEuNDl6IE0xLjc4LDkxLjQ5aDAuNjN2Ni40SDEuNzggICAgICBMMS43OCw5MS40OXogTTAuNjQsOTEuNDloMC42MXY2LjRIMC42NEwwLjY0LDkxLjQ5eiBNMCw5MC44NWg3LjY5djcuNjlIMFY5MC44NXoiLz4mI3hhOwkJCTwvZz4mI3hhOwkJCTxnIGlkPSJzaGFwZTEzOTEtMjYiIHRyYW5zZm9ybT0idHJhbnNsYXRlKDE3Ljc0NjMsLTguODczMTcpIj4mI3hhOwkJCQk8dGl0bGUgaWQ9InRpdGxlMTY2NDQ4Ij5TaGVldC4xMzkxPC90aXRsZT4mI3hhOwkJCQk8cGF0aCBpZD0icGF0aDE2NjQ1MCIgaW5rc2NhcGU6Y29ubmVjdG9yLWN1cnZhdHVyZT0iMCIgc3R5bGU9ImZpbGw6IzIwQzJFRjsiIGQ9Ik02LjQ0LDkxLjQ5aDAuNjF2Ni40MUg2LjQ0VjkxLjQ5eiAgICAgICBNNS4yOCw5MS40OWgwLjYzdjYuNDFINS4yOFY5MS40OXogTTQuMTEsOTEuNDloMC42M3Y2LjQxSDQuMTFWOTEuNDl6IE0yLjk1LDkxLjQ5aDAuNjN2Ni40MUgyLjk1TDIuOTUsOTEuNDl6IE0xLjc4LDkxLjQ5ICAgICAgaDAuNjN2Ni40MUgxLjc4TDEuNzgsOTEuNDl6IE0wLjY0LDkxLjQ5aDAuNjF2Ni40MUgwLjY0TDAuNjQsOTEuNDl6IE0wLDkwLjg1aDcuNjl2Ny42OUgwVjkwLjg1eiIvPiYjeGE7CQkJPC9nPiYjeGE7CQkJPGcgaWQ9InNoYXBlMTM5Mi0yOCIgdHJhbnNmb3JtPSJ0cmFuc2xhdGUoMjYuNjE4MikiPiYjeGE7CQkJCTx0aXRsZSBpZD0idGl0bGUxNjY0NTMiPlNoZWV0LjEzOTI8L3RpdGxlPiYjeGE7CQkJCTxwYXRoIGlkPSJwYXRoMTY2NDU1IiBpbmtzY2FwZTpjb25uZWN0b3ItY3VydmF0dXJlPSIwIiBzdHlsZT0iZmlsbDojMjBDMkVGOyIgZD0iTTYuNDQsOTEuNDloMC42MXY2LjRINi40NFY5MS40OXogTTUuMjgsOTEuNDkgICAgICBoMC42M3Y2LjRINS4yOFY5MS40OXogTTQuMTEsOTEuNDloMC42M3Y2LjRINC4xMVY5MS40OXogTTIuOTUsOTEuNDloMC42M3Y2LjRIMi45NUwyLjk1LDkxLjQ5eiBNMS43OCw5MS40OWgwLjYzdjYuNEgxLjc4ICAgICAgTDEuNzgsOTEuNDl6IE0wLjY0LDkxLjQ5aDAuNjF2Ni40SDAuNjRMMC42NCw5MS40OXogTTAsOTAuODVoNy42OXY3LjY5SDBWOTAuODV6Ii8+JiN4YTsJCQk8L2c+JiN4YTsJCQk8ZyBpZD0ic2hhcGUxMzkzLTMwIiB0cmFuc2Zvcm09InRyYW5zbGF0ZSgyNi42MTgyLC04Ljg3MzE3KSI+JiN4YTsJCQkJPHRpdGxlIGlkPSJ0aXRsZTE2NjQ1OCI+U2hlZXQuMTM5MzwvdGl0bGU+JiN4YTsJCQkJPHBhdGggaWQ9InBhdGgxNjY0NjAiIGlua3NjYXBlOmNvbm5lY3Rvci1jdXJ2YXR1cmU9IjAiIHN0eWxlPSJmaWxsOiMwMEFDRDM7IiBkPSJNNi40NCw5MS40OWgwLjYxdjYuNDFINi40NFY5MS40OXogICAgICAgTTUuMjgsOTEuNDloMC42M3Y2LjQxSDUuMjhWOTEuNDl6IE00LjExLDkxLjQ5aDAuNjN2Ni40MUg0LjExVjkxLjQ5eiBNMi45NSw5MS40OWgwLjYzdjYuNDFIMi45NUwyLjk1LDkxLjQ5eiBNMS43OCw5MS40OSAgICAgIGgwLjYzdjYuNDFIMS43OEwxLjc4LDkxLjQ5eiBNMC42NCw5MS40OWgwLjYxdjYuNDFIMC42NEwwLjY0LDkxLjQ5eiBNMCw5MC44NWg3LjY5djcuNjlIMFY5MC44NXoiLz4mI3hhOwkJCTwvZz4mI3hhOwkJCTxnIGlkPSJzaGFwZTEzOTQtMzIiIHRyYW5zZm9ybT0idHJhbnNsYXRlKDI2LjYxODIsLTE3Ljc0NjMpIj4mI3hhOwkJCQk8dGl0bGUgaWQ9InRpdGxlMTY2NDYzIj5TaGVldC4xMzk0PC90aXRsZT4mI3hhOwkJCQk8cGF0aCBpZD0icGF0aDE2NjQ2NSIgaW5rc2NhcGU6Y29ubmVjdG9yLWN1cnZhdHVyZT0iMCIgc3R5bGU9ImZpbGw6IzIwQzJFRjsiIGQ9Ik02LjQ0LDkxLjQ5aDAuNjF2Ni40MUg2LjQ0VjkxLjQ5eiAgICAgICBNNS4yOCw5MS40OWgwLjYzdjYuNDFINS4yOFY5MS40OXogTTQuMTEsOTEuNDloMC42M3Y2LjQxSDQuMTFWOTEuNDl6IE0yLjk1LDkxLjQ5aDAuNjN2Ni40MUgyLjk1TDIuOTUsOTEuNDl6IE0xLjc4LDkxLjQ5ICAgICAgaDAuNjN2Ni40MUgxLjc4TDEuNzgsOTEuNDl6IE0wLjY0LDkxLjQ5aDAuNjF2Ni40MUgwLjY0TDAuNjQsOTEuNDl6IE0wLDkwLjg1aDcuNjl2Ny42OUgwVjkwLjg1eiIvPiYjeGE7CQkJPC9nPiYjeGE7CQkJPGcgaWQ9InNoYXBlMTM5NS0zNCIgdHJhbnNmb3JtPSJ0cmFuc2xhdGUoMzUuNDkxNCkiPiYjeGE7CQkJCTx0aXRsZSBpZD0idGl0bGUxNjY0NjgiPlNoZWV0LjEzOTU8L3RpdGxlPiYjeGE7CQkJCTxwYXRoIGlkPSJwYXRoMTY2NDcwIiBpbmtzY2FwZTpjb25uZWN0b3ItY3VydmF0dXJlPSIwIiBzdHlsZT0iZmlsbDojMDBBQ0QzOyIgZD0iTTYuNDQsOTEuNDloMC42MXY2LjRINi40NFY5MS40OXogTTUuMjgsOTEuNDkgICAgICBoMC42M3Y2LjRINS4yOFY5MS40OXogTTQuMTEsOTEuNDloMC42M3Y2LjRINC4xMVY5MS40OXogTTIuOTUsOTEuNDloMC42M3Y2LjRIMi45NUwyLjk1LDkxLjQ5eiBNMS43OCw5MS40OWgwLjYzdjYuNEgxLjc4ICAgICAgTDEuNzgsOTEuNDl6IE0wLjY0LDkxLjQ5aDAuNjF2Ni40SDAuNjRMMC42NCw5MS40OXogTTAsOTAuODVoNy42OXY3LjY5SDBWOTAuODV6Ii8+JiN4YTsJCQk8L2c+JiN4YTsJCTwvZz4mI3hhOwkJPGcgaWQ9InNoYXBlMTM5Ni0zNiIgdHJhbnNmb3JtPSJ0cmFuc2xhdGUoMzUuNDAyNCwtNDAuMTIpIj4mI3hhOwkJCTx0aXRsZSBpZD0idGl0bGUxNjY0NzQiPlNoZWV0LjEzOTY8L3RpdGxlPiYjeGE7CQkJPHBhdGggaWQ9InBhdGgxNjY0NzYiIGlua3NjYXBlOmNvbm5lY3Rvci1jdXJ2YXR1cmU9IjAiIHN0eWxlPSJmaWxsOiNENEVERjE7IiBkPSJNMi4xMiw5NC4yOWMxLjE3LDAsMi4xMiwwLjk1LDIuMTIsMi4xMiAgICAgYzAsMS4xOC0wLjk1LDIuMTMtMi4xMiwyLjEzUzAsOTcuNTksMCw5Ni40MUMwLDk1LjI0LDAuOTUsOTQuMjksMi4xMiw5NC4yOXoiLz4mI3hhOwkJPC9nPiYjeGE7CQk8ZyBpZD0ic2hhcGUxMzk3LTM4IiB0cmFuc2Zvcm09InRyYW5zbGF0ZSgzNi4wMDQsLTQwLjcyMykiPiYjeGE7CQkJPHRpdGxlIGlkPSJ0aXRsZTE2NjQ3OSI+U2hlZXQuMTM5NzwvdGl0bGU+JiN4YTsJCQk8cGF0aCBpZD0icGF0aDE2NjQ4MSIgaW5rc2NhcGU6Y29ubmVjdG9yLWN1cnZhdHVyZT0iMCIgc3R5bGU9ImZpbGw6IzM5NEQ1NDsiIGQ9Ik0xLjUyLDk1LjVjMC4xOSwwLDAuMzgsMC4wNCwwLjU1LDAuMSAgICAgYy0wLjE5LDAuMTEtMC4zMSwwLjMxLTAuMzEsMC41NGMwLDAuMzQsMC4yOCwwLjYyLDAuNjIsMC42MmMwLjIzLDAsMC40NC0wLjEzLDAuNTQtMC4zM2MwLjA4LDAuMTgsMC4xMiwwLjM4LDAuMTIsMC41OSAgICAgYzAsMC44NC0wLjY4LDEuNTItMS41MiwxLjUyQzAuNjgsOTguNTQsMCw5Ny44NiwwLDk3LjAyUzAuNjgsOTUuNSwxLjUyLDk1LjV6Ii8+JiN4YTsJCTwvZz4mI3hhOwkJPGcgaWQ9InNoYXBlMTM5OC00MCIgdHJhbnNmb3JtPSJ0cmFuc2xhdGUoMCwtNDguMDcyMykiPiYjeGE7CQkJPHRpdGxlIGlkPSJ0aXRsZTE2NjQ4NCI+U2hlZXQuMTM5ODwvdGl0bGU+JiN4YTsJCQk8cGF0aCBpZD0icGF0aDE2NjQ4NiIgaW5rc2NhcGU6Y29ubmVjdG9yLWN1cnZhdHVyZT0iMCIgc3R5bGU9ImZpbGw6IzM5NEQ1NDsiIGQ9Ik0wLDk3Ljg1aDQ2LjQ3aDUuNzVoNDYuNDcgICAgIGMtMi4xNS0wLjU1LTYuOC0xLjI4LTYuMDMtNC4xYy0zLjkxLDQuNTItMTMuMzMsMy4xNy0xNS43MSwwLjk0Yy0yLjY1LDMuODUtMTguMDcsMi4zOS0xOS4xNC0wLjYxYy0zLjMyLDMuOS0xMy42MSwzLjktMTYuOTMsMCAgICAgYy0xLjA4LDIuOTktMTYuNDksNC40NS0xOS4xNCwwLjYxYy0yLjM4LDIuMjMtMTEuOCwzLjU4LTE1LjcxLTAuOTRDNi44LDk2LjU3LDIuMTUsOTcuMywwLDk3Ljg1eiIvPiYjeGE7CQk8L2c+JiN4YTsJCTxnIGlkPSJzaGFwZTEzOTktNDIiIHRyYW5zZm9ybT0idHJhbnNsYXRlKDE5LjAyODUsLTI5LjAyODYpIj4mI3hhOwkJCTx0aXRsZSBpZD0idGl0bGUxNjY0ODkiPlNoZWV0LjEzOTk8L3RpdGxlPiYjeGE7CQkJPHBhdGggaWQ9InBhdGgxNjY0OTEiIGlua3NjYXBlOmNvbm5lY3Rvci1jdXJ2YXR1cmU9IjAiIHN0eWxlPSJmaWxsOiNCRkRCRTA7IiBkPSJNMjQuMTQsOTguNDlDMTguODgsOTYsMTYsOTIuNjEsMTQuMzksODguOTEgICAgIGMtMS45NSwwLjU1LTQuMjksMC45MS03LjAyLDEuMDZjLTEuMDMsMC4wNi0yLjExLDAuMDktMy4yNCwwLjA5Yy0xLjMxLDAtMi42OS0wLjA0LTQuMTMtMC4xMmM0LjgyLDQuODIsMTAuNzUsOC41MywyMS43Miw4LjU5ICAgICBDMjIuNTMsOTguNTQsMjMuMzQsOTguNTIsMjQuMTQsOTguNDl6Ii8+JiN4YTsJCTwvZz4mI3hhOwkJPGcgaWQ9InNoYXBlMTQwMC00NCIgdHJhbnNmb3JtPSJ0cmFuc2xhdGUoMjYuMzk4MiwtMzUuMjQzNCkiPiYjeGE7CQkJPHRpdGxlIGlkPSJ0aXRsZTE2NjQ5NCI+U2hlZXQuMTQwMDwvdGl0bGU+JiN4YTsJCQk8cGF0aCBpZD0icGF0aDE2NjQ5NiIgaW5rc2NhcGU6Y29ubmVjdG9yLWN1cnZhdHVyZT0iMCIgc3R5bGU9ImZpbGw6I0Q0RURGMTsiIGQ9Ik04Ljk3LDk4LjU0Yy0wLjcyLTAuOTktMS40My0yLjIzLTEuOTQtMy40MiAgICAgYy0xLjk2LDAuNTYtNC4zLDAuOTItNy4wMywxLjA3QzEuODcsOTcuMjEsNC41NSw5OC4xNSw4Ljk3LDk4LjU0eiIvPiYjeGE7CQk8L2c+JiN4YTsJPC9nPiYjeGE7PC9nPiYjeGE7PC9zdmc+;" parent="1" vertex="1">
          <mxGeometry x="311.25" y="587.3" width="39" height="32.7" as="geometry" />
        </mxCell>
        <mxCell id="z_7tf-593rKs41fNWHXD-24" value="" style="shape=image;verticalLabelPosition=bottom;labelBackgroundColor=default;verticalAlign=top;aspect=fixed;imageAspect=0;image=https://download.logo.wine/logo/Spring_Framework/Spring_Framework-Logo.wine.png;" parent="1" vertex="1">
          <mxGeometry x="526" y="575" width="90" height="60" as="geometry" />
        </mxCell>
        <mxCell id="z_7tf-593rKs41fNWHXD-25" value="UsuÃ¡rio" style="text;html=1;align=center;verticalAlign=middle;resizable=0;points=[];autosize=1;strokeColor=none;fillColor=none;" parent="1" vertex="1">
          <mxGeometry x="45" y="495" width="60" height="30" as="geometry" />
        </mxCell>
        <mxCell id="z_7tf-593rKs41fNWHXD-27" value="Desktop" style="text;html=1;align=center;verticalAlign=middle;resizable=0;points=[];autosize=1;strokeColor=none;fillColor=none;" parent="1" vertex="1">
          <mxGeometry x="40" y="590" width="70" height="30" as="geometry" />
        </mxCell>
        <mxCell id="z_7tf-593rKs41fNWHXD-28" value="Mobile" style="text;html=1;align=center;verticalAlign=middle;resizable=0;points=[];autosize=1;strokeColor=none;fillColor=none;" parent="1" vertex="1">
          <mxGeometry x="45" y="400" width="60" height="30" as="geometry" />
        </mxCell>
        <mxCell id="z_7tf-593rKs41fNWHXD-33" value="Internet" style="text;html=1;align=center;verticalAlign=middle;resizable=0;points=[];autosize=1;strokeColor=none;fillColor=none;" parent="1" vertex="1">
          <mxGeometry x="146.25" y="495" width="60" height="30" as="geometry" />
        </mxCell>
        <mxCell id="z_7tf-593rKs41fNWHXD-34" value="Network Security&lt;div&gt;Group&lt;/div&gt;" style="text;html=1;align=center;verticalAlign=middle;resizable=0;points=[];autosize=1;strokeColor=none;fillColor=none;labelBackgroundColor=default;" parent="1" vertex="1">
          <mxGeometry x="261.25" y="500" width="110" height="40" as="geometry" />
        </mxCell>
        <mxCell id="z_7tf-593rKs41fNWHXD-11" value="" style="image;sketch=0;aspect=fixed;html=1;points=[];align=center;fontSize=12;image=img/lib/mscae/Network_Security_Groups_Classic.svg;" parent="1" vertex="1">
          <mxGeometry x="263.52" y="445" width="37" height="50" as="geometry" />
        </mxCell>
        <mxCell id="z_7tf-593rKs41fNWHXD-41" value="VM com Docker" style="text;html=1;align=center;verticalAlign=middle;resizable=0;points=[];autosize=1;strokeColor=none;fillColor=none;" parent="1" vertex="1">
          <mxGeometry x="311.25" y="645" width="110" height="30" as="geometry" />
        </mxCell>
        <mxCell id="z_7tf-593rKs41fNWHXD-58" style="edgeStyle=orthogonalEdgeStyle;rounded=0;orthogonalLoop=1;jettySize=auto;html=1;" parent="1" source="z_7tf-593rKs41fNWHXD-45" target="z_7tf-593rKs41fNWHXD-24" edge="1">
          <mxGeometry relative="1" as="geometry" />
        </mxCell>
        <mxCell id="z_7tf-593rKs41fNWHXD-45" value="" style="shape=image;verticalLabelPosition=bottom;labelBackgroundColor=#ffffff;verticalAlign=top;aspect=fixed;imageAspect=0;image=data:image/svg+xml,PHN2ZyB4bWxuczpjYz0iaHR0cDovL2NyZWF0aXZlY29tbW9ucy5vcmcvbnMjIiB4bWxuczpkYz0iaHR0cDovL3B1cmwub3JnL2RjL2VsZW1lbnRzLzEuMS8iIHhtbG5zOmlua3NjYXBlPSJodHRwOi8vd3d3Lmlua3NjYXBlLm9yZy9uYW1lc3BhY2VzL2lua3NjYXBlIiB4bWxuczpyZGY9Imh0dHA6Ly93d3cudzMub3JnLzE5OTkvMDIvMjItcmRmLXN5bnRheC1ucyMiIHhtbG5zOnNvZGlwb2RpPSJodHRwOi8vc29kaXBvZGkuc291cmNlZm9yZ2UubmV0L0RURC9zb2RpcG9kaS0wLmR0ZCIgeG1sbnM6c3ZnPSJodHRwOi8vd3d3LnczLm9yZy8yMDAwL3N2ZyIgeG1sbnM9Imh0dHA6Ly93d3cudzMub3JnLzIwMDAvc3ZnIiB4bWxuczp4bGluaz0iaHR0cDovL3d3dy53My5vcmcvMTk5OS94bGluayIgdmVyc2lvbj0iMS4xIiBpZD0ic3ZnMTY2NTAyIiBpbmtzY2FwZTp2ZXJzaW9uPSIwLjkyLjMgKDI0MDU1NDYsIDIwMTgtMDMtMTEpIiBzb2RpcG9kaTpkb2NuYW1lPSJkb2NrZXJfdG9vbHMuc3ZnIiB4PSIwcHgiIHk9IjBweCIgdmlld0JveD0iMCAwIDk5LjIyIDgzLjI0IiBzdHlsZT0iZW5hYmxlLWJhY2tncm91bmQ6bmV3IDAgMCA5OS4yMiA4My4yNDsiIHhtbDpzcGFjZT0icHJlc2VydmUiPiYjeGE7PHNvZGlwb2RpOm5hbWVkdmlldyBib3JkZXJjb2xvcj0iIzY2NjY2NiIgYm9yZGVyb3BhY2l0eT0iMSIgZml0LW1hcmdpbi1ib3R0b209IjAiIGZpdC1tYXJnaW4tbGVmdD0iMCIgZml0LW1hcmdpbi1yaWdodD0iMCIgZml0LW1hcmdpbi10b3A9IjAiIGdyaWR0b2xlcmFuY2U9IjEwIiBndWlkZXRvbGVyYW5jZT0iMTAiIGlkPSJuYW1lZHZpZXcxNjY1MDQiIGlua3NjYXBlOmN1cnJlbnQtbGF5ZXI9InN2ZzE2NjUwMiIgaW5rc2NhcGU6Y3g9IjY2LjE0MTY1NiIgaW5rc2NhcGU6Y3k9IjU1LjQ5MzEwOCIgaW5rc2NhcGU6cGFnZW9wYWNpdHk9IjAiIGlua3NjYXBlOnBhZ2VzaGFkb3c9IjIiIGlua3NjYXBlOndpbmRvdy1oZWlnaHQ9IjEwMTciIGlua3NjYXBlOndpbmRvdy1tYXhpbWl6ZWQ9IjEiIGlua3NjYXBlOndpbmRvdy13aWR0aD0iMTkyMCIgaW5rc2NhcGU6d2luZG93LXg9Ii04IiBpbmtzY2FwZTp3aW5kb3cteT0iLTgiIGlua3NjYXBlOnpvb209IjYuNTk5MDg5OCIgb2JqZWN0dG9sZXJhbmNlPSIxMCIgcGFnZWNvbG9yPSIjZmZmZmZmIiBzaG93Z3JpZD0iZmFsc2UiPiYjeGE7CTwvc29kaXBvZGk6bmFtZWR2aWV3PiYjeGE7PGcgaWQ9ImcxNjY1MDAiIHRyYW5zZm9ybT0idHJhbnNsYXRlKC03LjY1LC03LjY0OTMyOSkiPiYjeGE7CTx0aXRsZSBpZD0idGl0bGUxNjYzODQiPlBhZ2UtMTwvdGl0bGU+JiN4YTsJPGcgaWQ9Imdyb3VwMTM3Ny0xIiB0cmFuc2Zvcm09InRyYW5zbGF0ZSg3LjY1LC03LjE0MTc0KSI+JiN4YTsJCTx0aXRsZSBpZD0idGl0bGUxNjYzODYiPkRvY2tlciBUb29sczwvdGl0bGU+JiN4YTsJCTxnIGlkPSJzaGFwZTEzNzgtMiIgdHJhbnNmb3JtPSJ0cmFuc2xhdGUoMC4wNjc0MTM3KSI+JiN4YTsJCQk8dGl0bGUgaWQ9InRpdGxlMTY2Mzg4Ij5kb2NrZXJfNF88L3RpdGxlPiYjeGE7CQkJPHBhdGggaWQ9InBhdGgxNjYzOTAiIGlua3NjYXBlOmNvbm5lY3Rvci1jdXJ2YXR1cmU9IjAiIHN0eWxlPSJmaWxsOiMzRjU3NjU7IiBkPSJNNzMuMzksOTIuNzljMi4yMy0xLjkxLDQuNDYtMy44Myw2LjY5LTUuNzUgICAgIGMwLjc2LTAuNjYsMS41OS0xLjM0LDIuMzUtMi4wM2MtMC42MS0wLjc2LTEuNjItMS4zMS0yLjQ4LTEuNjRjLTEuNzMtMC42Ni0zLjQ0LTAuNDQtNS4wMywwLjQ4Yy0yLjA5LDEuMi0yLjk3LDMuMTItMi44OSw1LjUgICAgIGMwLjAzLDAuOTQsMC4yOCwxLjg0LDAuNzgsMi42NEM3Mi45OCw5Mi4yNyw3My4xOCw5Mi41NCw3My4zOSw5Mi43OXogTTc1Ljk3LDk0LjZjMS4xLDAuMzgsMi4zNCwwLjMzLDMuNDcsMC4xNCAgICAgYzAuNTctMC4yNSwyLjA0LTAuODksMi41OC0wLjhsMC4wOCwwLjAyTDgyLjE4LDk0YzAuMzMsMC4xNiwwLjY0LDAuMzgsMC44MSwwLjcyYzAuNCwwLjc5LDAuMjEsMS41Ny0wLjU3LDIuMDJsLTAuMjUsMC4xNSAgICAgYy0yLjg1LDEuNjUtNS44OSwxLjQyLTguNzMtMC4xMmMtMS4zNi0wLjczLTIuNC0xLjgyLTMuMTctMy4xNmwtMC4xOC0wLjMxYy0xLjgzLTMuMTctMS41OC02LjUsMC40OC05LjUyICAgICBjMC43Mi0xLjA0LDEuNjUtMS44NSwyLjc0LTIuNDhsMC40MS0wLjIzYzIuNjktMS41NSw1LjU3LTEuNDUsOC4zMy0wLjA5YzEuNDgsMC43MywyLjY4LDEuODMsMy41MSwzLjI2bDAuMTUsMC4yNiAgICAgYzAuNiwxLjA0LTAuMTgsMS45NS0wLjk4LDIuNTdjLTAuOTQsMC43Mi0xLjg4LDEuNTktMi43OCwyLjM2Qzc5Ljk2LDkxLjE1LDc3Ljk3LDkyLjg4LDc1Ljk3LDk0LjZ6IE05Ny4zNCw4MC4xOGgwLjMgICAgIGMwLjksMCwxLjUxLDAuNjEsMS41MSwxLjVjMCwxLjI1LTEuMiwxLjU3LTIuMjIsMS41N2MtMS4zNiwwLTIuNjQsMC44MS0zLjU3LDEuNzNjLTEuMTcsMS4xNS0xLjY3LDIuNjEtMS42Nyw0LjIydjcuMjggICAgIGMwLDAuODMtMC41MiwxLjUxLTEuMzksMS41MWgtMC4yNGMtMC44NiwwLTEuMzgtMC42OC0xLjM4LTEuNTF2LTcuN2MwLTIuOTUsMS40NC01LjM2LDMuODQtNy4wNiAgICAgQzkzLjk1LDgwLjcxLDk1LjU5LDgwLjE4LDk3LjM0LDgwLjE4eiBNNTkuODcsODUuMzRjMS4xNi0xLjE3LDIuMzQtMi4zMywzLjUyLTMuNDhjMC4zMy0wLjMyLDEuNTgtMS42OCwyLjA4LTEuNjhINjZsMC4wNiwwLjAxICAgICBjMC42OSwwLjE0LDEuMiwwLjU4LDEuMiwxLjMxdjAuM2MwLDAuNS0wLjU5LDEuMDktMC45MSwxLjQzYy0wLjY5LDAuNzQtMS40MiwxLjQ0LTIuMTMsMi4xNmwtMy42MywzLjY5ICAgICBjMS41NywxLjU2LDMuMTMsMy4xMyw0LjY4LDQuNzFjMC40MywwLjQ0LDAuODYsMC44OCwxLjI4LDEuMzJjMC4xNSwwLjE2LDAuMzcsMC4zNSwwLjUsMC41N2MwLjEzLDAuMjEsMC4yMSwwLjQ0LDAuMjEsMC42OHYwLjMxICAgICBsLTAuMDEsMC4wN2MtMC4xNywwLjY5LTAuNjEsMS4yNC0xLjM3LDEuMjRoLTAuMjRjLTAuNSwwLTEuMDYtMC41Ni0xLjQtMC44OGMtMC43LTAuNjYtMS4zOC0xLjM2LTIuMDctMi4wM2wtMi4zMS0yLjI3djMuNjIgICAgIGMwLDAuODQtMC41MiwxLjUxLTEuMzgsMS41MWgtMC4yNGMtMC44NiwwLTEuMzgtMC42Ny0xLjM4LTEuNTFWNzYuMDFjMC0wLjgzLDAuNTItMS41LDEuMzgtMS41aDAuMjRjMC44NiwwLDEuMzgsMC42NywxLjM4LDEuNSAgICAgTDU5Ljg3LDg1LjM0TDU5Ljg3LDg1LjM0eiBNNTAuMTIsODMuMzFjLTAuNDYtMC4yMS0xLjMxLTAuMjktMS44LTAuM2MtMi41MS0wLjEtNC4zMywxLjMyLTUuNCwzLjUzICAgICBjLTAuMzYsMC43Ny0wLjUzLDEuNTgtMC41MywyLjQyYzAsMi41OCwxLjM1LDQuMzgsMy42NSw1LjQ4YzAuODQsMC40LDEuOTIsMC40OCwyLjg0LDAuNDhjMC44MSwwLDEuOTUtMC41LDIuNjYtMC44NGwwLjEzLTAuMDYgICAgIGgwLjU2bDAuMDYsMC4wMmMwLjY4LDAuMTQsMS4yLDAuNTcsMS4yLDEuMzF2MC4zYzAsMS44My0zLjM1LDIuMjUtNC42MywyLjM0Yy00LjUsMC4zMS03Ljg3LTIuMTctOS4xNS02LjQ2ICAgICBjLTAuMjMtMC43NS0wLjMzLTEuNDktMC4zMy0yLjI3di0wLjZjMC0zLjI2LDEuNjItNS44NCw0LjQyLTcuNWMxLjMtMC43NywyLjczLTEuMTYsNC4yNS0xLjE2aDAuNTljMS42LDAsMy4wOCwwLjQ1LDQuNCwxLjM2ICAgICBsMC4xMSwwLjA3bDAuMDcsMC4xMmMwLjE0LDAuMjMsMC4yNywwLjUxLDAuMjcsMC43OXYwLjNjMCwwLjc2LTAuNTgsMS4xOC0xLjI3LDEuMzFsLTAuMDYsMC4wMWgtMC4xOCAgICAgQzUxLjUzLDgzLjk2LDUwLjUyLDgzLjUsNTAuMTIsODMuMzF6IE0yMi43LDg5LjAyYzAsMi4yOSwxLjEyLDMuOTcsMy4wNSw1LjE1YzAuOTEsMC41NiwxLjksMC44MSwyLjk2LDAuODEgICAgIGMyLjI2LDAsMy45My0xLjE1LDUuMDktMy4wNWMwLjU2LTAuOTEsMC44MS0xLjkxLDAuODEtMi45N2MwLTIuMTItMS4wMy0zLjc1LTIuNzgtNC45MmMtMC45Ni0wLjY1LTIuMDItMC45Ny0zLjE4LTAuOTcgICAgIGMtMi41MiwwLTQuMzMsMS4yNy01LjQyLDMuNTNDMjIuODYsODcuMzYsMjIuNyw4OC4xOCwyMi43LDg5LjAyeiBNMjguMzUsODAuMDZoMC40MmMzLjQ5LDAsNi4xNCwxLjY5LDcuODEsNC43MyAgICAgYzAuNjgsMS4yMiwxLjAzLDIuNTQsMS4wMywzLjk0djAuNTljMCwzLjI2LTEuNiw1Ljg2LTQuNDEsNy41MWMtMS4zLDAuNzYtMi43NCwxLjE1LTQuMjUsMS4xNWgtMC42Yy0zLjI2LDAtNS44NS0xLjYxLTcuNS00LjQxICAgICBjLTAuNzctMS4zLTEuMTYtMi43NC0xLjE2LTQuMjV2LTAuNTljMC0zLjI3LDEuNjItNS44NSw0LjQxLTcuNTFDMjUuNDEsODAuNDUsMjYuODQsODAuMDYsMjguMzUsODAuMDZ6IE0zLjAxLDg5LjAyICAgICBjMCwyLjM2LDEuMTQsNC4xMywzLjIsNS4yNmMwLjg0LDAuNDUsMS43NCwwLjcsMi42OSwwLjdjMi4zMSwwLDQuMDMtMS4wOSw1LjIxLTMuMDVjMC41NS0wLjkxLDAuODEtMS45MSwwLjgxLTIuOTcgICAgIGMwLTIuMDQtMC45Ny0zLjYzLTIuNjItNC44MmMtMC45OS0wLjcxLTIuMTItMS4wNy0zLjM0LTEuMDdjLTIuNTIsMC00LjMzLDEuMjctNS40MiwzLjUzQzMuMTcsODcuMzYsMy4wMSw4OC4xOCwzLjAxLDg5LjAyeiAgICAgIE0xNC45Miw4Mi4zdi02LjM1YzAtMC44MywwLjUyLTEuNSwxLjM4LTEuNWgwLjI0YzAuODcsMCwxLjM4LDAuNjcsMS4zOCwxLjV2MTMuMzdjMCwzLjI2LTEuNjEsNS44NS00LjQxLDcuNTEgICAgIGMtMS4zLDAuNzYtMi43NCwxLjE2LTQuMjUsMS4xNmgtMC42Yy0zLjI2LDAtNS44NS0xLjYyLTcuNS00LjQyQzAuMzksOTIuMjcsMCw5MC44MywwLDg5LjMydi0wLjU5YzAtMy4yNiwxLjYxLTUuODYsNC40MS03LjUxICAgICBjMS4zMS0wLjc3LDIuNzQtMS4xNiw0LjI1LTEuMTZoMC42QzExLjQ3LDgwLjA2LDEzLjM0LDgwLjkxLDE0LjkyLDgyLjN6Ii8+JiN4YTsJCTwvZz4mI3hhOwkJPGcgaWQ9InNoYXBlMTM3OS00IiB0cmFuc2Zvcm09InRyYW5zbGF0ZSgxMS44MzQzLC0yNy41NDkzKSI+JiN4YTsJCQk8dGl0bGUgaWQ9InRpdGxlMTY2MzkzIj5vdXRsaW5lXzdfPC90aXRsZT4mI3hhOwkJCTxwYXRoIGlkPSJwYXRoMTY2Mzk1IiBpbmtzY2FwZTpjb25uZWN0b3ItY3VydmF0dXJlPSIwIiBzdHlsZT0iZmlsbDojMzk0RDU0OyIgZD0iTTQ1LjQsNjAuMDloOC44N3Y5LjA3aDQuNDkgICAgIGMyLjA3LDAsNC4yLTAuMzcsNi4xNi0xLjA0YzAuOTYtMC4zMiwyLjA1LTAuNzgsMy0xLjM1Yy0xLjI2LTEuNjQtMS44OS0zLjctMi4wOC01Ljc0Yy0wLjI2LTIuNzYsMC4zLTYuMzcsMi4xNy04LjUzbDAuOTQtMS4wOCAgICAgbDEuMTEsMC44OWMyLjgsMi4yNSw1LjE1LDUuMzksNS41Niw4Ljk3YzMuMzctMC45OSw3LjMzLTAuNzYsMTAuMywwLjk2bDEuMjIsMC43bC0wLjY0LDEuMjVjLTIuNTIsNC45MS03Ljc3LDYuNDItMTIuOSw2LjE1ICAgICBjLTcuNjgsMTkuMTQtMjQuNDEsMjguMi00NC42OCwyOC4yYy0xMC40OCwwLTIwLjA5LTMuOTItMjUuNTctMTMuMjJsLTAuMDktMC4xNWwtMC43OS0xLjYyQzAuNjIsNzkuNDYsMCw3NC45OCwwLjQyLDcwLjUgICAgIGwwLjEyLTEuMzRoNy41OXYtOS4wN0gxN3YtOC44OGgxNy43NXYtOC44N2gxMC42NHYxNy43NUg0NS40eiIvPiYjeGE7CQk8L2c+JiN4YTsJCTxnIGlkPSJncm91cDEzODAtNiIgdHJhbnNmb3JtPSJ0cmFuc2xhdGUoMTMuMjcwMywtMjkuMDI4NikiPiYjeGE7CQkJPHRpdGxlIGlkPSJ0aXRsZTE2NjM5OCI+Ym9keV9jb2xvcnNfOF88L3RpdGxlPiYjeGE7CQkJPGcgaWQ9InNoYXBlMTM4MS03Ij4mI3hhOwkJCQk8dGl0bGUgaWQ9InRpdGxlMTY2NDAwIj5TaGVldC4xMzgxPC90aXRsZT4mI3hhOwkJCQk8cGF0aCBpZD0icGF0aDE2NjQwMiIgaW5rc2NhcGU6Y29ubmVjdG9yLWN1cnZhdHVyZT0iMCIgc3R5bGU9ImZpbGw6IzAwQUFEQTsiIGQ9Ik03Mi43MSw2NC45MmMwLjU5LTQuNjItMi44Ny04LjI1LTUuMDItOS45OCAgICAgIGMtMi40NywyLjg2LTIuODUsMTAuMzUsMS4wMywxMy41MWMtMi4xNywxLjkyLTYuNzMsMy42Ni0xMS40LDMuNjZIMC40NUMwLDc2Ljk5LDAuODYsODEuNDgsMi44MSw4NS4zM2wwLjY1LDEuMTggICAgICBjMC40MSwwLjY5LDAuODYsMS4zNiwxLjM0LDIuMDFsMCwwYzIuMzQsMC4xNSw0LjQ5LDAuMiw2LjQ2LDAuMTZjMCwwLDAsMCwwLjAxLDBjMy44Ny0wLjA5LDcuMDMtMC41NCw5LjQzLTEuMzcgICAgICBjMC4zNi0wLjEzLDAuNzUsMC4wNiwwLjg3LDAuNDJjMC4xMiwwLjM1LTAuMDcsMC43NC0wLjQyLDAuODdjLTAuMzIsMC4xMS0wLjY1LDAuMjEtMSwwLjMxbDAsMGMtMS44OSwwLjU0LTMuOTEsMC45LTYuNTIsMS4wNiAgICAgIGMwLjE2LDAtMC4xNiwwLjAyLTAuMTYsMC4wMmMtMC4wOSwwLjAxLTAuMiwwLjAyLTAuMjksMC4wM2MtMS4wMywwLjA1LTIuMTQsMC4wNy0zLjI3LDAuMDdjLTEuMjQsMC0yLjQ2LTAuMDMtMy44My0wLjEgICAgICBsLTAuMDMsMC4wM2M0LjczLDUuMzIsMTIuMTQsOC41MiwyMS40Myw4LjUyYzE5LjY1LDAsMzYuMzItOC43Miw0My43LTI4LjI4YzUuMjQsMC41NCwxMC4yNy0wLjc5LDEyLjU2LTUuMjYgICAgICBDODAuMSw2Mi44OSw3NS40MSw2My41Niw3Mi43MSw2NC45MnoiLz4mI3hhOwkJCTwvZz4mI3hhOwkJCTxnIGlkPSJzaGFwZTEzODItOSIgdHJhbnNmb3JtPSJ0cmFuc2xhdGUoMy41ODk0NiwtNS4xNDc2MSkiPiYjeGE7CQkJCTx0aXRsZSBpZD0idGl0bGUxNjY0MDUiPlNoZWV0LjEzODI8L3RpdGxlPiYjeGE7CQkJCTxwYXRoIGlkPSJwYXRoMTY2NDA3IiBpbmtzY2FwZTpjb25uZWN0b3ItY3VydmF0dXJlPSIwIiBzdHlsZT0iZmlsbDojMjRCOEVCOyIgZD0iTTY5LjEyLDcwLjA3YzAuNTktNC42My0yLjg3LTguMjYtNS4wMS05Ljk4ICAgICAgYy0yLjQ4LDIuODYtMi44NiwxMC4zNSwxLjAyLDEzLjUxYy0yLjE3LDEuOTItNi43MywzLjY2LTExLjQsMy42NkgwLjIzQzAsODQuNzMsMi43Nyw5MC40LDcuNjcsOTMuODNjMCwwLDAsMCwwLjAxLDAgICAgICBjMy44Ny0wLjA5LDcuMDMtMC41NSw5LjQzLTEuMzhjMC4zNi0wLjEyLDAuNzUsMC4wNywwLjg3LDAuNDNjMC4xMiwwLjM1LTAuMDcsMC43NC0wLjQyLDAuODZjLTAuMzIsMC4xMi0wLjY1LDAuMjItMSwwLjMybDAsMCAgICAgIGMtMS44OSwwLjUzLTQuMDgsMC45NC02LjY5LDEuMTFjMCwwLTAuMDctMC4wNy0wLjA3LTAuMDZjNi42OSwzLjQzLDE2LjM5LDMuNDEsMjcuNTEtMC44NmMxMi40Ny00Ljc5LDI0LjA3LTEzLjkxLDMyLjE2LTI0LjM1ICAgICAgQzY5LjM1LDY5Ljk1LDY5LjIzLDcwLjAxLDY5LjEyLDcwLjA3eiIvPiYjeGE7CQkJPC9nPiYjeGE7CQkJPGcgaWQ9InNoYXBlMTM4My0xMSIgdHJhbnNmb3JtPSJ0cmFuc2xhdGUoMC41NjA5MzMpIj4mI3hhOwkJCQk8dGl0bGUgaWQ9InRpdGxlMTY2NDEwIj5TaGVldC4xMzgzPC90aXRsZT4mI3hhOwkJCQk8cGF0aCBpZD0icGF0aDE2NjQxMiIgaW5rc2NhcGU6Y29ubmVjdG9yLWN1cnZhdHVyZT0iMCIgc3R5bGU9ImZpbGw6IzAwOEJCODsiIGQ9Ik0wLDc4LjA0YzAuMzUsMi42MSwxLjEyLDUuMDYsMi4yNSw3LjI4ICAgICAgbDAuNjUsMS4xOWMwLjQxLDAuNjksMC44NSwxLjM2LDEuMzQsMi4wMWMyLjM0LDAuMTUsNC40OSwwLjIsNi40NiwwLjE2YzMuODgtMC4wOSw3LjA0LTAuNTQsOS40NC0xLjM4ICAgICAgYzAuMzYtMC4xMiwwLjc0LDAuMDcsMC44NywwLjQzYzAuMTIsMC4zNS0wLjA3LDAuNzQtMC40MiwwLjg3Yy0wLjMyLDAuMTEtMC42NiwwLjIxLTEsMC4zMWwwLDBjLTEuODksMC41NC00LjA3LDAuOTItNi42OCwxLjA4ICAgICAgQzEyLjgyLDkwLDEyLjY2LDkwLDEyLjU3LDkwLjAxYy0xLjAyLDAuMDUtMi4xMiwwLjA5LTMuMjYsMC4wOWMtMS4yNCwwLTIuNTEtMC4wMi0zLjg3LTAuMDljNC43NCw1LjMyLDEyLjE5LDguNTMsMjEuNDgsOC41MyAgICAgIGMxNi44MiwwLDMxLjQ2LTYuMzksMzkuOTYtMjAuNUwwLDc4LjA0eiIvPiYjeGE7CQkJPC9nPiYjeGE7CQkJPGcgaWQ9InNoYXBlMTM4NC0xMyIgdHJhbnNmb3JtPSJ0cmFuc2xhdGUoNC4zMzM1NiwtNS4xMTE5OSkiPiYjeGE7CQkJCTx0aXRsZSBpZD0idGl0bGUxNjY0MTUiPlNoZWV0LjEzODQ8L3RpdGxlPiYjeGE7CQkJCTxwYXRoIGlkPSJwYXRoMTY2NDE3IiBpbmtzY2FwZTpjb25uZWN0b3ItY3VydmF0dXJlPSIwIiBzdHlsZT0iZmlsbDojMDM5QkM2OyIgZD0iTTAsODMuMTVjMS4wMSw0LjU5LDMuNDIsOC4xOSw2LjkzLDEwLjY0ICAgICAgYzMuODgtMC4wOCw3LjA0LTAuNTQsOS40NC0xLjM3YzAuMzUtMC4xMywwLjc0LDAuMDYsMC44NywwLjQyYzAuMTIsMC4zNi0wLjA3LDAuNzQtMC40MywwLjg3Yy0wLjMyLDAuMTEtMC42NSwwLjIxLTAuOTksMC4zMSAgICAgIGwwLDBjLTEuODksMC41NC00LjEyLDAuOTItNi43MywxLjA5YzYuNjksMy40MywxNi4zNiwzLjM4LDI3LjQ3LTAuODljNi43My0yLjU5LDEzLjItNi40MywxOS4wMS0xMS4wN0wwLDgzLjE1eiIvPiYjeGE7CQkJPC9nPiYjeGE7CQk8L2c+JiN4YTsJCTxnIGlkPSJzaGFwZTEzODUtMTUiIHRyYW5zZm9ybT0idHJhbnNsYXRlKDE2Ljk1OSwtMzcuNTAzNikiPiYjeGE7CQkJPHRpdGxlIGlkPSJ0aXRsZTE2NjQyMSI+U2hlZXQuMTM4NTwvdGl0bGU+JiN4YTsJCQk8cGF0aCBpZD0icGF0aDE2NjQyMyIgaW5rc2NhcGU6Y29ubmVjdG9yLWN1cnZhdHVyZT0iMCIgc3R5bGU9ImZpbGw6IzM5NEQ1NDsiIGQ9Ik02LjIsOTguNTRjMS4xMywwLDIuMjEtMC4wMywzLjI0LTAuMDkgICAgIGMwLjA5LTAuMDEsMC4xNy0wLjAxLDAuMjYtMC4wMmMwLjAxLDAsMC4wMSwwLDAuMDEsMGMyLjYxLTAuMTYsNC44Ny0wLjUxLDYuNzUtMS4wNWwwLDBjMC4zNS0wLjA5LDAuNjgtMC4yLDEtMC4zMSAgICAgYzAuMzUtMC4xMiwwLjU0LTAuNTEsMC40Mi0wLjg3Yy0wLjEyLTAuMzUtMC41MS0wLjU0LTAuODctMC40MmMtMi40LDAuODMtNS41NiwxLjI5LTkuNDMsMS4zN2wwLDBjLTEuOTgsMC4wNS00LjEzLDAtNi40Ny0wLjE1ICAgICBsMCwwYy0wLjEyLTAuMDEtMC4yNC0wLjAyLTAuMzYtMC4wM2MtMC4zNy0wLjAyLTAuNywwLjI2LTAuNzIsMC42NGMtMC4wMywwLjM3LDAuMjUsMC43LDAuNjMsMC43MyAgICAgYzAuNDgsMC4wMywwLjk1LDAuMDYsMS40MSwwLjA4YzAuMDcsMCwwLjE0LDAuMDEsMC4yMiwwLjAxQzMuNjUsOTguNSw0Ljk2LDk4LjU0LDYuMiw5OC41NEw2LjIsOTguNTR6Ii8+JiN4YTsJCTwvZz4mI3hhOwkJPGcgaWQ9Imdyb3VwMTM4Ni0xNyIgdHJhbnNmb3JtPSJ0cmFuc2xhdGUoMjEuNDQyNiwtNTYuODI5NykiPiYjeGE7CQkJPHRpdGxlIGlkPSJ0aXRsZTE2NjQyNiI+Q29udGFpbmVyc184XzwvdGl0bGU+JiN4YTsJCQk8ZyBpZD0ic2hhcGUxMzg3LTE4Ij4mI3hhOwkJCQk8dGl0bGUgaWQ9InRpdGxlMTY2NDI4Ij5TaGVldC4xMzg3PC90aXRsZT4mI3hhOwkJCQk8cGF0aCBpZD0icGF0aDE2NjQzMCIgaW5rc2NhcGU6Y29ubmVjdG9yLWN1cnZhdHVyZT0iMCIgc3R5bGU9ImZpbGw6IzAwQUNEMzsiIGQ9Ik02LjQ0LDkxLjQ5aDAuNjF2Ni40SDYuNDRWOTEuNDl6IE01LjI4LDkxLjQ5ICAgICAgaDAuNjN2Ni40SDUuMjhWOTEuNDl6IE00LjExLDkxLjQ5aDAuNjN2Ni40SDQuMTFWOTEuNDl6IE0yLjk1LDkxLjQ5aDAuNjN2Ni40SDIuOTVMMi45NSw5MS40OXogTTEuNzgsOTEuNDloMC42M3Y2LjRIMS43OCAgICAgIEwxLjc4LDkxLjQ5eiBNMC42NCw5MS40OWgwLjYxdjYuNEgwLjY0TDAuNjQsOTEuNDl6IE0wLDkwLjg1aDcuNjl2Ny42OUgwVjkwLjg1eiIvPiYjeGE7CQkJPC9nPiYjeGE7CQkJPGcgaWQ9InNoYXBlMTM4OC0yMCIgdHJhbnNmb3JtPSJ0cmFuc2xhdGUoOC44NzE5LC04Ljg3MzE3KSI+JiN4YTsJCQkJPHRpdGxlIGlkPSJ0aXRsZTE2NjQzMyI+U2hlZXQuMTM4ODwvdGl0bGU+JiN4YTsJCQkJPHBhdGggaWQ9InBhdGgxNjY0MzUiIGlua3NjYXBlOmNvbm5lY3Rvci1jdXJ2YXR1cmU9IjAiIHN0eWxlPSJmaWxsOiMwMEFDRDM7IiBkPSJNNi40NCw5MS40OWgwLjYxdjYuNDFINi40NFY5MS40OXogICAgICAgTTUuMjgsOTEuNDloMC42M3Y2LjQxSDUuMjhWOTEuNDl6IE00LjExLDkxLjQ5aDAuNjN2Ni40MUg0LjExVjkxLjQ5eiBNMi45NSw5MS40OWgwLjYzdjYuNDFIMi45NUwyLjk1LDkxLjQ5eiBNMS43OCw5MS40OSAgICAgIGgwLjYzdjYuNDFIMS43OEwxLjc4LDkxLjQ5eiBNMC42NCw5MS40OWgwLjYxdjYuNDFIMC42NEwwLjY0LDkxLjQ5eiBNMCw5MC44NWg3LjY5djcuNjlIMFY5MC44NXoiLz4mI3hhOwkJCTwvZz4mI3hhOwkJCTxnIGlkPSJzaGFwZTEzODktMjIiIHRyYW5zZm9ybT0idHJhbnNsYXRlKDguODcxOSkiPiYjeGE7CQkJCTx0aXRsZSBpZD0idGl0bGUxNjY0MzgiPlNoZWV0LjEzODk8L3RpdGxlPiYjeGE7CQkJCTxwYXRoIGlkPSJwYXRoMTY2NDQwIiBpbmtzY2FwZTpjb25uZWN0b3ItY3VydmF0dXJlPSIwIiBzdHlsZT0iZmlsbDojMjBDMkVGOyIgZD0iTTYuNDQsOTEuNDloMC42MXY2LjRINi40NFY5MS40OXogTTUuMjgsOTEuNDkgICAgICBoMC42M3Y2LjRINS4yOFY5MS40OXogTTQuMTEsOTEuNDloMC42M3Y2LjRINC4xMVY5MS40OXogTTIuOTUsOTEuNDloMC42M3Y2LjRIMi45NUwyLjk1LDkxLjQ5eiBNMS43OCw5MS40OWgwLjYzdjYuNEgxLjc4ICAgICAgTDEuNzgsOTEuNDl6IE0wLjY0LDkxLjQ5aDAuNjF2Ni40SDAuNjRMMC42NCw5MS40OXogTTAsOTAuODVoNy42OXY3LjY5SDBWOTAuODV6Ii8+JiN4YTsJCQk8L2c+JiN4YTsJCQk8ZyBpZD0ic2hhcGUxMzkwLTI0IiB0cmFuc2Zvcm09InRyYW5zbGF0ZSgxNy43NDYzKSI+JiN4YTsJCQkJPHRpdGxlIGlkPSJ0aXRsZTE2NjQ0MyI+U2hlZXQuMTM5MDwvdGl0bGU+JiN4YTsJCQkJPHBhdGggaWQ9InBhdGgxNjY0NDUiIGlua3NjYXBlOmNvbm5lY3Rvci1jdXJ2YXR1cmU9IjAiIHN0eWxlPSJmaWxsOiMwMEFDRDM7IiBkPSJNNi40NCw5MS40OWgwLjYxdjYuNEg2LjQ0VjkxLjQ5eiBNNS4yOCw5MS40OSAgICAgIGgwLjYzdjYuNEg1LjI4VjkxLjQ5eiBNNC4xMSw5MS40OWgwLjYzdjYuNEg0LjExVjkxLjQ5eiBNMi45NSw5MS40OWgwLjYzdjYuNEgyLjk1TDIuOTUsOTEuNDl6IE0xLjc4LDkxLjQ5aDAuNjN2Ni40SDEuNzggICAgICBMMS43OCw5MS40OXogTTAuNjQsOTEuNDloMC42MXY2LjRIMC42NEwwLjY0LDkxLjQ5eiBNMCw5MC44NWg3LjY5djcuNjlIMFY5MC44NXoiLz4mI3hhOwkJCTwvZz4mI3hhOwkJCTxnIGlkPSJzaGFwZTEzOTEtMjYiIHRyYW5zZm9ybT0idHJhbnNsYXRlKDE3Ljc0NjMsLTguODczMTcpIj4mI3hhOwkJCQk8dGl0bGUgaWQ9InRpdGxlMTY2NDQ4Ij5TaGVldC4xMzkxPC90aXRsZT4mI3hhOwkJCQk8cGF0aCBpZD0icGF0aDE2NjQ1MCIgaW5rc2NhcGU6Y29ubmVjdG9yLWN1cnZhdHVyZT0iMCIgc3R5bGU9ImZpbGw6IzIwQzJFRjsiIGQ9Ik02LjQ0LDkxLjQ5aDAuNjF2Ni40MUg2LjQ0VjkxLjQ5eiAgICAgICBNNS4yOCw5MS40OWgwLjYzdjYuNDFINS4yOFY5MS40OXogTTQuMTEsOTEuNDloMC42M3Y2LjQxSDQuMTFWOTEuNDl6IE0yLjk1LDkxLjQ5aDAuNjN2Ni40MUgyLjk1TDIuOTUsOTEuNDl6IE0xLjc4LDkxLjQ5ICAgICAgaDAuNjN2Ni40MUgxLjc4TDEuNzgsOTEuNDl6IE0wLjY0LDkxLjQ5aDAuNjF2Ni40MUgwLjY0TDAuNjQsOTEuNDl6IE0wLDkwLjg1aDcuNjl2Ny42OUgwVjkwLjg1eiIvPiYjeGE7CQkJPC9nPiYjeGE7CQkJPGcgaWQ9InNoYXBlMTM5Mi0yOCIgdHJhbnNmb3JtPSJ0cmFuc2xhdGUoMjYuNjE4MikiPiYjeGE7CQkJCTx0aXRsZSBpZD0idGl0bGUxNjY0NTMiPlNoZWV0LjEzOTI8L3RpdGxlPiYjeGE7CQkJCTxwYXRoIGlkPSJwYXRoMTY2NDU1IiBpbmtzY2FwZTpjb25uZWN0b3ItY3VydmF0dXJlPSIwIiBzdHlsZT0iZmlsbDojMjBDMkVGOyIgZD0iTTYuNDQsOTEuNDloMC42MXY2LjRINi40NFY5MS40OXogTTUuMjgsOTEuNDkgICAgICBoMC42M3Y2LjRINS4yOFY5MS40OXogTTQuMTEsOTEuNDloMC42M3Y2LjRINC4xMVY5MS40OXogTTIuOTUsOTEuNDloMC42M3Y2LjRIMi45NUwyLjk1LDkxLjQ5eiBNMS43OCw5MS40OWgwLjYzdjYuNEgxLjc4ICAgICAgTDEuNzgsOTEuNDl6IE0wLjY0LDkxLjQ5aDAuNjF2Ni40SDAuNjRMMC42NCw5MS40OXogTTAsOTAuODVoNy42OXY3LjY5SDBWOTAuODV6Ii8+JiN4YTsJCQk8L2c+JiN4YTsJCQk8ZyBpZD0ic2hhcGUxMzkzLTMwIiB0cmFuc2Zvcm09InRyYW5zbGF0ZSgyNi42MTgyLC04Ljg3MzE3KSI+JiN4YTsJCQkJPHRpdGxlIGlkPSJ0aXRsZTE2NjQ1OCI+U2hlZXQuMTM5MzwvdGl0bGU+JiN4YTsJCQkJPHBhdGggaWQ9InBhdGgxNjY0NjAiIGlua3NjYXBlOmNvbm5lY3Rvci1jdXJ2YXR1cmU9IjAiIHN0eWxlPSJmaWxsOiMwMEFDRDM7IiBkPSJNNi40NCw5MS40OWgwLjYxdjYuNDFINi40NFY5MS40OXogICAgICAgTTUuMjgsOTEuNDloMC42M3Y2LjQxSDUuMjhWOTEuNDl6IE00LjExLDkxLjQ5aDAuNjN2Ni40MUg0LjExVjkxLjQ5eiBNMi45NSw5MS40OWgwLjYzdjYuNDFIMi45NUwyLjk1LDkxLjQ5eiBNMS43OCw5MS40OSAgICAgIGgwLjYzdjYuNDFIMS43OEwxLjc4LDkxLjQ5eiBNMC42NCw5MS40OWgwLjYxdjYuNDFIMC42NEwwLjY0LDkxLjQ5eiBNMCw5MC44NWg3LjY5djcuNjlIMFY5MC44NXoiLz4mI3hhOwkJCTwvZz4mI3hhOwkJCTxnIGlkPSJzaGFwZTEzOTQtMzIiIHRyYW5zZm9ybT0idHJhbnNsYXRlKDI2LjYxODIsLTE3Ljc0NjMpIj4mI3hhOwkJCQk8dGl0bGUgaWQ9InRpdGxlMTY2NDYzIj5TaGVldC4xMzk0PC90aXRsZT4mI3hhOwkJCQk8cGF0aCBpZD0icGF0aDE2NjQ2NSIgaW5rc2NhcGU6Y29ubmVjdG9yLWN1cnZhdHVyZT0iMCIgc3R5bGU9ImZpbGw6IzIwQzJFRjsiIGQ9Ik02LjQ0LDkxLjQ5aDAuNjF2Ni40MUg2LjQ0VjkxLjQ5eiAgICAgICBNNS4yOCw5MS40OWgwLjYzdjYuNDFINS4yOFY5MS40OXogTTQuMTEsOTEuNDloMC42M3Y2LjQxSDQuMTFWOTEuNDl6IE0yLjk1LDkxLjQ5aDAuNjN2Ni40MUgyLjk1TDIuOTUsOTEuNDl6IE0xLjc4LDkxLjQ5ICAgICAgaDAuNjN2Ni40MUgxLjc4TDEuNzgsOTEuNDl6IE0wLjY0LDkxLjQ5aDAuNjF2Ni40MUgwLjY0TDAuNjQsOTEuNDl6IE0wLDkwLjg1aDcuNjl2Ny42OUgwVjkwLjg1eiIvPiYjeGE7CQkJPC9nPiYjeGE7CQkJPGcgaWQ9InNoYXBlMTM5NS0zNCIgdHJhbnNmb3JtPSJ0cmFuc2xhdGUoMzUuNDkxNCkiPiYjeGE7CQkJCTx0aXRsZSBpZD0idGl0bGUxNjY0NjgiPlNoZWV0LjEzOTU8L3RpdGxlPiYjeGE7CQkJCTxwYXRoIGlkPSJwYXRoMTY2NDcwIiBpbmtzY2FwZTpjb25uZWN0b3ItY3VydmF0dXJlPSIwIiBzdHlsZT0iZmlsbDojMDBBQ0QzOyIgZD0iTTYuNDQsOTEuNDloMC42MXY2LjRINi40NFY5MS40OXogTTUuMjgsOTEuNDkgICAgICBoMC42M3Y2LjRINS4yOFY5MS40OXogTTQuMTEsOTEuNDloMC42M3Y2LjRINC4xMVY5MS40OXogTTIuOTUsOTEuNDloMC42M3Y2LjRIMi45NUwyLjk1LDkxLjQ5eiBNMS43OCw5MS40OWgwLjYzdjYuNEgxLjc4ICAgICAgTDEuNzgsOTEuNDl6IE0wLjY0LDkxLjQ5aDAuNjF2Ni40SDAuNjRMMC42NCw5MS40OXogTTAsOTAuODVoNy42OXY3LjY5SDBWOTAuODV6Ii8+JiN4YTsJCQk8L2c+JiN4YTsJCTwvZz4mI3hhOwkJPGcgaWQ9InNoYXBlMTM5Ni0zNiIgdHJhbnNmb3JtPSJ0cmFuc2xhdGUoMzUuNDAyNCwtNDAuMTIpIj4mI3hhOwkJCTx0aXRsZSBpZD0idGl0bGUxNjY0NzQiPlNoZWV0LjEzOTY8L3RpdGxlPiYjeGE7CQkJPHBhdGggaWQ9InBhdGgxNjY0NzYiIGlua3NjYXBlOmNvbm5lY3Rvci1jdXJ2YXR1cmU9IjAiIHN0eWxlPSJmaWxsOiNENEVERjE7IiBkPSJNMi4xMiw5NC4yOWMxLjE3LDAsMi4xMiwwLjk1LDIuMTIsMi4xMiAgICAgYzAsMS4xOC0wLjk1LDIuMTMtMi4xMiwyLjEzUzAsOTcuNTksMCw5Ni40MUMwLDk1LjI0LDAuOTUsOTQuMjksMi4xMiw5NC4yOXoiLz4mI3hhOwkJPC9nPiYjeGE7CQk8ZyBpZD0ic2hhcGUxMzk3LTM4IiB0cmFuc2Zvcm09InRyYW5zbGF0ZSgzNi4wMDQsLTQwLjcyMykiPiYjeGE7CQkJPHRpdGxlIGlkPSJ0aXRsZTE2NjQ3OSI+U2hlZXQuMTM5NzwvdGl0bGU+JiN4YTsJCQk8cGF0aCBpZD0icGF0aDE2NjQ4MSIgaW5rc2NhcGU6Y29ubmVjdG9yLWN1cnZhdHVyZT0iMCIgc3R5bGU9ImZpbGw6IzM5NEQ1NDsiIGQ9Ik0xLjUyLDk1LjVjMC4xOSwwLDAuMzgsMC4wNCwwLjU1LDAuMSAgICAgYy0wLjE5LDAuMTEtMC4zMSwwLjMxLTAuMzEsMC41NGMwLDAuMzQsMC4yOCwwLjYyLDAuNjIsMC42MmMwLjIzLDAsMC40NC0wLjEzLDAuNTQtMC4zM2MwLjA4LDAuMTgsMC4xMiwwLjM4LDAuMTIsMC41OSAgICAgYzAsMC44NC0wLjY4LDEuNTItMS41MiwxLjUyQzAuNjgsOTguNTQsMCw5Ny44NiwwLDk3LjAyUzAuNjgsOTUuNSwxLjUyLDk1LjV6Ii8+JiN4YTsJCTwvZz4mI3hhOwkJPGcgaWQ9InNoYXBlMTM5OC00MCIgdHJhbnNmb3JtPSJ0cmFuc2xhdGUoMCwtNDguMDcyMykiPiYjeGE7CQkJPHRpdGxlIGlkPSJ0aXRsZTE2NjQ4NCI+U2hlZXQuMTM5ODwvdGl0bGU+JiN4YTsJCQk8cGF0aCBpZD0icGF0aDE2NjQ4NiIgaW5rc2NhcGU6Y29ubmVjdG9yLWN1cnZhdHVyZT0iMCIgc3R5bGU9ImZpbGw6IzM5NEQ1NDsiIGQ9Ik0wLDk3Ljg1aDQ2LjQ3aDUuNzVoNDYuNDcgICAgIGMtMi4xNS0wLjU1LTYuOC0xLjI4LTYuMDMtNC4xYy0zLjkxLDQuNTItMTMuMzMsMy4xNy0xNS43MSwwLjk0Yy0yLjY1LDMuODUtMTguMDcsMi4zOS0xOS4xNC0wLjYxYy0zLjMyLDMuOS0xMy42MSwzLjktMTYuOTMsMCAgICAgYy0xLjA4LDIuOTktMTYuNDksNC40NS0xOS4xNCwwLjYxYy0yLjM4LDIuMjMtMTEuOCwzLjU4LTE1LjcxLTAuOTRDNi44LDk2LjU3LDIuMTUsOTcuMywwLDk3Ljg1eiIvPiYjeGE7CQk8L2c+JiN4YTsJCTxnIGlkPSJzaGFwZTEzOTktNDIiIHRyYW5zZm9ybT0idHJhbnNsYXRlKDE5LjAyODUsLTI5LjAyODYpIj4mI3hhOwkJCTx0aXRsZSBpZD0idGl0bGUxNjY0ODkiPlNoZWV0LjEzOTk8L3RpdGxlPiYjeGE7CQkJPHBhdGggaWQ9InBhdGgxNjY0OTEiIGlua3NjYXBlOmNvbm5lY3Rvci1jdXJ2YXR1cmU9IjAiIHN0eWxlPSJmaWxsOiNCRkRCRTA7IiBkPSJNMjQuMTQsOTguNDlDMTguODgsOTYsMTYsOTIuNjEsMTQuMzksODguOTEgICAgIGMtMS45NSwwLjU1LTQuMjksMC45MS03LjAyLDEuMDZjLTEuMDMsMC4wNi0yLjExLDAuMDktMy4yNCwwLjA5Yy0xLjMxLDAtMi42OS0wLjA0LTQuMTMtMC4xMmM0LjgyLDQuODIsMTAuNzUsOC41MywyMS43Miw4LjU5ICAgICBDMjIuNTMsOTguNTQsMjMuMzQsOTguNTIsMjQuMTQsOTguNDl6Ii8+JiN4YTsJCTwvZz4mI3hhOwkJPGcgaWQ9InNoYXBlMTQwMC00NCIgdHJhbnNmb3JtPSJ0cmFuc2xhdGUoMjYuMzk4MiwtMzUuMjQzNCkiPiYjeGE7CQkJPHRpdGxlIGlkPSJ0aXRsZTE2NjQ5NCI+U2hlZXQuMTQwMDwvdGl0bGU+JiN4YTsJCQk8cGF0aCBpZD0icGF0aDE2NjQ5NiIgaW5rc2NhcGU6Y29ubmVjdG9yLWN1cnZhdHVyZT0iMCIgc3R5bGU9ImZpbGw6I0Q0RURGMTsiIGQ9Ik04Ljk3LDk4LjU0Yy0wLjcyLTAuOTktMS40My0yLjIzLTEuOTQtMy40MiAgICAgYy0xLjk2LDAuNTYtNC4zLDAuOTItNy4wMywxLjA3QzEuODcsOTcuMjEsNC41NSw5OC4xNSw4Ljk3LDk4LjU0eiIvPiYjeGE7CQk8L2c+JiN4YTsJPC9nPiYjeGE7PC9nPiYjeGE7PC9zdmc+;" parent="1" vertex="1">
          <mxGeometry x="460" y="588.65" width="39" height="32.7" as="geometry" />
        </mxCell>
        <mxCell id="z_7tf-593rKs41fNWHXD-59" style="edgeStyle=orthogonalEdgeStyle;rounded=0;orthogonalLoop=1;jettySize=auto;html=1;" parent="1" source="z_7tf-593rKs41fNWHXD-46" target="z_7tf-593rKs41fNWHXD-20" edge="1">
          <mxGeometry relative="1" as="geometry" />
        </mxCell>
        <mxCell id="z_7tf-593rKs41fNWHXD-46" value="" style="shape=image;verticalLabelPosition=bottom;labelBackgroundColor=#ffffff;verticalAlign=top;aspect=fixed;imageAspect=0;image=data:image/svg+xml,PHN2ZyB4bWxuczpjYz0iaHR0cDovL2NyZWF0aXZlY29tbW9ucy5vcmcvbnMjIiB4bWxuczpkYz0iaHR0cDovL3B1cmwub3JnL2RjL2VsZW1lbnRzLzEuMS8iIHhtbG5zOmlua3NjYXBlPSJodHRwOi8vd3d3Lmlua3NjYXBlLm9yZy9uYW1lc3BhY2VzL2lua3NjYXBlIiB4bWxuczpyZGY9Imh0dHA6Ly93d3cudzMub3JnLzE5OTkvMDIvMjItcmRmLXN5bnRheC1ucyMiIHhtbG5zOnNvZGlwb2RpPSJodHRwOi8vc29kaXBvZGkuc291cmNlZm9yZ2UubmV0L0RURC9zb2RpcG9kaS0wLmR0ZCIgeG1sbnM6c3ZnPSJodHRwOi8vd3d3LnczLm9yZy8yMDAwL3N2ZyIgeG1sbnM9Imh0dHA6Ly93d3cudzMub3JnLzIwMDAvc3ZnIiB4bWxuczp4bGluaz0iaHR0cDovL3d3dy53My5vcmcvMTk5OS94bGluayIgdmVyc2lvbj0iMS4xIiBpZD0ic3ZnMTY2NTAyIiBpbmtzY2FwZTp2ZXJzaW9uPSIwLjkyLjMgKDI0MDU1NDYsIDIwMTgtMDMtMTEpIiBzb2RpcG9kaTpkb2NuYW1lPSJkb2NrZXJfdG9vbHMuc3ZnIiB4PSIwcHgiIHk9IjBweCIgdmlld0JveD0iMCAwIDk5LjIyIDgzLjI0IiBzdHlsZT0iZW5hYmxlLWJhY2tncm91bmQ6bmV3IDAgMCA5OS4yMiA4My4yNDsiIHhtbDpzcGFjZT0icHJlc2VydmUiPiYjeGE7PHNvZGlwb2RpOm5hbWVkdmlldyBib3JkZXJjb2xvcj0iIzY2NjY2NiIgYm9yZGVyb3BhY2l0eT0iMSIgZml0LW1hcmdpbi1ib3R0b209IjAiIGZpdC1tYXJnaW4tbGVmdD0iMCIgZml0LW1hcmdpbi1yaWdodD0iMCIgZml0LW1hcmdpbi10b3A9IjAiIGdyaWR0b2xlcmFuY2U9IjEwIiBndWlkZXRvbGVyYW5jZT0iMTAiIGlkPSJuYW1lZHZpZXcxNjY1MDQiIGlua3NjYXBlOmN1cnJlbnQtbGF5ZXI9InN2ZzE2NjUwMiIgaW5rc2NhcGU6Y3g9IjY2LjE0MTY1NiIgaW5rc2NhcGU6Y3k9IjU1LjQ5MzEwOCIgaW5rc2NhcGU6cGFnZW9wYWNpdHk9IjAiIGlua3NjYXBlOnBhZ2VzaGFkb3c9IjIiIGlua3NjYXBlOndpbmRvdy1oZWlnaHQ9IjEwMTciIGlua3NjYXBlOndpbmRvdy1tYXhpbWl6ZWQ9IjEiIGlua3NjYXBlOndpbmRvdy13aWR0aD0iMTkyMCIgaW5rc2NhcGU6d2luZG93LXg9Ii04IiBpbmtzY2FwZTp3aW5kb3cteT0iLTgiIGlua3NjYXBlOnpvb209IjYuNTk5MDg5OCIgb2JqZWN0dG9sZXJhbmNlPSIxMCIgcGFnZWNvbG9yPSIjZmZmZmZmIiBzaG93Z3JpZD0iZmFsc2UiPiYjeGE7CTwvc29kaXBvZGk6bmFtZWR2aWV3PiYjeGE7PGcgaWQ9ImcxNjY1MDAiIHRyYW5zZm9ybT0idHJhbnNsYXRlKC03LjY1LC03LjY0OTMyOSkiPiYjeGE7CTx0aXRsZSBpZD0idGl0bGUxNjYzODQiPlBhZ2UtMTwvdGl0bGU+JiN4YTsJPGcgaWQ9Imdyb3VwMTM3Ny0xIiB0cmFuc2Zvcm09InRyYW5zbGF0ZSg3LjY1LC03LjE0MTc0KSI+JiN4YTsJCTx0aXRsZSBpZD0idGl0bGUxNjYzODYiPkRvY2tlciBUb29sczwvdGl0bGU+JiN4YTsJCTxnIGlkPSJzaGFwZTEzNzgtMiIgdHJhbnNmb3JtPSJ0cmFuc2xhdGUoMC4wNjc0MTM3KSI+JiN4YTsJCQk8dGl0bGUgaWQ9InRpdGxlMTY2Mzg4Ij5kb2NrZXJfNF88L3RpdGxlPiYjeGE7CQkJPHBhdGggaWQ9InBhdGgxNjYzOTAiIGlua3NjYXBlOmNvbm5lY3Rvci1jdXJ2YXR1cmU9IjAiIHN0eWxlPSJmaWxsOiMzRjU3NjU7IiBkPSJNNzMuMzksOTIuNzljMi4yMy0xLjkxLDQuNDYtMy44Myw2LjY5LTUuNzUgICAgIGMwLjc2LTAuNjYsMS41OS0xLjM0LDIuMzUtMi4wM2MtMC42MS0wLjc2LTEuNjItMS4zMS0yLjQ4LTEuNjRjLTEuNzMtMC42Ni0zLjQ0LTAuNDQtNS4wMywwLjQ4Yy0yLjA5LDEuMi0yLjk3LDMuMTItMi44OSw1LjUgICAgIGMwLjAzLDAuOTQsMC4yOCwxLjg0LDAuNzgsMi42NEM3Mi45OCw5Mi4yNyw3My4xOCw5Mi41NCw3My4zOSw5Mi43OXogTTc1Ljk3LDk0LjZjMS4xLDAuMzgsMi4zNCwwLjMzLDMuNDcsMC4xNCAgICAgYzAuNTctMC4yNSwyLjA0LTAuODksMi41OC0wLjhsMC4wOCwwLjAyTDgyLjE4LDk0YzAuMzMsMC4xNiwwLjY0LDAuMzgsMC44MSwwLjcyYzAuNCwwLjc5LDAuMjEsMS41Ny0wLjU3LDIuMDJsLTAuMjUsMC4xNSAgICAgYy0yLjg1LDEuNjUtNS44OSwxLjQyLTguNzMtMC4xMmMtMS4zNi0wLjczLTIuNC0xLjgyLTMuMTctMy4xNmwtMC4xOC0wLjMxYy0xLjgzLTMuMTctMS41OC02LjUsMC40OC05LjUyICAgICBjMC43Mi0xLjA0LDEuNjUtMS44NSwyLjc0LTIuNDhsMC40MS0wLjIzYzIuNjktMS41NSw1LjU3LTEuNDUsOC4zMy0wLjA5YzEuNDgsMC43MywyLjY4LDEuODMsMy41MSwzLjI2bDAuMTUsMC4yNiAgICAgYzAuNiwxLjA0LTAuMTgsMS45NS0wLjk4LDIuNTdjLTAuOTQsMC43Mi0xLjg4LDEuNTktMi43OCwyLjM2Qzc5Ljk2LDkxLjE1LDc3Ljk3LDkyLjg4LDc1Ljk3LDk0LjZ6IE05Ny4zNCw4MC4xOGgwLjMgICAgIGMwLjksMCwxLjUxLDAuNjEsMS41MSwxLjVjMCwxLjI1LTEuMiwxLjU3LTIuMjIsMS41N2MtMS4zNiwwLTIuNjQsMC44MS0zLjU3LDEuNzNjLTEuMTcsMS4xNS0xLjY3LDIuNjEtMS42Nyw0LjIydjcuMjggICAgIGMwLDAuODMtMC41MiwxLjUxLTEuMzksMS41MWgtMC4yNGMtMC44NiwwLTEuMzgtMC42OC0xLjM4LTEuNTF2LTcuN2MwLTIuOTUsMS40NC01LjM2LDMuODQtNy4wNiAgICAgQzkzLjk1LDgwLjcxLDk1LjU5LDgwLjE4LDk3LjM0LDgwLjE4eiBNNTkuODcsODUuMzRjMS4xNi0xLjE3LDIuMzQtMi4zMywzLjUyLTMuNDhjMC4zMy0wLjMyLDEuNTgtMS42OCwyLjA4LTEuNjhINjZsMC4wNiwwLjAxICAgICBjMC42OSwwLjE0LDEuMiwwLjU4LDEuMiwxLjMxdjAuM2MwLDAuNS0wLjU5LDEuMDktMC45MSwxLjQzYy0wLjY5LDAuNzQtMS40MiwxLjQ0LTIuMTMsMi4xNmwtMy42MywzLjY5ICAgICBjMS41NywxLjU2LDMuMTMsMy4xMyw0LjY4LDQuNzFjMC40MywwLjQ0LDAuODYsMC44OCwxLjI4LDEuMzJjMC4xNSwwLjE2LDAuMzcsMC4zNSwwLjUsMC41N2MwLjEzLDAuMjEsMC4yMSwwLjQ0LDAuMjEsMC42OHYwLjMxICAgICBsLTAuMDEsMC4wN2MtMC4xNywwLjY5LTAuNjEsMS4yNC0xLjM3LDEuMjRoLTAuMjRjLTAuNSwwLTEuMDYtMC41Ni0xLjQtMC44OGMtMC43LTAuNjYtMS4zOC0xLjM2LTIuMDctMi4wM2wtMi4zMS0yLjI3djMuNjIgICAgIGMwLDAuODQtMC41MiwxLjUxLTEuMzgsMS41MWgtMC4yNGMtMC44NiwwLTEuMzgtMC42Ny0xLjM4LTEuNTFWNzYuMDFjMC0wLjgzLDAuNTItMS41LDEuMzgtMS41aDAuMjRjMC44NiwwLDEuMzgsMC42NywxLjM4LDEuNSAgICAgTDU5Ljg3LDg1LjM0TDU5Ljg3LDg1LjM0eiBNNTAuMTIsODMuMzFjLTAuNDYtMC4yMS0xLjMxLTAuMjktMS44LTAuM2MtMi41MS0wLjEtNC4zMywxLjMyLTUuNCwzLjUzICAgICBjLTAuMzYsMC43Ny0wLjUzLDEuNTgtMC41MywyLjQyYzAsMi41OCwxLjM1LDQuMzgsMy42NSw1LjQ4YzAuODQsMC40LDEuOTIsMC40OCwyLjg0LDAuNDhjMC44MSwwLDEuOTUtMC41LDIuNjYtMC44NGwwLjEzLTAuMDYgICAgIGgwLjU2bDAuMDYsMC4wMmMwLjY4LDAuMTQsMS4yLDAuNTcsMS4yLDEuMzF2MC4zYzAsMS44My0zLjM1LDIuMjUtNC42MywyLjM0Yy00LjUsMC4zMS03Ljg3LTIuMTctOS4xNS02LjQ2ICAgICBjLTAuMjMtMC43NS0wLjMzLTEuNDktMC4zMy0yLjI3di0wLjZjMC0zLjI2LDEuNjItNS44NCw0LjQyLTcuNWMxLjMtMC43NywyLjczLTEuMTYsNC4yNS0xLjE2aDAuNTljMS42LDAsMy4wOCwwLjQ1LDQuNCwxLjM2ICAgICBsMC4xMSwwLjA3bDAuMDcsMC4xMmMwLjE0LDAuMjMsMC4yNywwLjUxLDAuMjcsMC43OXYwLjNjMCwwLjc2LTAuNTgsMS4xOC0xLjI3LDEuMzFsLTAuMDYsMC4wMWgtMC4xOCAgICAgQzUxLjUzLDgzLjk2LDUwLjUyLDgzLjUsNTAuMTIsODMuMzF6IE0yMi43LDg5LjAyYzAsMi4yOSwxLjEyLDMuOTcsMy4wNSw1LjE1YzAuOTEsMC41NiwxLjksMC44MSwyLjk2LDAuODEgICAgIGMyLjI2LDAsMy45My0xLjE1LDUuMDktMy4wNWMwLjU2LTAuOTEsMC44MS0xLjkxLDAuODEtMi45N2MwLTIuMTItMS4wMy0zLjc1LTIuNzgtNC45MmMtMC45Ni0wLjY1LTIuMDItMC45Ny0zLjE4LTAuOTcgICAgIGMtMi41MiwwLTQuMzMsMS4yNy01LjQyLDMuNTNDMjIuODYsODcuMzYsMjIuNyw4OC4xOCwyMi43LDg5LjAyeiBNMjguMzUsODAuMDZoMC40MmMzLjQ5LDAsNi4xNCwxLjY5LDcuODEsNC43MyAgICAgYzAuNjgsMS4yMiwxLjAzLDIuNTQsMS4wMywzLjk0djAuNTljMCwzLjI2LTEuNiw1Ljg2LTQuNDEsNy41MWMtMS4zLDAuNzYtMi43NCwxLjE1LTQuMjUsMS4xNWgtMC42Yy0zLjI2LDAtNS44NS0xLjYxLTcuNS00LjQxICAgICBjLTAuNzctMS4zLTEuMTYtMi43NC0xLjE2LTQuMjV2LTAuNTljMC0zLjI3LDEuNjItNS44NSw0LjQxLTcuNTFDMjUuNDEsODAuNDUsMjYuODQsODAuMDYsMjguMzUsODAuMDZ6IE0zLjAxLDg5LjAyICAgICBjMCwyLjM2LDEuMTQsNC4xMywzLjIsNS4yNmMwLjg0LDAuNDUsMS43NCwwLjcsMi42OSwwLjdjMi4zMSwwLDQuMDMtMS4wOSw1LjIxLTMuMDVjMC41NS0wLjkxLDAuODEtMS45MSwwLjgxLTIuOTcgICAgIGMwLTIuMDQtMC45Ny0zLjYzLTIuNjItNC44MmMtMC45OS0wLjcxLTIuMTItMS4wNy0zLjM0LTEuMDdjLTIuNTIsMC00LjMzLDEuMjctNS40MiwzLjUzQzMuMTcsODcuMzYsMy4wMSw4OC4xOCwzLjAxLDg5LjAyeiAgICAgIE0xNC45Miw4Mi4zdi02LjM1YzAtMC44MywwLjUyLTEuNSwxLjM4LTEuNWgwLjI0YzAuODcsMCwxLjM4LDAuNjcsMS4zOCwxLjV2MTMuMzdjMCwzLjI2LTEuNjEsNS44NS00LjQxLDcuNTEgICAgIGMtMS4zLDAuNzYtMi43NCwxLjE2LTQuMjUsMS4xNmgtMC42Yy0zLjI2LDAtNS44NS0xLjYyLTcuNS00LjQyQzAuMzksOTIuMjcsMCw5MC44MywwLDg5LjMydi0wLjU5YzAtMy4yNiwxLjYxLTUuODYsNC40MS03LjUxICAgICBjMS4zMS0wLjc3LDIuNzQtMS4xNiw0LjI1LTEuMTZoMC42QzExLjQ3LDgwLjA2LDEzLjM0LDgwLjkxLDE0LjkyLDgyLjN6Ii8+JiN4YTsJCTwvZz4mI3hhOwkJPGcgaWQ9InNoYXBlMTM3OS00IiB0cmFuc2Zvcm09InRyYW5zbGF0ZSgxMS44MzQzLC0yNy41NDkzKSI+JiN4YTsJCQk8dGl0bGUgaWQ9InRpdGxlMTY2MzkzIj5vdXRsaW5lXzdfPC90aXRsZT4mI3hhOwkJCTxwYXRoIGlkPSJwYXRoMTY2Mzk1IiBpbmtzY2FwZTpjb25uZWN0b3ItY3VydmF0dXJlPSIwIiBzdHlsZT0iZmlsbDojMzk0RDU0OyIgZD0iTTQ1LjQsNjAuMDloOC44N3Y5LjA3aDQuNDkgICAgIGMyLjA3LDAsNC4yLTAuMzcsNi4xNi0xLjA0YzAuOTYtMC4zMiwyLjA1LTAuNzgsMy0xLjM1Yy0xLjI2LTEuNjQtMS44OS0zLjctMi4wOC01Ljc0Yy0wLjI2LTIuNzYsMC4zLTYuMzcsMi4xNy04LjUzbDAuOTQtMS4wOCAgICAgbDEuMTEsMC44OWMyLjgsMi4yNSw1LjE1LDUuMzksNS41Niw4Ljk3YzMuMzctMC45OSw3LjMzLTAuNzYsMTAuMywwLjk2bDEuMjIsMC43bC0wLjY0LDEuMjVjLTIuNTIsNC45MS03Ljc3LDYuNDItMTIuOSw2LjE1ICAgICBjLTcuNjgsMTkuMTQtMjQuNDEsMjguMi00NC42OCwyOC4yYy0xMC40OCwwLTIwLjA5LTMuOTItMjUuNTctMTMuMjJsLTAuMDktMC4xNWwtMC43OS0xLjYyQzAuNjIsNzkuNDYsMCw3NC45OCwwLjQyLDcwLjUgICAgIGwwLjEyLTEuMzRoNy41OXYtOS4wN0gxN3YtOC44OGgxNy43NXYtOC44N2gxMC42NHYxNy43NUg0NS40eiIvPiYjeGE7CQk8L2c+JiN4YTsJCTxnIGlkPSJncm91cDEzODAtNiIgdHJhbnNmb3JtPSJ0cmFuc2xhdGUoMTMuMjcwMywtMjkuMDI4NikiPiYjeGE7CQkJPHRpdGxlIGlkPSJ0aXRsZTE2NjM5OCI+Ym9keV9jb2xvcnNfOF88L3RpdGxlPiYjeGE7CQkJPGcgaWQ9InNoYXBlMTM4MS03Ij4mI3hhOwkJCQk8dGl0bGUgaWQ9InRpdGxlMTY2NDAwIj5TaGVldC4xMzgxPC90aXRsZT4mI3hhOwkJCQk8cGF0aCBpZD0icGF0aDE2NjQwMiIgaW5rc2NhcGU6Y29ubmVjdG9yLWN1cnZhdHVyZT0iMCIgc3R5bGU9ImZpbGw6IzAwQUFEQTsiIGQ9Ik03Mi43MSw2NC45MmMwLjU5LTQuNjItMi44Ny04LjI1LTUuMDItOS45OCAgICAgIGMtMi40NywyLjg2LTIuODUsMTAuMzUsMS4wMywxMy41MWMtMi4xNywxLjkyLTYuNzMsMy42Ni0xMS40LDMuNjZIMC40NUMwLDc2Ljk5LDAuODYsODEuNDgsMi44MSw4NS4zM2wwLjY1LDEuMTggICAgICBjMC40MSwwLjY5LDAuODYsMS4zNiwxLjM0LDIuMDFsMCwwYzIuMzQsMC4xNSw0LjQ5LDAuMiw2LjQ2LDAuMTZjMCwwLDAsMCwwLjAxLDBjMy44Ny0wLjA5LDcuMDMtMC41NCw5LjQzLTEuMzcgICAgICBjMC4zNi0wLjEzLDAuNzUsMC4wNiwwLjg3LDAuNDJjMC4xMiwwLjM1LTAuMDcsMC43NC0wLjQyLDAuODdjLTAuMzIsMC4xMS0wLjY1LDAuMjEtMSwwLjMxbDAsMGMtMS44OSwwLjU0LTMuOTEsMC45LTYuNTIsMS4wNiAgICAgIGMwLjE2LDAtMC4xNiwwLjAyLTAuMTYsMC4wMmMtMC4wOSwwLjAxLTAuMiwwLjAyLTAuMjksMC4wM2MtMS4wMywwLjA1LTIuMTQsMC4wNy0zLjI3LDAuMDdjLTEuMjQsMC0yLjQ2LTAuMDMtMy44My0wLjEgICAgICBsLTAuMDMsMC4wM2M0LjczLDUuMzIsMTIuMTQsOC41MiwyMS40Myw4LjUyYzE5LjY1LDAsMzYuMzItOC43Miw0My43LTI4LjI4YzUuMjQsMC41NCwxMC4yNy0wLjc5LDEyLjU2LTUuMjYgICAgICBDODAuMSw2Mi44OSw3NS40MSw2My41Niw3Mi43MSw2NC45MnoiLz4mI3hhOwkJCTwvZz4mI3hhOwkJCTxnIGlkPSJzaGFwZTEzODItOSIgdHJhbnNmb3JtPSJ0cmFuc2xhdGUoMy41ODk0NiwtNS4xNDc2MSkiPiYjeGE7CQkJCTx0aXRsZSBpZD0idGl0bGUxNjY0MDUiPlNoZWV0LjEzODI8L3RpdGxlPiYjeGE7CQkJCTxwYXRoIGlkPSJwYXRoMTY2NDA3IiBpbmtzY2FwZTpjb25uZWN0b3ItY3VydmF0dXJlPSIwIiBzdHlsZT0iZmlsbDojMjRCOEVCOyIgZD0iTTY5LjEyLDcwLjA3YzAuNTktNC42My0yLjg3LTguMjYtNS4wMS05Ljk4ICAgICAgYy0yLjQ4LDIuODYtMi44NiwxMC4zNSwxLjAyLDEzLjUxYy0yLjE3LDEuOTItNi43MywzLjY2LTExLjQsMy42NkgwLjIzQzAsODQuNzMsMi43Nyw5MC40LDcuNjcsOTMuODNjMCwwLDAsMCwwLjAxLDAgICAgICBjMy44Ny0wLjA5LDcuMDMtMC41NSw5LjQzLTEuMzhjMC4zNi0wLjEyLDAuNzUsMC4wNywwLjg3LDAuNDNjMC4xMiwwLjM1LTAuMDcsMC43NC0wLjQyLDAuODZjLTAuMzIsMC4xMi0wLjY1LDAuMjItMSwwLjMybDAsMCAgICAgIGMtMS44OSwwLjUzLTQuMDgsMC45NC02LjY5LDEuMTFjMCwwLTAuMDctMC4wNy0wLjA3LTAuMDZjNi42OSwzLjQzLDE2LjM5LDMuNDEsMjcuNTEtMC44NmMxMi40Ny00Ljc5LDI0LjA3LTEzLjkxLDMyLjE2LTI0LjM1ICAgICAgQzY5LjM1LDY5Ljk1LDY5LjIzLDcwLjAxLDY5LjEyLDcwLjA3eiIvPiYjeGE7CQkJPC9nPiYjeGE7CQkJPGcgaWQ9InNoYXBlMTM4My0xMSIgdHJhbnNmb3JtPSJ0cmFuc2xhdGUoMC41NjA5MzMpIj4mI3hhOwkJCQk8dGl0bGUgaWQ9InRpdGxlMTY2NDEwIj5TaGVldC4xMzgzPC90aXRsZT4mI3hhOwkJCQk8cGF0aCBpZD0icGF0aDE2NjQxMiIgaW5rc2NhcGU6Y29ubmVjdG9yLWN1cnZhdHVyZT0iMCIgc3R5bGU9ImZpbGw6IzAwOEJCODsiIGQ9Ik0wLDc4LjA0YzAuMzUsMi42MSwxLjEyLDUuMDYsMi4yNSw3LjI4ICAgICAgbDAuNjUsMS4xOWMwLjQxLDAuNjksMC44NSwxLjM2LDEuMzQsMi4wMWMyLjM0LDAuMTUsNC40OSwwLjIsNi40NiwwLjE2YzMuODgtMC4wOSw3LjA0LTAuNTQsOS40NC0xLjM4ICAgICAgYzAuMzYtMC4xMiwwLjc0LDAuMDcsMC44NywwLjQzYzAuMTIsMC4zNS0wLjA3LDAuNzQtMC40MiwwLjg3Yy0wLjMyLDAuMTEtMC42NiwwLjIxLTEsMC4zMWwwLDBjLTEuODksMC41NC00LjA3LDAuOTItNi42OCwxLjA4ICAgICAgQzEyLjgyLDkwLDEyLjY2LDkwLDEyLjU3LDkwLjAxYy0xLjAyLDAuMDUtMi4xMiwwLjA5LTMuMjYsMC4wOWMtMS4yNCwwLTIuNTEtMC4wMi0zLjg3LTAuMDljNC43NCw1LjMyLDEyLjE5LDguNTMsMjEuNDgsOC41MyAgICAgIGMxNi44MiwwLDMxLjQ2LTYuMzksMzkuOTYtMjAuNUwwLDc4LjA0eiIvPiYjeGE7CQkJPC9nPiYjeGE7CQkJPGcgaWQ9InNoYXBlMTM4NC0xMyIgdHJhbnNmb3JtPSJ0cmFuc2xhdGUoNC4zMzM1NiwtNS4xMTE5OSkiPiYjeGE7CQkJCTx0aXRsZSBpZD0idGl0bGUxNjY0MTUiPlNoZWV0LjEzODQ8L3RpdGxlPiYjeGE7CQkJCTxwYXRoIGlkPSJwYXRoMTY2NDE3IiBpbmtzY2FwZTpjb25uZWN0b3ItY3VydmF0dXJlPSIwIiBzdHlsZT0iZmlsbDojMDM5QkM2OyIgZD0iTTAsODMuMTVjMS4wMSw0LjU5LDMuNDIsOC4xOSw2LjkzLDEwLjY0ICAgICAgYzMuODgtMC4wOCw3LjA0LTAuNTQsOS40NC0xLjM3YzAuMzUtMC4xMywwLjc0LDAuMDYsMC44NywwLjQyYzAuMTIsMC4zNi0wLjA3LDAuNzQtMC40MywwLjg3Yy0wLjMyLDAuMTEtMC42NSwwLjIxLTAuOTksMC4zMSAgICAgIGwwLDBjLTEuODksMC41NC00LjEyLDAuOTItNi43MywxLjA5YzYuNjksMy40MywxNi4zNiwzLjM4LDI3LjQ3LTAuODljNi43My0yLjU5LDEzLjItNi40MywxOS4wMS0xMS4wN0wwLDgzLjE1eiIvPiYjeGE7CQkJPC9nPiYjeGE7CQk8L2c+JiN4YTsJCTxnIGlkPSJzaGFwZTEzODUtMTUiIHRyYW5zZm9ybT0idHJhbnNsYXRlKDE2Ljk1OSwtMzcuNTAzNikiPiYjeGE7CQkJPHRpdGxlIGlkPSJ0aXRsZTE2NjQyMSI+U2hlZXQuMTM4NTwvdGl0bGU+JiN4YTsJCQk8cGF0aCBpZD0icGF0aDE2NjQyMyIgaW5rc2NhcGU6Y29ubmVjdG9yLWN1cnZhdHVyZT0iMCIgc3R5bGU9ImZpbGw6IzM5NEQ1NDsiIGQ9Ik02LjIsOTguNTRjMS4xMywwLDIuMjEtMC4wMywzLjI0LTAuMDkgICAgIGMwLjA5LTAuMDEsMC4xNy0wLjAxLDAuMjYtMC4wMmMwLjAxLDAsMC4wMSwwLDAuMDEsMGMyLjYxLTAuMTYsNC44Ny0wLjUxLDYuNzUtMS4wNWwwLDBjMC4zNS0wLjA5LDAuNjgtMC4yLDEtMC4zMSAgICAgYzAuMzUtMC4xMiwwLjU0LTAuNTEsMC40Mi0wLjg3Yy0wLjEyLTAuMzUtMC41MS0wLjU0LTAuODctMC40MmMtMi40LDAuODMtNS41NiwxLjI5LTkuNDMsMS4zN2wwLDBjLTEuOTgsMC4wNS00LjEzLDAtNi40Ny0wLjE1ICAgICBsMCwwYy0wLjEyLTAuMDEtMC4yNC0wLjAyLTAuMzYtMC4wM2MtMC4zNy0wLjAyLTAuNywwLjI2LTAuNzIsMC42NGMtMC4wMywwLjM3LDAuMjUsMC43LDAuNjMsMC43MyAgICAgYzAuNDgsMC4wMywwLjk1LDAuMDYsMS40MSwwLjA4YzAuMDcsMCwwLjE0LDAuMDEsMC4yMiwwLjAxQzMuNjUsOTguNSw0Ljk2LDk4LjU0LDYuMiw5OC41NEw2LjIsOTguNTR6Ii8+JiN4YTsJCTwvZz4mI3hhOwkJPGcgaWQ9Imdyb3VwMTM4Ni0xNyIgdHJhbnNmb3JtPSJ0cmFuc2xhdGUoMjEuNDQyNiwtNTYuODI5NykiPiYjeGE7CQkJPHRpdGxlIGlkPSJ0aXRsZTE2NjQyNiI+Q29udGFpbmVyc184XzwvdGl0bGU+JiN4YTsJCQk8ZyBpZD0ic2hhcGUxMzg3LTE4Ij4mI3hhOwkJCQk8dGl0bGUgaWQ9InRpdGxlMTY2NDI4Ij5TaGVldC4xMzg3PC90aXRsZT4mI3hhOwkJCQk8cGF0aCBpZD0icGF0aDE2NjQzMCIgaW5rc2NhcGU6Y29ubmVjdG9yLWN1cnZhdHVyZT0iMCIgc3R5bGU9ImZpbGw6IzAwQUNEMzsiIGQ9Ik02LjQ0LDkxLjQ5aDAuNjF2Ni40SDYuNDRWOTEuNDl6IE01LjI4LDkxLjQ5ICAgICAgaDAuNjN2Ni40SDUuMjhWOTEuNDl6IE00LjExLDkxLjQ5aDAuNjN2Ni40SDQuMTFWOTEuNDl6IE0yLjk1LDkxLjQ5aDAuNjN2Ni40SDIuOTVMMi45NSw5MS40OXogTTEuNzgsOTEuNDloMC42M3Y2LjRIMS43OCAgICAgIEwxLjc4LDkxLjQ5eiBNMC42NCw5MS40OWgwLjYxdjYuNEgwLjY0TDAuNjQsOTEuNDl6IE0wLDkwLjg1aDcuNjl2Ny42OUgwVjkwLjg1eiIvPiYjeGE7CQkJPC9nPiYjeGE7CQkJPGcgaWQ9InNoYXBlMTM4OC0yMCIgdHJhbnNmb3JtPSJ0cmFuc2xhdGUoOC44NzE5LC04Ljg3MzE3KSI+JiN4YTsJCQkJPHRpdGxlIGlkPSJ0aXRsZTE2NjQzMyI+U2hlZXQuMTM4ODwvdGl0bGU+JiN4YTsJCQkJPHBhdGggaWQ9InBhdGgxNjY0MzUiIGlua3NjYXBlOmNvbm5lY3Rvci1jdXJ2YXR1cmU9IjAiIHN0eWxlPSJmaWxsOiMwMEFDRDM7IiBkPSJNNi40NCw5MS40OWgwLjYxdjYuNDFINi40NFY5MS40OXogICAgICAgTTUuMjgsOTEuNDloMC42M3Y2LjQxSDUuMjhWOTEuNDl6IE00LjExLDkxLjQ5aDAuNjN2Ni40MUg0LjExVjkxLjQ5eiBNMi45NSw5MS40OWgwLjYzdjYuNDFIMi45NUwyLjk1LDkxLjQ5eiBNMS43OCw5MS40OSAgICAgIGgwLjYzdjYuNDFIMS43OEwxLjc4LDkxLjQ5eiBNMC42NCw5MS40OWgwLjYxdjYuNDFIMC42NEwwLjY0LDkxLjQ5eiBNMCw5MC44NWg3LjY5djcuNjlIMFY5MC44NXoiLz4mI3hhOwkJCTwvZz4mI3hhOwkJCTxnIGlkPSJzaGFwZTEzODktMjIiIHRyYW5zZm9ybT0idHJhbnNsYXRlKDguODcxOSkiPiYjeGE7CQkJCTx0aXRsZSBpZD0idGl0bGUxNjY0MzgiPlNoZWV0LjEzODk8L3RpdGxlPiYjeGE7CQkJCTxwYXRoIGlkPSJwYXRoMTY2NDQwIiBpbmtzY2FwZTpjb25uZWN0b3ItY3VydmF0dXJlPSIwIiBzdHlsZT0iZmlsbDojMjBDMkVGOyIgZD0iTTYuNDQsOTEuNDloMC42MXY2LjRINi40NFY5MS40OXogTTUuMjgsOTEuNDkgICAgICBoMC42M3Y2LjRINS4yOFY5MS40OXogTTQuMTEsOTEuNDloMC42M3Y2LjRINC4xMVY5MS40OXogTTIuOTUsOTEuNDloMC42M3Y2LjRIMi45NUwyLjk1LDkxLjQ5eiBNMS43OCw5MS40OWgwLjYzdjYuNEgxLjc4ICAgICAgTDEuNzgsOTEuNDl6IE0wLjY0LDkxLjQ5aDAuNjF2Ni40SDAuNjRMMC42NCw5MS40OXogTTAsOTAuODVoNy42OXY3LjY5SDBWOTAuODV6Ii8+JiN4YTsJCQk8L2c+JiN4YTsJCQk8ZyBpZD0ic2hhcGUxMzkwLTI0IiB0cmFuc2Zvcm09InRyYW5zbGF0ZSgxNy43NDYzKSI+JiN4YTsJCQkJPHRpdGxlIGlkPSJ0aXRsZTE2NjQ0MyI+U2hlZXQuMTM5MDwvdGl0bGU+JiN4YTsJCQkJPHBhdGggaWQ9InBhdGgxNjY0NDUiIGlua3NjYXBlOmNvbm5lY3Rvci1jdXJ2YXR1cmU9IjAiIHN0eWxlPSJmaWxsOiMwMEFDRDM7IiBkPSJNNi40NCw5MS40OWgwLjYxdjYuNEg2LjQ0VjkxLjQ5eiBNNS4yOCw5MS40OSAgICAgIGgwLjYzdjYuNEg1LjI4VjkxLjQ5eiBNNC4xMSw5MS40OWgwLjYzdjYuNEg0LjExVjkxLjQ5eiBNMi45NSw5MS40OWgwLjYzdjYuNEgyLjk1TDIuOTUsOTEuNDl6IE0xLjc4LDkxLjQ5aDAuNjN2Ni40SDEuNzggICAgICBMMS43OCw5MS40OXogTTAuNjQsOTEuNDloMC42MXY2LjRIMC42NEwwLjY0LDkxLjQ5eiBNMCw5MC44NWg3LjY5djcuNjlIMFY5MC44NXoiLz4mI3hhOwkJCTwvZz4mI3hhOwkJCTxnIGlkPSJzaGFwZTEzOTEtMjYiIHRyYW5zZm9ybT0idHJhbnNsYXRlKDE3Ljc0NjMsLTguODczMTcpIj4mI3hhOwkJCQk8dGl0bGUgaWQ9InRpdGxlMTY2NDQ4Ij5TaGVldC4xMzkxPC90aXRsZT4mI3hhOwkJCQk8cGF0aCBpZD0icGF0aDE2NjQ1MCIgaW5rc2NhcGU6Y29ubmVjdG9yLWN1cnZhdHVyZT0iMCIgc3R5bGU9ImZpbGw6IzIwQzJFRjsiIGQ9Ik02LjQ0LDkxLjQ5aDAuNjF2Ni40MUg2LjQ0VjkxLjQ5eiAgICAgICBNNS4yOCw5MS40OWgwLjYzdjYuNDFINS4yOFY5MS40OXogTTQuMTEsOTEuNDloMC42M3Y2LjQxSDQuMTFWOTEuNDl6IE0yLjk1LDkxLjQ5aDAuNjN2Ni40MUgyLjk1TDIuOTUsOTEuNDl6IE0xLjc4LDkxLjQ5ICAgICAgaDAuNjN2Ni40MUgxLjc4TDEuNzgsOTEuNDl6IE0wLjY0LDkxLjQ5aDAuNjF2Ni40MUgwLjY0TDAuNjQsOTEuNDl6IE0wLDkwLjg1aDcuNjl2Ny42OUgwVjkwLjg1eiIvPiYjeGE7CQkJPC9nPiYjeGE7CQkJPGcgaWQ9InNoYXBlMTM5Mi0yOCIgdHJhbnNmb3JtPSJ0cmFuc2xhdGUoMjYuNjE4MikiPiYjeGE7CQkJCTx0aXRsZSBpZD0idGl0bGUxNjY0NTMiPlNoZWV0LjEzOTI8L3RpdGxlPiYjeGE7CQkJCTxwYXRoIGlkPSJwYXRoMTY2NDU1IiBpbmtzY2FwZTpjb25uZWN0b3ItY3VydmF0dXJlPSIwIiBzdHlsZT0iZmlsbDojMjBDMkVGOyIgZD0iTTYuNDQsOTEuNDloMC42MXY2LjRINi40NFY5MS40OXogTTUuMjgsOTEuNDkgICAgICBoMC42M3Y2LjRINS4yOFY5MS40OXogTTQuMTEsOTEuNDloMC42M3Y2LjRINC4xMVY5MS40OXogTTIuOTUsOTEuNDloMC42M3Y2LjRIMi45NUwyLjk1LDkxLjQ5eiBNMS43OCw5MS40OWgwLjYzdjYuNEgxLjc4ICAgICAgTDEuNzgsOTEuNDl6IE0wLjY0LDkxLjQ5aDAuNjF2Ni40SDAuNjRMMC42NCw5MS40OXogTTAsOTAuODVoNy42OXY3LjY5SDBWOTAuODV6Ii8+JiN4YTsJCQk8L2c+JiN4YTsJCQk8ZyBpZD0ic2hhcGUxMzkzLTMwIiB0cmFuc2Zvcm09InRyYW5zbGF0ZSgyNi42MTgyLC04Ljg3MzE3KSI+JiN4YTsJCQkJPHRpdGxlIGlkPSJ0aXRsZTE2NjQ1OCI+U2hlZXQuMTM5MzwvdGl0bGU+JiN4YTsJCQkJPHBhdGggaWQ9InBhdGgxNjY0NjAiIGlua3NjYXBlOmNvbm5lY3Rvci1jdXJ2YXR1cmU9IjAiIHN0eWxlPSJmaWxsOiMwMEFDRDM7IiBkPSJNNi40NCw5MS40OWgwLjYxdjYuNDFINi40NFY5MS40OXogICAgICAgTTUuMjgsOTEuNDloMC42M3Y2LjQxSDUuMjhWOTEuNDl6IE00LjExLDkxLjQ5aDAuNjN2Ni40MUg0LjExVjkxLjQ5eiBNMi45NSw5MS40OWgwLjYzdjYuNDFIMi45NUwyLjk1LDkxLjQ5eiBNMS43OCw5MS40OSAgICAgIGgwLjYzdjYuNDFIMS43OEwxLjc4LDkxLjQ5eiBNMC42NCw5MS40OWgwLjYxdjYuNDFIMC42NEwwLjY0LDkxLjQ5eiBNMCw5MC44NWg3LjY5djcuNjlIMFY5MC44NXoiLz4mI3hhOwkJCTwvZz4mI3hhOwkJCTxnIGlkPSJzaGFwZTEzOTQtMzIiIHRyYW5zZm9ybT0idHJhbnNsYXRlKDI2LjYxODIsLTE3Ljc0NjMpIj4mI3hhOwkJCQk8dGl0bGUgaWQ9InRpdGxlMTY2NDYzIj5TaGVldC4xMzk0PC90aXRsZT4mI3hhOwkJCQk8cGF0aCBpZD0icGF0aDE2NjQ2NSIgaW5rc2NhcGU6Y29ubmVjdG9yLWN1cnZhdHVyZT0iMCIgc3R5bGU9ImZpbGw6IzIwQzJFRjsiIGQ9Ik02LjQ0LDkxLjQ5aDAuNjF2Ni40MUg2LjQ0VjkxLjQ5eiAgICAgICBNNS4yOCw5MS40OWgwLjYzdjYuNDFINS4yOFY5MS40OXogTTQuMTEsOTEuNDloMC42M3Y2LjQxSDQuMTFWOTEuNDl6IE0yLjk1LDkxLjQ5aDAuNjN2Ni40MUgyLjk1TDIuOTUsOTEuNDl6IE0xLjc4LDkxLjQ5ICAgICAgaDAuNjN2Ni40MUgxLjc4TDEuNzgsOTEuNDl6IE0wLjY0LDkxLjQ5aDAuNjF2Ni40MUgwLjY0TDAuNjQsOTEuNDl6IE0wLDkwLjg1aDcuNjl2Ny42OUgwVjkwLjg1eiIvPiYjeGE7CQkJPC9nPiYjeGE7CQkJPGcgaWQ9InNoYXBlMTM5NS0zNCIgdHJhbnNmb3JtPSJ0cmFuc2xhdGUoMzUuNDkxNCkiPiYjeGE7CQkJCTx0aXRsZSBpZD0idGl0bGUxNjY0NjgiPlNoZWV0LjEzOTU8L3RpdGxlPiYjeGE7CQkJCTxwYXRoIGlkPSJwYXRoMTY2NDcwIiBpbmtzY2FwZTpjb25uZWN0b3ItY3VydmF0dXJlPSIwIiBzdHlsZT0iZmlsbDojMDBBQ0QzOyIgZD0iTTYuNDQsOTEuNDloMC42MXY2LjRINi40NFY5MS40OXogTTUuMjgsOTEuNDkgICAgICBoMC42M3Y2LjRINS4yOFY5MS40OXogTTQuMTEsOTEuNDloMC42M3Y2LjRINC4xMVY5MS40OXogTTIuOTUsOTEuNDloMC42M3Y2LjRIMi45NUwyLjk1LDkxLjQ5eiBNMS43OCw5MS40OWgwLjYzdjYuNEgxLjc4ICAgICAgTDEuNzgsOTEuNDl6IE0wLjY0LDkxLjQ5aDAuNjF2Ni40SDAuNjRMMC42NCw5MS40OXogTTAsOTAuODVoNy42OXY3LjY5SDBWOTAuODV6Ii8+JiN4YTsJCQk8L2c+JiN4YTsJCTwvZz4mI3hhOwkJPGcgaWQ9InNoYXBlMTM5Ni0zNiIgdHJhbnNmb3JtPSJ0cmFuc2xhdGUoMzUuNDAyNCwtNDAuMTIpIj4mI3hhOwkJCTx0aXRsZSBpZD0idGl0bGUxNjY0NzQiPlNoZWV0LjEzOTY8L3RpdGxlPiYjeGE7CQkJPHBhdGggaWQ9InBhdGgxNjY0NzYiIGlua3NjYXBlOmNvbm5lY3Rvci1jdXJ2YXR1cmU9IjAiIHN0eWxlPSJmaWxsOiNENEVERjE7IiBkPSJNMi4xMiw5NC4yOWMxLjE3LDAsMi4xMiwwLjk1LDIuMTIsMi4xMiAgICAgYzAsMS4xOC0wLjk1LDIuMTMtMi4xMiwyLjEzUzAsOTcuNTksMCw5Ni40MUMwLDk1LjI0LDAuOTUsOTQuMjksMi4xMiw5NC4yOXoiLz4mI3hhOwkJPC9nPiYjeGE7CQk8ZyBpZD0ic2hhcGUxMzk3LTM4IiB0cmFuc2Zvcm09InRyYW5zbGF0ZSgzNi4wMDQsLTQwLjcyMykiPiYjeGE7CQkJPHRpdGxlIGlkPSJ0aXRsZTE2NjQ3OSI+U2hlZXQuMTM5NzwvdGl0bGU+JiN4YTsJCQk8cGF0aCBpZD0icGF0aDE2NjQ4MSIgaW5rc2NhcGU6Y29ubmVjdG9yLWN1cnZhdHVyZT0iMCIgc3R5bGU9ImZpbGw6IzM5NEQ1NDsiIGQ9Ik0xLjUyLDk1LjVjMC4xOSwwLDAuMzgsMC4wNCwwLjU1LDAuMSAgICAgYy0wLjE5LDAuMTEtMC4zMSwwLjMxLTAuMzEsMC41NGMwLDAuMzQsMC4yOCwwLjYyLDAuNjIsMC42MmMwLjIzLDAsMC40NC0wLjEzLDAuNTQtMC4zM2MwLjA4LDAuMTgsMC4xMiwwLjM4LDAuMTIsMC41OSAgICAgYzAsMC44NC0wLjY4LDEuNTItMS41MiwxLjUyQzAuNjgsOTguNTQsMCw5Ny44NiwwLDk3LjAyUzAuNjgsOTUuNSwxLjUyLDk1LjV6Ii8+JiN4YTsJCTwvZz4mI3hhOwkJPGcgaWQ9InNoYXBlMTM5OC00MCIgdHJhbnNmb3JtPSJ0cmFuc2xhdGUoMCwtNDguMDcyMykiPiYjeGE7CQkJPHRpdGxlIGlkPSJ0aXRsZTE2NjQ4NCI+U2hlZXQuMTM5ODwvdGl0bGU+JiN4YTsJCQk8cGF0aCBpZD0icGF0aDE2NjQ4NiIgaW5rc2NhcGU6Y29ubmVjdG9yLWN1cnZhdHVyZT0iMCIgc3R5bGU9ImZpbGw6IzM5NEQ1NDsiIGQ9Ik0wLDk3Ljg1aDQ2LjQ3aDUuNzVoNDYuNDcgICAgIGMtMi4xNS0wLjU1LTYuOC0xLjI4LTYuMDMtNC4xYy0zLjkxLDQuNTItMTMuMzMsMy4xNy0xNS43MSwwLjk0Yy0yLjY1LDMuODUtMTguMDcsMi4zOS0xOS4xNC0wLjYxYy0zLjMyLDMuOS0xMy42MSwzLjktMTYuOTMsMCAgICAgYy0xLjA4LDIuOTktMTYuNDksNC40NS0xOS4xNCwwLjYxYy0yLjM4LDIuMjMtMTEuOCwzLjU4LTE1LjcxLTAuOTRDNi44LDk2LjU3LDIuMTUsOTcuMywwLDk3Ljg1eiIvPiYjeGE7CQk8L2c+JiN4YTsJCTxnIGlkPSJzaGFwZTEzOTktNDIiIHRyYW5zZm9ybT0idHJhbnNsYXRlKDE5LjAyODUsLTI5LjAyODYpIj4mI3hhOwkJCTx0aXRsZSBpZD0idGl0bGUxNjY0ODkiPlNoZWV0LjEzOTk8L3RpdGxlPiYjeGE7CQkJPHBhdGggaWQ9InBhdGgxNjY0OTEiIGlua3NjYXBlOmNvbm5lY3Rvci1jdXJ2YXR1cmU9IjAiIHN0eWxlPSJmaWxsOiNCRkRCRTA7IiBkPSJNMjQuMTQsOTguNDlDMTguODgsOTYsMTYsOTIuNjEsMTQuMzksODguOTEgICAgIGMtMS45NSwwLjU1LTQuMjksMC45MS03LjAyLDEuMDZjLTEuMDMsMC4wNi0yLjExLDAuMDktMy4yNCwwLjA5Yy0xLjMxLDAtMi42OS0wLjA0LTQuMTMtMC4xMmM0LjgyLDQuODIsMTAuNzUsOC41MywyMS43Miw4LjU5ICAgICBDMjIuNTMsOTguNTQsMjMuMzQsOTguNTIsMjQuMTQsOTguNDl6Ii8+JiN4YTsJCTwvZz4mI3hhOwkJPGcgaWQ9InNoYXBlMTQwMC00NCIgdHJhbnNmb3JtPSJ0cmFuc2xhdGUoMjYuMzk4MiwtMzUuMjQzNCkiPiYjeGE7CQkJPHRpdGxlIGlkPSJ0aXRsZTE2NjQ5NCI+U2hlZXQuMTQwMDwvdGl0bGU+JiN4YTsJCQk8cGF0aCBpZD0icGF0aDE2NjQ5NiIgaW5rc2NhcGU6Y29ubmVjdG9yLWN1cnZhdHVyZT0iMCIgc3R5bGU9ImZpbGw6I0Q0RURGMTsiIGQ9Ik04Ljk3LDk4LjU0Yy0wLjcyLTAuOTktMS40My0yLjIzLTEuOTQtMy40MiAgICAgYy0xLjk2LDAuNTYtNC4zLDAuOTItNy4wMywxLjA3QzEuODcsOTcuMjEsNC41NSw5OC4xNSw4Ljk3LDk4LjU0eiIvPiYjeGE7CQk8L2c+JiN4YTsJPC9nPiYjeGE7PC9nPiYjeGE7PC9zdmc+;" parent="1" vertex="1">
          <mxGeometry x="460" y="390.65000000000003" width="39" height="32.7" as="geometry" />
        </mxCell>
        <mxCell id="z_7tf-593rKs41fNWHXD-48" value="Subscription" style="text;html=1;align=center;verticalAlign=middle;resizable=0;points=[];autosize=1;strokeColor=none;fillColor=none;labelBackgroundColor=default;" parent="1" vertex="1">
          <mxGeometry x="511.25" y="240.00000000000003" width="90" height="30" as="geometry" />
        </mxCell>
        <mxCell id="z_7tf-593rKs41fNWHXD-49" value="Resource Group" style="text;html=1;align=center;verticalAlign=middle;resizable=0;points=[];autosize=1;labelBackgroundColor=default;" parent="1" vertex="1">
          <mxGeometry x="651.25" y="323.84000000000003" width="110" height="30" as="geometry" />
        </mxCell>
        <mxCell id="z_7tf-593rKs41fNWHXD-51" value="Vnet" style="text;html=1;align=center;verticalAlign=middle;resizable=0;points=[];autosize=1;strokeColor=none;fillColor=none;labelBackgroundColor=default;" parent="1" vertex="1">
          <mxGeometry x="263.52000000000004" y="730" width="50" height="30" as="geometry" />
        </mxCell>
        <mxCell id="_l90PH5LpGCPvIEXfJaW-1" value="" style="rounded=1;whiteSpace=wrap;html=1;fillColor=none;" vertex="1" parent="1">
          <mxGeometry x="251.25" y="289" width="437.51" height="501" as="geometry" />
        </mxCell>
        <mxCell id="z_7tf-593rKs41fNWHXD-53" style="edgeStyle=orthogonalEdgeStyle;rounded=0;orthogonalLoop=1;jettySize=auto;html=1;exitX=0.5;exitY=0;exitDx=0;exitDy=0;" parent="1" edge="1" source="z_7tf-593rKs41fNWHXD-3">
          <mxGeometry relative="1" as="geometry">
            <mxPoint x="150" y="340" as="sourcePoint" />
            <Array as="points">
              <mxPoint x="176" y="122" />
            </Array>
            <mxPoint x="240" y="122" as="targetPoint" />
          </mxGeometry>
        </mxCell>
        <mxCell id="_l90PH5LpGCPvIEXfJaW-2" value="Banco de Dados Oracle" style="text;html=1;align=center;verticalAlign=middle;resizable=0;points=[];autosize=1;strokeColor=none;fillColor=none;labelBackgroundColor=default;" vertex="1" parent="1">
          <mxGeometry x="301.25" y="100.00000000000003" width="150" height="30" as="geometry" />
        </mxCell>
        <mxCell id="_l90PH5LpGCPvIEXfJaW-6" value="" style="edgeStyle=orthogonalEdgeStyle;rounded=0;orthogonalLoop=1;jettySize=auto;html=1;" edge="1" parent="1" source="_l90PH5LpGCPvIEXfJaW-3" target="z_7tf-593rKs41fNWHXD-46">
          <mxGeometry relative="1" as="geometry" />
        </mxCell>
        <mxCell id="_l90PH5LpGCPvIEXfJaW-3" value="" style="image;sketch=0;aspect=fixed;html=1;points=[];align=center;fontSize=12;image=img/lib/mscae/VirtualMachineWindows.svg;" vertex="1" parent="1">
          <mxGeometry x="350.25" y="384" width="50" height="46" as="geometry" />
        </mxCell>
        <mxCell id="_l90PH5LpGCPvIEXfJaW-4" value="" style="shape=image;verticalLabelPosition=bottom;labelBackgroundColor=#ffffff;verticalAlign=top;aspect=fixed;imageAspect=0;image=data:image/svg+xml,PHN2ZyB4bWxuczpjYz0iaHR0cDovL2NyZWF0aXZlY29tbW9ucy5vcmcvbnMjIiB4bWxuczpkYz0iaHR0cDovL3B1cmwub3JnL2RjL2VsZW1lbnRzLzEuMS8iIHhtbG5zOmlua3NjYXBlPSJodHRwOi8vd3d3Lmlua3NjYXBlLm9yZy9uYW1lc3BhY2VzL2lua3NjYXBlIiB4bWxuczpyZGY9Imh0dHA6Ly93d3cudzMub3JnLzE5OTkvMDIvMjItcmRmLXN5bnRheC1ucyMiIHhtbG5zOnNvZGlwb2RpPSJodHRwOi8vc29kaXBvZGkuc291cmNlZm9yZ2UubmV0L0RURC9zb2RpcG9kaS0wLmR0ZCIgeG1sbnM6c3ZnPSJodHRwOi8vd3d3LnczLm9yZy8yMDAwL3N2ZyIgeG1sbnM9Imh0dHA6Ly93d3cudzMub3JnLzIwMDAvc3ZnIiB4bWxuczp4bGluaz0iaHR0cDovL3d3dy53My5vcmcvMTk5OS94bGluayIgdmVyc2lvbj0iMS4xIiBpZD0ic3ZnMTY2NTAyIiBpbmtzY2FwZTp2ZXJzaW9uPSIwLjkyLjMgKDI0MDU1NDYsIDIwMTgtMDMtMTEpIiBzb2RpcG9kaTpkb2NuYW1lPSJkb2NrZXJfdG9vbHMuc3ZnIiB4PSIwcHgiIHk9IjBweCIgdmlld0JveD0iMCAwIDk5LjIyIDgzLjI0IiBzdHlsZT0iZW5hYmxlLWJhY2tncm91bmQ6bmV3IDAgMCA5OS4yMiA4My4yNDsiIHhtbDpzcGFjZT0icHJlc2VydmUiPiYjeGE7PHNvZGlwb2RpOm5hbWVkdmlldyBib3JkZXJjb2xvcj0iIzY2NjY2NiIgYm9yZGVyb3BhY2l0eT0iMSIgZml0LW1hcmdpbi1ib3R0b209IjAiIGZpdC1tYXJnaW4tbGVmdD0iMCIgZml0LW1hcmdpbi1yaWdodD0iMCIgZml0LW1hcmdpbi10b3A9IjAiIGdyaWR0b2xlcmFuY2U9IjEwIiBndWlkZXRvbGVyYW5jZT0iMTAiIGlkPSJuYW1lZHZpZXcxNjY1MDQiIGlua3NjYXBlOmN1cnJlbnQtbGF5ZXI9InN2ZzE2NjUwMiIgaW5rc2NhcGU6Y3g9IjY2LjE0MTY1NiIgaW5rc2NhcGU6Y3k9IjU1LjQ5MzEwOCIgaW5rc2NhcGU6cGFnZW9wYWNpdHk9IjAiIGlua3NjYXBlOnBhZ2VzaGFkb3c9IjIiIGlua3NjYXBlOndpbmRvdy1oZWlnaHQ9IjEwMTciIGlua3NjYXBlOndpbmRvdy1tYXhpbWl6ZWQ9IjEiIGlua3NjYXBlOndpbmRvdy13aWR0aD0iMTkyMCIgaW5rc2NhcGU6d2luZG93LXg9Ii04IiBpbmtzY2FwZTp3aW5kb3cteT0iLTgiIGlua3NjYXBlOnpvb209IjYuNTk5MDg5OCIgb2JqZWN0dG9sZXJhbmNlPSIxMCIgcGFnZWNvbG9yPSIjZmZmZmZmIiBzaG93Z3JpZD0iZmFsc2UiPiYjeGE7CTwvc29kaXBvZGk6bmFtZWR2aWV3PiYjeGE7PGcgaWQ9ImcxNjY1MDAiIHRyYW5zZm9ybT0idHJhbnNsYXRlKC03LjY1LC03LjY0OTMyOSkiPiYjeGE7CTx0aXRsZSBpZD0idGl0bGUxNjYzODQiPlBhZ2UtMTwvdGl0bGU+JiN4YTsJPGcgaWQ9Imdyb3VwMTM3Ny0xIiB0cmFuc2Zvcm09InRyYW5zbGF0ZSg3LjY1LC03LjE0MTc0KSI+JiN4YTsJCTx0aXRsZSBpZD0idGl0bGUxNjYzODYiPkRvY2tlciBUb29sczwvdGl0bGU+JiN4YTsJCTxnIGlkPSJzaGFwZTEzNzgtMiIgdHJhbnNmb3JtPSJ0cmFuc2xhdGUoMC4wNjc0MTM3KSI+JiN4YTsJCQk8dGl0bGUgaWQ9InRpdGxlMTY2Mzg4Ij5kb2NrZXJfNF88L3RpdGxlPiYjeGE7CQkJPHBhdGggaWQ9InBhdGgxNjYzOTAiIGlua3NjYXBlOmNvbm5lY3Rvci1jdXJ2YXR1cmU9IjAiIHN0eWxlPSJmaWxsOiMzRjU3NjU7IiBkPSJNNzMuMzksOTIuNzljMi4yMy0xLjkxLDQuNDYtMy44Myw2LjY5LTUuNzUgICAgIGMwLjc2LTAuNjYsMS41OS0xLjM0LDIuMzUtMi4wM2MtMC42MS0wLjc2LTEuNjItMS4zMS0yLjQ4LTEuNjRjLTEuNzMtMC42Ni0zLjQ0LTAuNDQtNS4wMywwLjQ4Yy0yLjA5LDEuMi0yLjk3LDMuMTItMi44OSw1LjUgICAgIGMwLjAzLDAuOTQsMC4yOCwxLjg0LDAuNzgsMi42NEM3Mi45OCw5Mi4yNyw3My4xOCw5Mi41NCw3My4zOSw5Mi43OXogTTc1Ljk3LDk0LjZjMS4xLDAuMzgsMi4zNCwwLjMzLDMuNDcsMC4xNCAgICAgYzAuNTctMC4yNSwyLjA0LTAuODksMi41OC0wLjhsMC4wOCwwLjAyTDgyLjE4LDk0YzAuMzMsMC4xNiwwLjY0LDAuMzgsMC44MSwwLjcyYzAuNCwwLjc5LDAuMjEsMS41Ny0wLjU3LDIuMDJsLTAuMjUsMC4xNSAgICAgYy0yLjg1LDEuNjUtNS44OSwxLjQyLTguNzMtMC4xMmMtMS4zNi0wLjczLTIuNC0xLjgyLTMuMTctMy4xNmwtMC4xOC0wLjMxYy0xLjgzLTMuMTctMS41OC02LjUsMC40OC05LjUyICAgICBjMC43Mi0xLjA0LDEuNjUtMS44NSwyLjc0LTIuNDhsMC40MS0wLjIzYzIuNjktMS41NSw1LjU3LTEuNDUsOC4zMy0wLjA5YzEuNDgsMC43MywyLjY4LDEuODMsMy41MSwzLjI2bDAuMTUsMC4yNiAgICAgYzAuNiwxLjA0LTAuMTgsMS45NS0wLjk4LDIuNTdjLTAuOTQsMC43Mi0xLjg4LDEuNTktMi43OCwyLjM2Qzc5Ljk2LDkxLjE1LDc3Ljk3LDkyLjg4LDc1Ljk3LDk0LjZ6IE05Ny4zNCw4MC4xOGgwLjMgICAgIGMwLjksMCwxLjUxLDAuNjEsMS41MSwxLjVjMCwxLjI1LTEuMiwxLjU3LTIuMjIsMS41N2MtMS4zNiwwLTIuNjQsMC44MS0zLjU3LDEuNzNjLTEuMTcsMS4xNS0xLjY3LDIuNjEtMS42Nyw0LjIydjcuMjggICAgIGMwLDAuODMtMC41MiwxLjUxLTEuMzksMS41MWgtMC4yNGMtMC44NiwwLTEuMzgtMC42OC0xLjM4LTEuNTF2LTcuN2MwLTIuOTUsMS40NC01LjM2LDMuODQtNy4wNiAgICAgQzkzLjk1LDgwLjcxLDk1LjU5LDgwLjE4LDk3LjM0LDgwLjE4eiBNNTkuODcsODUuMzRjMS4xNi0xLjE3LDIuMzQtMi4zMywzLjUyLTMuNDhjMC4zMy0wLjMyLDEuNTgtMS42OCwyLjA4LTEuNjhINjZsMC4wNiwwLjAxICAgICBjMC42OSwwLjE0LDEuMiwwLjU4LDEuMiwxLjMxdjAuM2MwLDAuNS0wLjU5LDEuMDktMC45MSwxLjQzYy0wLjY5LDAuNzQtMS40MiwxLjQ0LTIuMTMsMi4xNmwtMy42MywzLjY5ICAgICBjMS41NywxLjU2LDMuMTMsMy4xMyw0LjY4LDQuNzFjMC40MywwLjQ0LDAuODYsMC44OCwxLjI4LDEuMzJjMC4xNSwwLjE2LDAuMzcsMC4zNSwwLjUsMC41N2MwLjEzLDAuMjEsMC4yMSwwLjQ0LDAuMjEsMC42OHYwLjMxICAgICBsLTAuMDEsMC4wN2MtMC4xNywwLjY5LTAuNjEsMS4yNC0xLjM3LDEuMjRoLTAuMjRjLTAuNSwwLTEuMDYtMC41Ni0xLjQtMC44OGMtMC43LTAuNjYtMS4zOC0xLjM2LTIuMDctMi4wM2wtMi4zMS0yLjI3djMuNjIgICAgIGMwLDAuODQtMC41MiwxLjUxLTEuMzgsMS41MWgtMC4yNGMtMC44NiwwLTEuMzgtMC42Ny0xLjM4LTEuNTFWNzYuMDFjMC0wLjgzLDAuNTItMS41LDEuMzgtMS41aDAuMjRjMC44NiwwLDEuMzgsMC42NywxLjM4LDEuNSAgICAgTDU5Ljg3LDg1LjM0TDU5Ljg3LDg1LjM0eiBNNTAuMTIsODMuMzFjLTAuNDYtMC4yMS0xLjMxLTAuMjktMS44LTAuM2MtMi41MS0wLjEtNC4zMywxLjMyLTUuNCwzLjUzICAgICBjLTAuMzYsMC43Ny0wLjUzLDEuNTgtMC41MywyLjQyYzAsMi41OCwxLjM1LDQuMzgsMy42NSw1LjQ4YzAuODQsMC40LDEuOTIsMC40OCwyLjg0LDAuNDhjMC44MSwwLDEuOTUtMC41LDIuNjYtMC44NGwwLjEzLTAuMDYgICAgIGgwLjU2bDAuMDYsMC4wMmMwLjY4LDAuMTQsMS4yLDAuNTcsMS4yLDEuMzF2MC4zYzAsMS44My0zLjM1LDIuMjUtNC42MywyLjM0Yy00LjUsMC4zMS03Ljg3LTIuMTctOS4xNS02LjQ2ICAgICBjLTAuMjMtMC43NS0wLjMzLTEuNDktMC4zMy0yLjI3di0wLjZjMC0zLjI2LDEuNjItNS44NCw0LjQyLTcuNWMxLjMtMC43NywyLjczLTEuMTYsNC4yNS0xLjE2aDAuNTljMS42LDAsMy4wOCwwLjQ1LDQuNCwxLjM2ICAgICBsMC4xMSwwLjA3bDAuMDcsMC4xMmMwLjE0LDAuMjMsMC4yNywwLjUxLDAuMjcsMC43OXYwLjNjMCwwLjc2LTAuNTgsMS4xOC0xLjI3LDEuMzFsLTAuMDYsMC4wMWgtMC4xOCAgICAgQzUxLjUzLDgzLjk2LDUwLjUyLDgzLjUsNTAuMTIsODMuMzF6IE0yMi43LDg5LjAyYzAsMi4yOSwxLjEyLDMuOTcsMy4wNSw1LjE1YzAuOTEsMC41NiwxLjksMC44MSwyLjk2LDAuODEgICAgIGMyLjI2LDAsMy45My0xLjE1LDUuMDktMy4wNWMwLjU2LTAuOTEsMC44MS0xLjkxLDAuODEtMi45N2MwLTIuMTItMS4wMy0zLjc1LTIuNzgtNC45MmMtMC45Ni0wLjY1LTIuMDItMC45Ny0zLjE4LTAuOTcgICAgIGMtMi41MiwwLTQuMzMsMS4yNy01LjQyLDMuNTNDMjIuODYsODcuMzYsMjIuNyw4OC4xOCwyMi43LDg5LjAyeiBNMjguMzUsODAuMDZoMC40MmMzLjQ5LDAsNi4xNCwxLjY5LDcuODEsNC43MyAgICAgYzAuNjgsMS4yMiwxLjAzLDIuNTQsMS4wMywzLjk0djAuNTljMCwzLjI2LTEuNiw1Ljg2LTQuNDEsNy41MWMtMS4zLDAuNzYtMi43NCwxLjE1LTQuMjUsMS4xNWgtMC42Yy0zLjI2LDAtNS44NS0xLjYxLTcuNS00LjQxICAgICBjLTAuNzctMS4zLTEuMTYtMi43NC0xLjE2LTQuMjV2LTAuNTljMC0zLjI3LDEuNjItNS44NSw0LjQxLTcuNTFDMjUuNDEsODAuNDUsMjYuODQsODAuMDYsMjguMzUsODAuMDZ6IE0zLjAxLDg5LjAyICAgICBjMCwyLjM2LDEuMTQsNC4xMywzLjIsNS4yNmMwLjg0LDAuNDUsMS43NCwwLjcsMi42OSwwLjdjMi4zMSwwLDQuMDMtMS4wOSw1LjIxLTMuMDVjMC41NS0wLjkxLDAuODEtMS45MSwwLjgxLTIuOTcgICAgIGMwLTIuMDQtMC45Ny0zLjYzLTIuNjItNC44MmMtMC45OS0wLjcxLTIuMTItMS4wNy0zLjM0LTEuMDdjLTIuNTIsMC00LjMzLDEuMjctNS40MiwzLjUzQzMuMTcsODcuMzYsMy4wMSw4OC4xOCwzLjAxLDg5LjAyeiAgICAgIE0xNC45Miw4Mi4zdi02LjM1YzAtMC44MywwLjUyLTEuNSwxLjM4LTEuNWgwLjI0YzAuODcsMCwxLjM4LDAuNjcsMS4zOCwxLjV2MTMuMzdjMCwzLjI2LTEuNjEsNS44NS00LjQxLDcuNTEgICAgIGMtMS4zLDAuNzYtMi43NCwxLjE2LTQuMjUsMS4xNmgtMC42Yy0zLjI2LDAtNS44NS0xLjYyLTcuNS00LjQyQzAuMzksOTIuMjcsMCw5MC44MywwLDg5LjMydi0wLjU5YzAtMy4yNiwxLjYxLTUuODYsNC40MS03LjUxICAgICBjMS4zMS0wLjc3LDIuNzQtMS4xNiw0LjI1LTEuMTZoMC42QzExLjQ3LDgwLjA2LDEzLjM0LDgwLjkxLDE0LjkyLDgyLjN6Ii8+JiN4YTsJCTwvZz4mI3hhOwkJPGcgaWQ9InNoYXBlMTM3OS00IiB0cmFuc2Zvcm09InRyYW5zbGF0ZSgxMS44MzQzLC0yNy41NDkzKSI+JiN4YTsJCQk8dGl0bGUgaWQ9InRpdGxlMTY2MzkzIj5vdXRsaW5lXzdfPC90aXRsZT4mI3hhOwkJCTxwYXRoIGlkPSJwYXRoMTY2Mzk1IiBpbmtzY2FwZTpjb25uZWN0b3ItY3VydmF0dXJlPSIwIiBzdHlsZT0iZmlsbDojMzk0RDU0OyIgZD0iTTQ1LjQsNjAuMDloOC44N3Y5LjA3aDQuNDkgICAgIGMyLjA3LDAsNC4yLTAuMzcsNi4xNi0xLjA0YzAuOTYtMC4zMiwyLjA1LTAuNzgsMy0xLjM1Yy0xLjI2LTEuNjQtMS44OS0zLjctMi4wOC01Ljc0Yy0wLjI2LTIuNzYsMC4zLTYuMzcsMi4xNy04LjUzbDAuOTQtMS4wOCAgICAgbDEuMTEsMC44OWMyLjgsMi4yNSw1LjE1LDUuMzksNS41Niw4Ljk3YzMuMzctMC45OSw3LjMzLTAuNzYsMTAuMywwLjk2bDEuMjIsMC43bC0wLjY0LDEuMjVjLTIuNTIsNC45MS03Ljc3LDYuNDItMTIuOSw2LjE1ICAgICBjLTcuNjgsMTkuMTQtMjQuNDEsMjguMi00NC42OCwyOC4yYy0xMC40OCwwLTIwLjA5LTMuOTItMjUuNTctMTMuMjJsLTAuMDktMC4xNWwtMC43OS0xLjYyQzAuNjIsNzkuNDYsMCw3NC45OCwwLjQyLDcwLjUgICAgIGwwLjEyLTEuMzRoNy41OXYtOS4wN0gxN3YtOC44OGgxNy43NXYtOC44N2gxMC42NHYxNy43NUg0NS40eiIvPiYjeGE7CQk8L2c+JiN4YTsJCTxnIGlkPSJncm91cDEzODAtNiIgdHJhbnNmb3JtPSJ0cmFuc2xhdGUoMTMuMjcwMywtMjkuMDI4NikiPiYjeGE7CQkJPHRpdGxlIGlkPSJ0aXRsZTE2NjM5OCI+Ym9keV9jb2xvcnNfOF88L3RpdGxlPiYjeGE7CQkJPGcgaWQ9InNoYXBlMTM4MS03Ij4mI3hhOwkJCQk8dGl0bGUgaWQ9InRpdGxlMTY2NDAwIj5TaGVldC4xMzgxPC90aXRsZT4mI3hhOwkJCQk8cGF0aCBpZD0icGF0aDE2NjQwMiIgaW5rc2NhcGU6Y29ubmVjdG9yLWN1cnZhdHVyZT0iMCIgc3R5bGU9ImZpbGw6IzAwQUFEQTsiIGQ9Ik03Mi43MSw2NC45MmMwLjU5LTQuNjItMi44Ny04LjI1LTUuMDItOS45OCAgICAgIGMtMi40NywyLjg2LTIuODUsMTAuMzUsMS4wMywxMy41MWMtMi4xNywxLjkyLTYuNzMsMy42Ni0xMS40LDMuNjZIMC40NUMwLDc2Ljk5LDAuODYsODEuNDgsMi44MSw4NS4zM2wwLjY1LDEuMTggICAgICBjMC40MSwwLjY5LDAuODYsMS4zNiwxLjM0LDIuMDFsMCwwYzIuMzQsMC4xNSw0LjQ5LDAuMiw2LjQ2LDAuMTZjMCwwLDAsMCwwLjAxLDBjMy44Ny0wLjA5LDcuMDMtMC41NCw5LjQzLTEuMzcgICAgICBjMC4zNi0wLjEzLDAuNzUsMC4wNiwwLjg3LDAuNDJjMC4xMiwwLjM1LTAuMDcsMC43NC0wLjQyLDAuODdjLTAuMzIsMC4xMS0wLjY1LDAuMjEtMSwwLjMxbDAsMGMtMS44OSwwLjU0LTMuOTEsMC45LTYuNTIsMS4wNiAgICAgIGMwLjE2LDAtMC4xNiwwLjAyLTAuMTYsMC4wMmMtMC4wOSwwLjAxLTAuMiwwLjAyLTAuMjksMC4wM2MtMS4wMywwLjA1LTIuMTQsMC4wNy0zLjI3LDAuMDdjLTEuMjQsMC0yLjQ2LTAuMDMtMy44My0wLjEgICAgICBsLTAuMDMsMC4wM2M0LjczLDUuMzIsMTIuMTQsOC41MiwyMS40Myw4LjUyYzE5LjY1LDAsMzYuMzItOC43Miw0My43LTI4LjI4YzUuMjQsMC41NCwxMC4yNy0wLjc5LDEyLjU2LTUuMjYgICAgICBDODAuMSw2Mi44OSw3NS40MSw2My41Niw3Mi43MSw2NC45MnoiLz4mI3hhOwkJCTwvZz4mI3hhOwkJCTxnIGlkPSJzaGFwZTEzODItOSIgdHJhbnNmb3JtPSJ0cmFuc2xhdGUoMy41ODk0NiwtNS4xNDc2MSkiPiYjeGE7CQkJCTx0aXRsZSBpZD0idGl0bGUxNjY0MDUiPlNoZWV0LjEzODI8L3RpdGxlPiYjeGE7CQkJCTxwYXRoIGlkPSJwYXRoMTY2NDA3IiBpbmtzY2FwZTpjb25uZWN0b3ItY3VydmF0dXJlPSIwIiBzdHlsZT0iZmlsbDojMjRCOEVCOyIgZD0iTTY5LjEyLDcwLjA3YzAuNTktNC42My0yLjg3LTguMjYtNS4wMS05Ljk4ICAgICAgYy0yLjQ4LDIuODYtMi44NiwxMC4zNSwxLjAyLDEzLjUxYy0yLjE3LDEuOTItNi43MywzLjY2LTExLjQsMy42NkgwLjIzQzAsODQuNzMsMi43Nyw5MC40LDcuNjcsOTMuODNjMCwwLDAsMCwwLjAxLDAgICAgICBjMy44Ny0wLjA5LDcuMDMtMC41NSw5LjQzLTEuMzhjMC4zNi0wLjEyLDAuNzUsMC4wNywwLjg3LDAuNDNjMC4xMiwwLjM1LTAuMDcsMC43NC0wLjQyLDAuODZjLTAuMzIsMC4xMi0wLjY1LDAuMjItMSwwLjMybDAsMCAgICAgIGMtMS44OSwwLjUzLTQuMDgsMC45NC02LjY5LDEuMTFjMCwwLTAuMDctMC4wNy0wLjA3LTAuMDZjNi42OSwzLjQzLDE2LjM5LDMuNDEsMjcuNTEtMC44NmMxMi40Ny00Ljc5LDI0LjA3LTEzLjkxLDMyLjE2LTI0LjM1ICAgICAgQzY5LjM1LDY5Ljk1LDY5LjIzLDcwLjAxLDY5LjEyLDcwLjA3eiIvPiYjeGE7CQkJPC9nPiYjeGE7CQkJPGcgaWQ9InNoYXBlMTM4My0xMSIgdHJhbnNmb3JtPSJ0cmFuc2xhdGUoMC41NjA5MzMpIj4mI3hhOwkJCQk8dGl0bGUgaWQ9InRpdGxlMTY2NDEwIj5TaGVldC4xMzgzPC90aXRsZT4mI3hhOwkJCQk8cGF0aCBpZD0icGF0aDE2NjQxMiIgaW5rc2NhcGU6Y29ubmVjdG9yLWN1cnZhdHVyZT0iMCIgc3R5bGU9ImZpbGw6IzAwOEJCODsiIGQ9Ik0wLDc4LjA0YzAuMzUsMi42MSwxLjEyLDUuMDYsMi4yNSw3LjI4ICAgICAgbDAuNjUsMS4xOWMwLjQxLDAuNjksMC44NSwxLjM2LDEuMzQsMi4wMWMyLjM0LDAuMTUsNC40OSwwLjIsNi40NiwwLjE2YzMuODgtMC4wOSw3LjA0LTAuNTQsOS40NC0xLjM4ICAgICAgYzAuMzYtMC4xMiwwLjc0LDAuMDcsMC44NywwLjQzYzAuMTIsMC4zNS0wLjA3LDAuNzQtMC40MiwwLjg3Yy0wLjMyLDAuMTEtMC42NiwwLjIxLTEsMC4zMWwwLDBjLTEuODksMC41NC00LjA3LDAuOTItNi42OCwxLjA4ICAgICAgQzEyLjgyLDkwLDEyLjY2LDkwLDEyLjU3LDkwLjAxYy0xLjAyLDAuMDUtMi4xMiwwLjA5LTMuMjYsMC4wOWMtMS4yNCwwLTIuNTEtMC4wMi0zLjg3LTAuMDljNC43NCw1LjMyLDEyLjE5LDguNTMsMjEuNDgsOC41MyAgICAgIGMxNi44MiwwLDMxLjQ2LTYuMzksMzkuOTYtMjAuNUwwLDc4LjA0eiIvPiYjeGE7CQkJPC9nPiYjeGE7CQkJPGcgaWQ9InNoYXBlMTM4NC0xMyIgdHJhbnNmb3JtPSJ0cmFuc2xhdGUoNC4zMzM1NiwtNS4xMTE5OSkiPiYjeGE7CQkJCTx0aXRsZSBpZD0idGl0bGUxNjY0MTUiPlNoZWV0LjEzODQ8L3RpdGxlPiYjeGE7CQkJCTxwYXRoIGlkPSJwYXRoMTY2NDE3IiBpbmtzY2FwZTpjb25uZWN0b3ItY3VydmF0dXJlPSIwIiBzdHlsZT0iZmlsbDojMDM5QkM2OyIgZD0iTTAsODMuMTVjMS4wMSw0LjU5LDMuNDIsOC4xOSw2LjkzLDEwLjY0ICAgICAgYzMuODgtMC4wOCw3LjA0LTAuNTQsOS40NC0xLjM3YzAuMzUtMC4xMywwLjc0LDAuMDYsMC44NywwLjQyYzAuMTIsMC4zNi0wLjA3LDAuNzQtMC40MywwLjg3Yy0wLjMyLDAuMTEtMC42NSwwLjIxLTAuOTksMC4zMSAgICAgIGwwLDBjLTEuODksMC41NC00LjEyLDAuOTItNi43MywxLjA5YzYuNjksMy40MywxNi4zNiwzLjM4LDI3LjQ3LTAuODljNi43My0yLjU5LDEzLjItNi40MywxOS4wMS0xMS4wN0wwLDgzLjE1eiIvPiYjeGE7CQkJPC9nPiYjeGE7CQk8L2c+JiN4YTsJCTxnIGlkPSJzaGFwZTEzODUtMTUiIHRyYW5zZm9ybT0idHJhbnNsYXRlKDE2Ljk1OSwtMzcuNTAzNikiPiYjeGE7CQkJPHRpdGxlIGlkPSJ0aXRsZTE2NjQyMSI+U2hlZXQuMTM4NTwvdGl0bGU+JiN4YTsJCQk8cGF0aCBpZD0icGF0aDE2NjQyMyIgaW5rc2NhcGU6Y29ubmVjdG9yLWN1cnZhdHVyZT0iMCIgc3R5bGU9ImZpbGw6IzM5NEQ1NDsiIGQ9Ik02LjIsOTguNTRjMS4xMywwLDIuMjEtMC4wMywzLjI0LTAuMDkgICAgIGMwLjA5LTAuMDEsMC4xNy0wLjAxLDAuMjYtMC4wMmMwLjAxLDAsMC4wMSwwLDAuMDEsMGMyLjYxLTAuMTYsNC44Ny0wLjUxLDYuNzUtMS4wNWwwLDBjMC4zNS0wLjA5LDAuNjgtMC4yLDEtMC4zMSAgICAgYzAuMzUtMC4xMiwwLjU0LTAuNTEsMC40Mi0wLjg3Yy0wLjEyLTAuMzUtMC41MS0wLjU0LTAuODctMC40MmMtMi40LDAuODMtNS41NiwxLjI5LTkuNDMsMS4zN2wwLDBjLTEuOTgsMC4wNS00LjEzLDAtNi40Ny0wLjE1ICAgICBsMCwwYy0wLjEyLTAuMDEtMC4yNC0wLjAyLTAuMzYtMC4wM2MtMC4zNy0wLjAyLTAuNywwLjI2LTAuNzIsMC42NGMtMC4wMywwLjM3LDAuMjUsMC43LDAuNjMsMC43MyAgICAgYzAuNDgsMC4wMywwLjk1LDAuMDYsMS40MSwwLjA4YzAuMDcsMCwwLjE0LDAuMDEsMC4yMiwwLjAxQzMuNjUsOTguNSw0Ljk2LDk4LjU0LDYuMiw5OC41NEw2LjIsOTguNTR6Ii8+JiN4YTsJCTwvZz4mI3hhOwkJPGcgaWQ9Imdyb3VwMTM4Ni0xNyIgdHJhbnNmb3JtPSJ0cmFuc2xhdGUoMjEuNDQyNiwtNTYuODI5NykiPiYjeGE7CQkJPHRpdGxlIGlkPSJ0aXRsZTE2NjQyNiI+Q29udGFpbmVyc184XzwvdGl0bGU+JiN4YTsJCQk8ZyBpZD0ic2hhcGUxMzg3LTE4Ij4mI3hhOwkJCQk8dGl0bGUgaWQ9InRpdGxlMTY2NDI4Ij5TaGVldC4xMzg3PC90aXRsZT4mI3hhOwkJCQk8cGF0aCBpZD0icGF0aDE2NjQzMCIgaW5rc2NhcGU6Y29ubmVjdG9yLWN1cnZhdHVyZT0iMCIgc3R5bGU9ImZpbGw6IzAwQUNEMzsiIGQ9Ik02LjQ0LDkxLjQ5aDAuNjF2Ni40SDYuNDRWOTEuNDl6IE01LjI4LDkxLjQ5ICAgICAgaDAuNjN2Ni40SDUuMjhWOTEuNDl6IE00LjExLDkxLjQ5aDAuNjN2Ni40SDQuMTFWOTEuNDl6IE0yLjk1LDkxLjQ5aDAuNjN2Ni40SDIuOTVMMi45NSw5MS40OXogTTEuNzgsOTEuNDloMC42M3Y2LjRIMS43OCAgICAgIEwxLjc4LDkxLjQ5eiBNMC42NCw5MS40OWgwLjYxdjYuNEgwLjY0TDAuNjQsOTEuNDl6IE0wLDkwLjg1aDcuNjl2Ny42OUgwVjkwLjg1eiIvPiYjeGE7CQkJPC9nPiYjeGE7CQkJPGcgaWQ9InNoYXBlMTM4OC0yMCIgdHJhbnNmb3JtPSJ0cmFuc2xhdGUoOC44NzE5LC04Ljg3MzE3KSI+JiN4YTsJCQkJPHRpdGxlIGlkPSJ0aXRsZTE2NjQzMyI+U2hlZXQuMTM4ODwvdGl0bGU+JiN4YTsJCQkJPHBhdGggaWQ9InBhdGgxNjY0MzUiIGlua3NjYXBlOmNvbm5lY3Rvci1jdXJ2YXR1cmU9IjAiIHN0eWxlPSJmaWxsOiMwMEFDRDM7IiBkPSJNNi40NCw5MS40OWgwLjYxdjYuNDFINi40NFY5MS40OXogICAgICAgTTUuMjgsOTEuNDloMC42M3Y2LjQxSDUuMjhWOTEuNDl6IE00LjExLDkxLjQ5aDAuNjN2Ni40MUg0LjExVjkxLjQ5eiBNMi45NSw5MS40OWgwLjYzdjYuNDFIMi45NUwyLjk1LDkxLjQ5eiBNMS43OCw5MS40OSAgICAgIGgwLjYzdjYuNDFIMS43OEwxLjc4LDkxLjQ5eiBNMC42NCw5MS40OWgwLjYxdjYuNDFIMC42NEwwLjY0LDkxLjQ5eiBNMCw5MC44NWg3LjY5djcuNjlIMFY5MC44NXoiLz4mI3hhOwkJCTwvZz4mI3hhOwkJCTxnIGlkPSJzaGFwZTEzODktMjIiIHRyYW5zZm9ybT0idHJhbnNsYXRlKDguODcxOSkiPiYjeGE7CQkJCTx0aXRsZSBpZD0idGl0bGUxNjY0MzgiPlNoZWV0LjEzODk8L3RpdGxlPiYjeGE7CQkJCTxwYXRoIGlkPSJwYXRoMTY2NDQwIiBpbmtzY2FwZTpjb25uZWN0b3ItY3VydmF0dXJlPSIwIiBzdHlsZT0iZmlsbDojMjBDMkVGOyIgZD0iTTYuNDQsOTEuNDloMC42MXY2LjRINi40NFY5MS40OXogTTUuMjgsOTEuNDkgICAgICBoMC42M3Y2LjRINS4yOFY5MS40OXogTTQuMTEsOTEuNDloMC42M3Y2LjRINC4xMVY5MS40OXogTTIuOTUsOTEuNDloMC42M3Y2LjRIMi45NUwyLjk1LDkxLjQ5eiBNMS43OCw5MS40OWgwLjYzdjYuNEgxLjc4ICAgICAgTDEuNzgsOTEuNDl6IE0wLjY0LDkxLjQ5aDAuNjF2Ni40SDAuNjRMMC42NCw5MS40OXogTTAsOTAuODVoNy42OXY3LjY5SDBWOTAuODV6Ii8+JiN4YTsJCQk8L2c+JiN4YTsJCQk8ZyBpZD0ic2hhcGUxMzkwLTI0IiB0cmFuc2Zvcm09InRyYW5zbGF0ZSgxNy43NDYzKSI+JiN4YTsJCQkJPHRpdGxlIGlkPSJ0aXRsZTE2NjQ0MyI+U2hlZXQuMTM5MDwvdGl0bGU+JiN4YTsJCQkJPHBhdGggaWQ9InBhdGgxNjY0NDUiIGlua3NjYXBlOmNvbm5lY3Rvci1jdXJ2YXR1cmU9IjAiIHN0eWxlPSJmaWxsOiMwMEFDRDM7IiBkPSJNNi40NCw5MS40OWgwLjYxdjYuNEg2LjQ0VjkxLjQ5eiBNNS4yOCw5MS40OSAgICAgIGgwLjYzdjYuNEg1LjI4VjkxLjQ5eiBNNC4xMSw5MS40OWgwLjYzdjYuNEg0LjExVjkxLjQ5eiBNMi45NSw5MS40OWgwLjYzdjYuNEgyLjk1TDIuOTUsOTEuNDl6IE0xLjc4LDkxLjQ5aDAuNjN2Ni40SDEuNzggICAgICBMMS43OCw5MS40OXogTTAuNjQsOTEuNDloMC42MXY2LjRIMC42NEwwLjY0LDkxLjQ5eiBNMCw5MC44NWg3LjY5djcuNjlIMFY5MC44NXoiLz4mI3hhOwkJCTwvZz4mI3hhOwkJCTxnIGlkPSJzaGFwZTEzOTEtMjYiIHRyYW5zZm9ybT0idHJhbnNsYXRlKDE3Ljc0NjMsLTguODczMTcpIj4mI3hhOwkJCQk8dGl0bGUgaWQ9InRpdGxlMTY2NDQ4Ij5TaGVldC4xMzkxPC90aXRsZT4mI3hhOwkJCQk8cGF0aCBpZD0icGF0aDE2NjQ1MCIgaW5rc2NhcGU6Y29ubmVjdG9yLWN1cnZhdHVyZT0iMCIgc3R5bGU9ImZpbGw6IzIwQzJFRjsiIGQ9Ik02LjQ0LDkxLjQ5aDAuNjF2Ni40MUg2LjQ0VjkxLjQ5eiAgICAgICBNNS4yOCw5MS40OWgwLjYzdjYuNDFINS4yOFY5MS40OXogTTQuMTEsOTEuNDloMC42M3Y2LjQxSDQuMTFWOTEuNDl6IE0yLjk1LDkxLjQ5aDAuNjN2Ni40MUgyLjk1TDIuOTUsOTEuNDl6IE0xLjc4LDkxLjQ5ICAgICAgaDAuNjN2Ni40MUgxLjc4TDEuNzgsOTEuNDl6IE0wLjY0LDkxLjQ5aDAuNjF2Ni40MUgwLjY0TDAuNjQsOTEuNDl6IE0wLDkwLjg1aDcuNjl2Ny42OUgwVjkwLjg1eiIvPiYjeGE7CQkJPC9nPiYjeGE7CQkJPGcgaWQ9InNoYXBlMTM5Mi0yOCIgdHJhbnNmb3JtPSJ0cmFuc2xhdGUoMjYuNjE4MikiPiYjeGE7CQkJCTx0aXRsZSBpZD0idGl0bGUxNjY0NTMiPlNoZWV0LjEzOTI8L3RpdGxlPiYjeGE7CQkJCTxwYXRoIGlkPSJwYXRoMTY2NDU1IiBpbmtzY2FwZTpjb25uZWN0b3ItY3VydmF0dXJlPSIwIiBzdHlsZT0iZmlsbDojMjBDMkVGOyIgZD0iTTYuNDQsOTEuNDloMC42MXY2LjRINi40NFY5MS40OXogTTUuMjgsOTEuNDkgICAgICBoMC42M3Y2LjRINS4yOFY5MS40OXogTTQuMTEsOTEuNDloMC42M3Y2LjRINC4xMVY5MS40OXogTTIuOTUsOTEuNDloMC42M3Y2LjRIMi45NUwyLjk1LDkxLjQ5eiBNMS43OCw5MS40OWgwLjYzdjYuNEgxLjc4ICAgICAgTDEuNzgsOTEuNDl6IE0wLjY0LDkxLjQ5aDAuNjF2Ni40SDAuNjRMMC42NCw5MS40OXogTTAsOTAuODVoNy42OXY3LjY5SDBWOTAuODV6Ii8+JiN4YTsJCQk8L2c+JiN4YTsJCQk8ZyBpZD0ic2hhcGUxMzkzLTMwIiB0cmFuc2Zvcm09InRyYW5zbGF0ZSgyNi42MTgyLC04Ljg3MzE3KSI+JiN4YTsJCQkJPHRpdGxlIGlkPSJ0aXRsZTE2NjQ1OCI+U2hlZXQuMTM5MzwvdGl0bGU+JiN4YTsJCQkJPHBhdGggaWQ9InBhdGgxNjY0NjAiIGlua3NjYXBlOmNvbm5lY3Rvci1jdXJ2YXR1cmU9IjAiIHN0eWxlPSJmaWxsOiMwMEFDRDM7IiBkPSJNNi40NCw5MS40OWgwLjYxdjYuNDFINi40NFY5MS40OXogICAgICAgTTUuMjgsOTEuNDloMC42M3Y2LjQxSDUuMjhWOTEuNDl6IE00LjExLDkxLjQ5aDAuNjN2Ni40MUg0LjExVjkxLjQ5eiBNMi45NSw5MS40OWgwLjYzdjYuNDFIMi45NUwyLjk1LDkxLjQ5eiBNMS43OCw5MS40OSAgICAgIGgwLjYzdjYuNDFIMS43OEwxLjc4LDkxLjQ5eiBNMC42NCw5MS40OWgwLjYxdjYuNDFIMC42NEwwLjY0LDkxLjQ5eiBNMCw5MC44NWg3LjY5djcuNjlIMFY5MC44NXoiLz4mI3hhOwkJCTwvZz4mI3hhOwkJCTxnIGlkPSJzaGFwZTEzOTQtMzIiIHRyYW5zZm9ybT0idHJhbnNsYXRlKDI2LjYxODIsLTE3Ljc0NjMpIj4mI3hhOwkJCQk8dGl0bGUgaWQ9InRpdGxlMTY2NDYzIj5TaGVldC4xMzk0PC90aXRsZT4mI3hhOwkJCQk8cGF0aCBpZD0icGF0aDE2NjQ2NSIgaW5rc2NhcGU6Y29ubmVjdG9yLWN1cnZhdHVyZT0iMCIgc3R5bGU9ImZpbGw6IzIwQzJFRjsiIGQ9Ik02LjQ0LDkxLjQ5aDAuNjF2Ni40MUg2LjQ0VjkxLjQ5eiAgICAgICBNNS4yOCw5MS40OWgwLjYzdjYuNDFINS4yOFY5MS40OXogTTQuMTEsOTEuNDloMC42M3Y2LjQxSDQuMTFWOTEuNDl6IE0yLjk1LDkxLjQ5aDAuNjN2Ni40MUgyLjk1TDIuOTUsOTEuNDl6IE0xLjc4LDkxLjQ5ICAgICAgaDAuNjN2Ni40MUgxLjc4TDEuNzgsOTEuNDl6IE0wLjY0LDkxLjQ5aDAuNjF2Ni40MUgwLjY0TDAuNjQsOTEuNDl6IE0wLDkwLjg1aDcuNjl2Ny42OUgwVjkwLjg1eiIvPiYjeGE7CQkJPC9nPiYjeGE7CQkJPGcgaWQ9InNoYXBlMTM5NS0zNCIgdHJhbnNmb3JtPSJ0cmFuc2xhdGUoMzUuNDkxNCkiPiYjeGE7CQkJCTx0aXRsZSBpZD0idGl0bGUxNjY0NjgiPlNoZWV0LjEzOTU8L3RpdGxlPiYjeGE7CQkJCTxwYXRoIGlkPSJwYXRoMTY2NDcwIiBpbmtzY2FwZTpjb25uZWN0b3ItY3VydmF0dXJlPSIwIiBzdHlsZT0iZmlsbDojMDBBQ0QzOyIgZD0iTTYuNDQsOTEuNDloMC42MXY2LjRINi40NFY5MS40OXogTTUuMjgsOTEuNDkgICAgICBoMC42M3Y2LjRINS4yOFY5MS40OXogTTQuMTEsOTEuNDloMC42M3Y2LjRINC4xMVY5MS40OXogTTIuOTUsOTEuNDloMC42M3Y2LjRIMi45NUwyLjk1LDkxLjQ5eiBNMS43OCw5MS40OWgwLjYzdjYuNEgxLjc4ICAgICAgTDEuNzgsOTEuNDl6IE0wLjY0LDkxLjQ5aDAuNjF2Ni40SDAuNjRMMC42NCw5MS40OXogTTAsOTAuODVoNy42OXY3LjY5SDBWOTAuODV6Ii8+JiN4YTsJCQk8L2c+JiN4YTsJCTwvZz4mI3hhOwkJPGcgaWQ9InNoYXBlMTM5Ni0zNiIgdHJhbnNmb3JtPSJ0cmFuc2xhdGUoMzUuNDAyNCwtNDAuMTIpIj4mI3hhOwkJCTx0aXRsZSBpZD0idGl0bGUxNjY0NzQiPlNoZWV0LjEzOTY8L3RpdGxlPiYjeGE7CQkJPHBhdGggaWQ9InBhdGgxNjY0NzYiIGlua3NjYXBlOmNvbm5lY3Rvci1jdXJ2YXR1cmU9IjAiIHN0eWxlPSJmaWxsOiNENEVERjE7IiBkPSJNMi4xMiw5NC4yOWMxLjE3LDAsMi4xMiwwLjk1LDIuMTIsMi4xMiAgICAgYzAsMS4xOC0wLjk1LDIuMTMtMi4xMiwyLjEzUzAsOTcuNTksMCw5Ni40MUMwLDk1LjI0LDAuOTUsOTQuMjksMi4xMiw5NC4yOXoiLz4mI3hhOwkJPC9nPiYjeGE7CQk8ZyBpZD0ic2hhcGUxMzk3LTM4IiB0cmFuc2Zvcm09InRyYW5zbGF0ZSgzNi4wMDQsLTQwLjcyMykiPiYjeGE7CQkJPHRpdGxlIGlkPSJ0aXRsZTE2NjQ3OSI+U2hlZXQuMTM5NzwvdGl0bGU+JiN4YTsJCQk8cGF0aCBpZD0icGF0aDE2NjQ4MSIgaW5rc2NhcGU6Y29ubmVjdG9yLWN1cnZhdHVyZT0iMCIgc3R5bGU9ImZpbGw6IzM5NEQ1NDsiIGQ9Ik0xLjUyLDk1LjVjMC4xOSwwLDAuMzgsMC4wNCwwLjU1LDAuMSAgICAgYy0wLjE5LDAuMTEtMC4zMSwwLjMxLTAuMzEsMC41NGMwLDAuMzQsMC4yOCwwLjYyLDAuNjIsMC42MmMwLjIzLDAsMC40NC0wLjEzLDAuNTQtMC4zM2MwLjA4LDAuMTgsMC4xMiwwLjM4LDAuMTIsMC41OSAgICAgYzAsMC44NC0wLjY4LDEuNTItMS41MiwxLjUyQzAuNjgsOTguNTQsMCw5Ny44NiwwLDk3LjAyUzAuNjgsOTUuNSwxLjUyLDk1LjV6Ii8+JiN4YTsJCTwvZz4mI3hhOwkJPGcgaWQ9InNoYXBlMTM5OC00MCIgdHJhbnNmb3JtPSJ0cmFuc2xhdGUoMCwtNDguMDcyMykiPiYjeGE7CQkJPHRpdGxlIGlkPSJ0aXRsZTE2NjQ4NCI+U2hlZXQuMTM5ODwvdGl0bGU+JiN4YTsJCQk8cGF0aCBpZD0icGF0aDE2NjQ4NiIgaW5rc2NhcGU6Y29ubmVjdG9yLWN1cnZhdHVyZT0iMCIgc3R5bGU9ImZpbGw6IzM5NEQ1NDsiIGQ9Ik0wLDk3Ljg1aDQ2LjQ3aDUuNzVoNDYuNDcgICAgIGMtMi4xNS0wLjU1LTYuOC0xLjI4LTYuMDMtNC4xYy0zLjkxLDQuNTItMTMuMzMsMy4xNy0xNS43MSwwLjk0Yy0yLjY1LDMuODUtMTguMDcsMi4zOS0xOS4xNC0wLjYxYy0zLjMyLDMuOS0xMy42MSwzLjktMTYuOTMsMCAgICAgYy0xLjA4LDIuOTktMTYuNDksNC40NS0xOS4xNCwwLjYxYy0yLjM4LDIuMjMtMTEuOCwzLjU4LTE1LjcxLTAuOTRDNi44LDk2LjU3LDIuMTUsOTcuMywwLDk3Ljg1eiIvPiYjeGE7CQk8L2c+JiN4YTsJCTxnIGlkPSJzaGFwZTEzOTktNDIiIHRyYW5zZm9ybT0idHJhbnNsYXRlKDE5LjAyODUsLTI5LjAyODYpIj4mI3hhOwkJCTx0aXRsZSBpZD0idGl0bGUxNjY0ODkiPlNoZWV0LjEzOTk8L3RpdGxlPiYjeGE7CQkJPHBhdGggaWQ9InBhdGgxNjY0OTEiIGlua3NjYXBlOmNvbm5lY3Rvci1jdXJ2YXR1cmU9IjAiIHN0eWxlPSJmaWxsOiNCRkRCRTA7IiBkPSJNMjQuMTQsOTguNDlDMTguODgsOTYsMTYsOTIuNjEsMTQuMzksODguOTEgICAgIGMtMS45NSwwLjU1LTQuMjksMC45MS03LjAyLDEuMDZjLTEuMDMsMC4wNi0yLjExLDAuMDktMy4yNCwwLjA5Yy0xLjMxLDAtMi42OS0wLjA0LTQuMTMtMC4xMmM0LjgyLDQuODIsMTAuNzUsOC41MywyMS43Miw4LjU5ICAgICBDMjIuNTMsOTguNTQsMjMuMzQsOTguNTIsMjQuMTQsOTguNDl6Ii8+JiN4YTsJCTwvZz4mI3hhOwkJPGcgaWQ9InNoYXBlMTQwMC00NCIgdHJhbnNmb3JtPSJ0cmFuc2xhdGUoMjYuMzk4MiwtMzUuMjQzNCkiPiYjeGE7CQkJPHRpdGxlIGlkPSJ0aXRsZTE2NjQ5NCI+U2hlZXQuMTQwMDwvdGl0bGU+JiN4YTsJCQk8cGF0aCBpZD0icGF0aDE2NjQ5NiIgaW5rc2NhcGU6Y29ubmVjdG9yLWN1cnZhdHVyZT0iMCIgc3R5bGU9ImZpbGw6I0Q0RURGMTsiIGQ9Ik04Ljk3LDk4LjU0Yy0wLjcyLTAuOTktMS40My0yLjIzLTEuOTQtMy40MiAgICAgYy0xLjk2LDAuNTYtNC4zLDAuOTItNy4wMywxLjA3QzEuODcsOTcuMjEsNC41NSw5OC4xNSw4Ljk3LDk4LjU0eiIvPiYjeGE7CQk8L2c+JiN4YTsJPC9nPiYjeGE7PC9nPiYjeGE7PC9zdmc+;" vertex="1" parent="1">
          <mxGeometry x="332.25" y="399.99999999999994" width="39" height="32.7" as="geometry" />
        </mxCell>
        <mxCell id="_l90PH5LpGCPvIEXfJaW-5" value="VM com Docker" style="text;html=1;align=center;verticalAlign=middle;resizable=0;points=[];autosize=1;strokeColor=none;fillColor=none;" vertex="1" parent="1">
          <mxGeometry x="321.25" y="432.7" width="110" height="30" as="geometry" />
        </mxCell>
      </root>
    </mxGraphModel>
  </diagram>
</mxfile>
